<svg xmlns="http://www.w3.org/2000/svg" xmlns:xlink="http://www.w3.org/1999/xlink" fill="none" version="1.1" width="833" height="571.5" viewBox="0 0 833 571.5"><defs><filter id="master_svg0_55_384" filterUnits="objectBoundingBox" color-interpolation-filters="sRGB" x="-6" y="0" width="836" height="573"><feFlood flood-opacity="0" result="BackgroundImageFix"/><feColorMatrix in="SourceAlpha" type="matrix" values="0 0 0 0 0 0 0 0 0 0 0 0 0 0 0 0 0 0 127 0"/><feOffset dy="7" dx="0"/><feGaussianBlur stdDeviation="1.5"/><feColorMatrix type="matrix" values="0 0 0 0 0 0 0 0 0 0 0 0 0 0 0 0 0 0 0.30000001192092896 0"/><feBlend mode="normal" in2="BackgroundImageFix" result="effect1_dropShadow"/><feBlend mode="normal" in="SourceGraphic" in2="effect1_dropShadow" result="shape"/><feColorMatrix in="SourceAlpha" type="matrix" result="hardAlpha" values="0 0 0 0 0 0 0 0 0 0 0 0 0 0 0 0 0 0 127 0"/><feOffset dy="-5" dx="0"/><feGaussianBlur stdDeviation="0"/><feComposite in2="hardAlpha" operator="arithmetic" k2="-1" k3="1"/><feColorMatrix type="matrix" values="0 0 0 0 0 0 0 0 0 0 0 0 0 0 0 0 0 0 0.30000001192092896 0"/><feBlend mode="normal" in2="shape" result="effect2_innerShadow"/></filter><linearGradient x1="0.5" y1="0.1032547578215599" x2="0.5" y2="0.9085297584533691" id="master_svg1_57_590"><stop offset="0%" stop-color="#EEEEEE" stop-opacity="1"/><stop offset="100%" stop-color="#888888" stop-opacity="1"/></linearGradient><filter id="master_svg2_55_359" filterUnits="objectBoundingBox" color-interpolation-filters="sRGB" x="-6" y="0" width="575.4437255859375" height="106.34062194824219"><feFlood flood-opacity="0" result="BackgroundImageFix"/><feColorMatrix in="SourceAlpha" type="matrix" values="0 0 0 0 0 0 0 0 0 0 0 0 0 0 0 0 0 0 127 0"/><feOffset dy="7" dx="0"/><feGaussianBlur stdDeviation="1.5"/><feColorMatrix type="matrix" values="0 0 0 0 0 0 0 0 0 0 0 0 0 0 0 0 0 0 0.30000001192092896 0"/><feBlend mode="normal" in2="BackgroundImageFix" result="effect1_dropShadow"/><feBlend mode="normal" in="SourceGraphic" in2="effect1_dropShadow" result="shape"/><feColorMatrix in="SourceAlpha" type="matrix" result="hardAlpha" values="0 0 0 0 0 0 0 0 0 0 0 0 0 0 0 0 0 0 127 0"/><feOffset dy="-5" dx="0"/><feGaussianBlur stdDeviation="0"/><feComposite in2="hardAlpha" operator="arithmetic" k2="-1" k3="1"/><feColorMatrix type="matrix" values="0 0 0 0 0 0 0 0 0 0 0 0 0 0 0 0 0 0 0.30000001192092896 0"/><feBlend mode="normal" in2="shape" result="effect2_innerShadow"/></filter><linearGradient x1="0.5" y1="0.1032547578215599" x2="0.5" y2="0.9085297584533691" id="master_svg3_57_590"><stop offset="0%" stop-color="#EEEEEE" stop-opacity="1"/><stop offset="100%" stop-color="#888888" stop-opacity="1"/></linearGradient></defs><g><g filter="url(#master_svg0_55_384)"><path d="M734.5,518L734.5,347.5C734.5,172.15,592.35,30,417,30C241.65,30,99.5,172.15,99.5,347.5C99.5,347.667,99.5001,347.833,99.5004,348L99.5003,387.5L99.5,388L99.5,523L99.4958,523C99.1493,543.514,77.9865,560,52,560C26.0135,560,4.850662,543.514,4.5041748,523L4.5,523L4.5,388L4.5041748,388C4.5013599,387.833,4.5,387.667,4.5,387.5C4.5,366.789,25.7665,350,52,350C58.18,350,64.0844,350.932,69.5,352.627L69.5,347.5C69.5,155.581,225.081,0,417,0C608.919,0,764.5,155.581,764.5,347.5L764.5,352.528C769.772,350.896,775.505,350,781.5,350C807.457,350,828.5,366.789,828.5,387.5C828.5,387.667,828.499,387.833,828.496,388L828.5,388L828.5,523L828.496,523C828.153,543.514,807.213,560,781.5,560C755.787,560,734.847,543.514,734.504,523L734.5,523L734.5,518Z" fill-rule="evenodd" fill="url(#master_svg1_57_590)" fill-opacity="1"/></g><g filter="url(#master_svg2_55_359)"><path d="M147.6644,546.1781494140625Q142.85125,546.1781494140625,139.96125,543.7609494140625Q137.07125,541.3437494140625,135.78562,537.0140494140625Q134.5,532.6843494140625,134.5,526.9469494140625Q134.5,523.5256494140625,134.7125,519.6103494140625Q134.925,515.6950494140625,135.419062,511.5937494140625Q135.91313,507.4925494140625,136.67812,503.4072494140625Q137.44312,499.3218494140625,138.55875,495.4809494140625Q139.67438,491.6400494140625,141.11937,488.2825494140625Q146.1981,477.6575494140625,153.4603,472.3078494140625Q160.7225,466.9581494140625,170.7419,466.9581494140625Q177.425,466.9581494140625,181.7919,469.9118494140625Q186.1587,472.8656494140625,188.9478,477.5565494140625Q191.7369,482.2475494140625,193.49,487.4643494140625Q194.9031,491.4487494140625,196.70409999999998,494.4556494140625Q198.505,497.4625494140625,200.9169,497.4625494140625Q203.7113,497.4625494140625,206.0806,494.9709494140625Q208.45,492.4793494140625,211.08499999999998,487.7300494140625Q214.2937,481.9393494140625,217.9912,477.4503494140625Q221.68880000000001,472.9612494140625,226.7144,470.3847494140625Q231.74,467.8081494140625,238.827,467.8081494140625Q248.921,467.8081494140625,254.966,473.0409494140625Q261.012,478.2737494140625,263.721,487.36344941406253Q266.43100000000004,496.4531494140625,266.43100000000004,508.0344494140625Q266.43100000000004,511.7318494140625,266.245,515.5090494140625Q266.05899999999997,519.2862494140625,265.703,522.9412494140624Q265.347,526.5962494140625,264.752,529.9537494140625Q264.15700000000004,533.3112494140626,263.339,536.2012494140625Q261.56399999999996,541.3225494140625,258.488,543.7769494140625Q255.412,546.2312494140625,250.30200000000002,546.2312494140625Q245.606,546.2312494140625,242.59300000000002,544.0053494140625Q239.58100000000002,541.7793494140625,238.041,538.0500494140625Q237.72199999999998,536.5518494140625,237.536,534.6925494140625Q237.35,532.8331494140625,237.265,530.6178494140624Q237.18,528.4025494140625,237.122,525.8843494140625Q237.063,523.3662494140625,237.01,520.4922494140625Q236.957,517.6181494140625,236.851,514.4306494140625Q236.58499999999998,509.9787494140625,235.767,506.4778494140625Q234.949,502.9768494140625,233.5091,500.9634494140625Q232.0694,498.9500494140625,229.8063,498.9500494140625Q227.4581,498.9500494140625,225.33839999999998,501.2503494140625Q223.2188,503.5506494140625,221.29559999999998,507.2056494140625Q219.3725,510.8606494140625,217.4812,514.9512494140625Q214.01749999999998,522.8881494140625,210.1447,526.6175494140625Q206.27190000000002,530.3469494140625,199.5356,530.3469494140625Q192.7356,530.3469494140625,189.2453,526.3997494140625Q185.755,522.4525494140626,184.0231,516.2262494140625Q182.6737,511.2962494140625,181.4147,507.7050494140625Q180.1556,504.1137494140625,178.5831,502.1481494140625Q177.0106,500.1825494140625,174.6625,500.1825494140625Q172.50560000000002,500.1825494140625,170.54,502.1853494140625Q168.5744,504.1881494140625,166.9062,508.2468494140625Q165.3231,512.4968494140625,164.2659,517.0072494140625Q163.2087,521.5175494140625,162.5978,525.8259494140625Q161.9869,530.1343494140625,161.6681,533.8850494140625Q160.34,540.6531494140625,157.3225,543.4156494140625Q154.305,546.1781494140625,147.6644,546.1781494140625ZM328.629,548.7919494140625Q318.249,548.7919494140625,308.63800000000003,546.5340494140625Q299.028,544.2762494140625,291.447,539.3993494140625Q283.866,534.5225494140625,279.446,526.6812494140624Q275.026,518.8400494140625,275.026,507.6200494140625Q275.026,495.2950494140625,279.27099999999996,485.9131494140625Q283.51599999999996,476.5312494140625,291.006,470.1615494140625Q298.497,463.7918994140625,308.389,460.5725294140625Q318.281,457.3531494140625,329.596,457.3531494140625Q340.28499999999997,457.3531494140625,349.959,460.0093994140625Q359.63300000000004,462.6656494140625,367.14,468.2012494140625Q374.64599999999996,473.7369494140625,378.949,482.3165494140625Q383.253,490.8962494140625,383.253,502.7643494140625Q383.253,512.0719494140625,379.15700000000004,520.3806494140625Q375.06100000000004,528.6894494140624,367.671,535.0590494140625Q360.281,541.4287494140625,350.342,545.1103494140625Q340.402,548.7919494140625,328.629,548.7919494140625ZM327.206,521.3687494140624Q333.613,521.3687494140624,338.144,519.4084494140625Q342.676,517.4481494140625,345.534,514.1862494140626Q348.392,510.9244494140625,349.747,507.0250494140625Q351.101,503.1256494140625,351.101,499.2156494140625Q351.101,494.0200494140625,349.04499999999996,490.3597494140625Q346.98900000000003,486.6993494140625,343.568,484.4150494140625Q340.147,482.1306494140625,335.945,481.0681494140625Q331.743,480.0056494140625,327.365,480.0056494140625Q321.51099999999997,480.0056494140625,316.411,482.4387494140625Q311.31100000000004,484.8718494140625,308.182,489.7115494140625Q305.053,494.5512494140625,305.053,501.8187494140625Q305.053,507.8644494140625,307.661,512.2631494140625Q310.269,516.6618494140625,315.231,519.0153494140625Q320.193,521.3687494140624,327.206,521.3687494140624ZM447.374,548.7919494140625Q436.994,548.7919494140625,427.383,546.5340494140625Q417.773,544.2762494140625,410.192,539.3993494140625Q402.611,534.5225494140625,398.191,526.6812494140624Q393.771,518.8400494140625,393.771,507.6200494140625Q393.771,495.2950494140625,398.016,485.9131494140625Q402.261,476.5312494140625,409.751,470.1615494140625Q417.242,463.7918994140625,427.134,460.5725294140625Q437.026,457.3531494140625,448.341,457.3531494140625Q459.03,457.3531494140625,468.704,460.0093994140625Q478.378,462.6656494140625,485.885,468.2012494140625Q493.391,473.7369494140625,497.694,482.3165494140625Q501.997,490.8962494140625,501.997,502.7643494140625Q501.997,512.0719494140625,497.902,520.3806494140625Q493.806,528.6894494140624,486.416,535.0590494140625Q479.026,541.4287494140625,469.087,545.1103494140625Q459.147,548.7919494140625,447.374,548.7919494140625ZM445.951,521.3687494140624Q452.358,521.3687494140624,456.889,519.4084494140625Q461.421,517.4481494140625,464.279,514.1862494140626Q467.137,510.9244494140625,468.492,507.0250494140625Q469.846,503.1256494140625,469.846,499.2156494140625Q469.846,494.0200494140625,467.79,490.3597494140625Q465.734,486.6993494140625,462.313,484.4150494140625Q458.892,482.1306494140625,454.69,481.0681494140625Q450.487,480.0056494140625,446.11,480.0056494140625Q440.256,480.0056494140625,435.156,482.4387494140625Q430.056,484.8718494140625,426.927,489.7115494140625Q423.797,494.5512494140625,423.797,501.8187494140625Q423.797,507.8644494140625,426.406,512.2631494140625Q429.014,516.6618494140625,433.976,519.0153494140625Q438.938,521.3687494140624,445.951,521.3687494140624ZM539.1320000000001,546.9112494140625Q535.5509999999999,546.9112494140625,532.7570000000001,545.8647494140625Q529.962,544.8181494140625,527.822,542.9215494140625Q525.681,541.0250494140626,523.97,538.4644494140625Q522.047,535.2556494140625,520.543,531.1650494140625Q519.04,527.0743494140625,518.015,522.5375494140625Q516.989,518.0006494140625,516.463,513.3522494140625Q515.938,508.7037494140625,515.938,504.4325494140625Q515.938,490.3012494140625,521.802,480.4412494140625Q527.6669999999999,470.5812494140625,538.3399999999999,465.3856494140625Q549.0129999999999,460.1900294140625,563.4100000000001,460.1900294140625Q570.04,460.1900294140625,576.298,461.2472094140625Q582.556,462.3043994140625,587.534,464.4612694140625Q592.512,466.6181494140625,595.471,469.8747494140625Q598.4300000000001,473.1312494140625,598.4300000000001,477.5618494140625Q598.4300000000001,481.6525494140625,596.767,483.9900494140625Q595.104,486.3275494140625,592.475,487.2465494140625Q589.845,488.1656494140625,586.9970000000001,488.1656494140625Q582.312,488.1656494140625,577.8389999999999,486.9331494140625Q573.366,485.7006494140625,566.969,485.7006494140625Q558.788,485.7006494140625,554.379,490.6093494140625Q549.969,495.5181494140625,549.969,504.6556494140625Q549.969,508.0768494140625,550.293,511.3281494140625Q550.617,514.5793494140624,551.117,517.5703494140625Q551.616,520.5612494140626,552.1,523.2600494140625Q552.5830000000001,525.9587494140625,552.9069999999999,528.2059494140625Q553.231,530.4531494140625,553.231,532.2275494140625Q553.231,539.7075494140624,549.815,543.3093494140625Q546.399,546.9112494140625,539.1320000000001,546.9112494140625ZM654.859,550.6937494140625Q640.207,550.6937494140625,629.2529999999999,546.1993494140625Q618.299,541.7050494140625,612.269,532.4347494140625Q606.239,523.1643494140625,606.239,508.9162494140625Q606.239,497.1543494140625,610.24,488.2718494140625Q614.24,479.3893494140625,621.279,473.3809494140625Q628.318,467.3725494140625,637.573,464.3284594140625Q646.827,461.2843894140625,657.303,461.2843894140625Q664.432,461.2843894140625,671.132,462.6072094140625Q677.831,463.9300194140625,683.191,466.8518994140625Q688.551,469.7737494140625,691.686,474.4859494140625Q694.82,479.1981494140625,694.82,485.9237494140625Q694.82,491.92684941406253,692.546,495.9165494140625Q690.272,499.9062494140625,686.315,502.3925494140625Q682.357,504.8787494140625,677.273,506.3184494140625Q672.189,507.7581494140625,666.568,508.7143494140625Q663.019,509.6706494140625,657.856,510.4569494140625Q652.692,511.2431494140625,647.661,511.69474941406247Q642.63,512.1462494140625,639.4110000000001,512.1462494140625Q636.8389999999999,512.1462494140625,635.8299999999999,512.7784494140625Q634.821,513.4106494140625,634.821,515.0787494140625Q634.821,516.6618494140625,635.681,518.6647494140625Q636.5419999999999,520.6675494140625,638.168,522.4312494140624Q640.983,525.6718494140625,644.813,526.7609494140625Q648.644,527.8500494140625,654.179,527.8500494140625Q660.012,527.8500494140625,665.633,526.2031494140625Q671.254,524.5562494140624,676.572,522.9253494140625Q681.889,521.2943494140625,686.926,521.2943494140625Q691.962,521.2943494140625,694.953,523.1590494140625Q697.944,525.0237494140625,697.944,530.4850494140625Q697.944,535.2237494140625,694.491,538.9850494140625Q691.037,542.7462494140625,685.05,545.3547494140626Q679.063,547.9631494140625,671.28,549.3284494140626Q663.497,550.6937494140625,654.859,550.6937494140625ZM649.43,499.5237494140625Q654.349,499.5237494140625,658.95,498.4134494140625Q663.551,497.3031494140625,666.542,494.7584494140625Q669.532,492.2137494140625,669.532,487.9637494140625Q669.532,482.8106494140625,665.723,480.5475494140625Q661.914,478.2844494140625,655.656,478.2844494140625Q651.852,478.2844494140625,648.213,479.6018494140625Q644.5740000000001,480.9193494140625,641.679,483.2356494140625Q638.784,485.5518494140625,637.062,488.5322494140625Q635.341,491.5125494140625,635.341,494.8700494140625Q635.341,496.9843494140625,636.802,497.9725494140625Q638.2629999999999,498.9606494140625,641.392,499.2422494140625Q644.521,499.5237494140625,649.43,499.5237494140625Z" fill="url(#master_svg3_57_590)" fill-opacity="1"/></g></g></svg>