<svg xmlns="http://www.w3.org/2000/svg" xmlns:xlink="http://www.w3.org/1999/xlink" fill="none" version="1.1" width="600" height="460" viewBox="0 0 600 460"><defs><clipPath id="master_svg0_76_143"><rect x="0" y="0" width="600" height="460" rx="0"/></clipPath><filter id="master_svg1_76_457" filterUnits="objectBoundingBox" color-interpolation-filters="sRGB" x="-6" y="0" width="272" height="103.41522216796875"><feFlood flood-opacity="0" result="BackgroundImageFix"/><feColorMatrix in="SourceAlpha" type="matrix" values="0 0 0 0 0 0 0 0 0 0 0 0 0 0 0 0 0 0 127 0"/><feOffset dy="7" dx="0"/><feGaussianBlur stdDeviation="1.5"/><feColorMatrix type="matrix" values="0 0 0 0 0 0 0 0 0 0 0 0 0 0 0 0 0 0 0.30000001192092896 0"/><feBlend mode="normal" in2="BackgroundImageFix" result="effect1_dropShadow"/><feBlend mode="normal" in="SourceGraphic" in2="effect1_dropShadow" result="shape"/><feColorMatrix in="SourceAlpha" type="matrix" result="hardAlpha" values="0 0 0 0 0 0 0 0 0 0 0 0 0 0 0 0 0 0 127 0"/><feOffset dy="-3" dx="0"/><feGaussianBlur stdDeviation="0"/><feComposite in2="hardAlpha" operator="arithmetic" k2="-1" k3="1"/><feColorMatrix type="matrix" values="0 0 0 0 0 0 0 0 0 0 0 0 0 0 0 0 0 0 0.30000001192092896 0"/><feBlend mode="normal" in2="shape" result="effect2_innerShadow"/></filter><linearGradient x1="0.5" y1="0.1032547578215599" x2="0.5" y2="0.9085297584533691" id="master_svg2_57_590"><stop offset="0%" stop-color="#EEEEEE" stop-opacity="1"/><stop offset="100%" stop-color="#888888" stop-opacity="1"/></linearGradient><filter id="master_svg3_76_758" filterUnits="objectBoundingBox" color-interpolation-filters="sRGB" x="-6" y="0" width="127" height="135.43352508544922"><feFlood flood-opacity="0" result="BackgroundImageFix"/><feColorMatrix in="SourceAlpha" type="matrix" values="0 0 0 0 0 0 0 0 0 0 0 0 0 0 0 0 0 0 127 0"/><feOffset dy="7" dx="0"/><feGaussianBlur stdDeviation="1.5"/><feColorMatrix type="matrix" values="0 0 0 0 0 0 0 0 0 0 0 0 0 0 0 0 0 0 0.30000001192092896 0"/><feBlend mode="normal" in2="BackgroundImageFix" result="effect1_dropShadow"/><feBlend mode="normal" in="SourceGraphic" in2="effect1_dropShadow" result="shape"/><feColorMatrix in="SourceAlpha" type="matrix" result="hardAlpha" values="0 0 0 0 0 0 0 0 0 0 0 0 0 0 0 0 0 0 127 0"/><feOffset dy="-3" dx="0"/><feGaussianBlur stdDeviation="0"/><feComposite in2="hardAlpha" operator="arithmetic" k2="-1" k3="1"/><feColorMatrix type="matrix" values="0 0 0 0 0 0 0 0 0 0 0 0 0 0 0 0 0 0 0.30000001192092896 0"/><feBlend mode="normal" in2="shape" result="effect2_innerShadow"/></filter><linearGradient x1="0.5" y1="0.1032547578215599" x2="0.5" y2="0.9085297584533691" id="master_svg4_57_590"><stop offset="0%" stop-color="#EEEEEE" stop-opacity="1"/><stop offset="100%" stop-color="#888888" stop-opacity="1"/></linearGradient><filter id="master_svg5_76_759" filterUnits="objectBoundingBox" color-interpolation-filters="sRGB" x="-6" y="0" width="152" height="81.89686584472656"><feFlood flood-opacity="0" result="BackgroundImageFix"/><feColorMatrix in="SourceAlpha" type="matrix" values="0 0 0 0 0 0 0 0 0 0 0 0 0 0 0 0 0 0 127 0"/><feOffset dy="7" dx="0"/><feGaussianBlur stdDeviation="1.5"/><feColorMatrix type="matrix" values="0 0 0 0 0 0 0 0 0 0 0 0 0 0 0 0 0 0 0.30000001192092896 0"/><feBlend mode="normal" in2="BackgroundImageFix" result="effect1_dropShadow"/><feBlend mode="normal" in="SourceGraphic" in2="effect1_dropShadow" result="shape"/><feColorMatrix in="SourceAlpha" type="matrix" result="hardAlpha" values="0 0 0 0 0 0 0 0 0 0 0 0 0 0 0 0 0 0 127 0"/><feOffset dy="-3" dx="0"/><feGaussianBlur stdDeviation="0"/><feComposite in2="hardAlpha" operator="arithmetic" k2="-1" k3="1"/><feColorMatrix type="matrix" values="0 0 0 0 0 0 0 0 0 0 0 0 0 0 0 0 0 0 0.30000001192092896 0"/><feBlend mode="normal" in2="shape" result="effect2_innerShadow"/></filter><linearGradient x1="0.5" y1="0.1032547578215599" x2="0.5" y2="0.9085297584533691" id="master_svg6_57_590"><stop offset="0%" stop-color="#EEEEEE" stop-opacity="1"/><stop offset="100%" stop-color="#888888" stop-opacity="1"/></linearGradient></defs><g clip-path="url(#master_svg0_76_143)"><g filter="url(#master_svg1_76_457)"><path d="M287.42,135.7251C287.42,135.6693,287.419,135.6135,287.419,135.5577C287.419,128.62226,293.052,123,300,123C306.948,123,312.581,128.62226,312.581,135.5577C312.581,135.6135,312.58000000000004,135.6693,312.58000000000004,135.7251L312.581,135.7251L312.581,176.5794L312.584,176.5794C312.582,176.6352,312.581,176.691,312.581,176.7468C312.581,179.0586,314.45799999999997,180.9327,316.774,180.9327C319.09000000000003,180.9327,320.96799999999996,179.0586,320.96799999999996,176.7468C320.96799999999996,176.691,320.967,176.6352,320.964,176.5794L320.96799999999996,176.5794L320.96799999999996,145.7712L320.969,145.7712C320.96799999999996,145.7154,320.96799999999996,145.6596,320.96799999999996,145.6038C320.96799999999996,138.6684,326.6,133.0461,333.548,133.0461C340.496,133.0461,346.129,138.6684,346.129,145.6038C346.129,145.6596,346.129,145.7154,346.128,145.7712L346.126,145.7712C346.128,145.827,346.129,145.8828,346.129,145.9387C346.129,148.2505,344.252,150.1246,341.935,150.1246C339.619,150.1246,337.74199999999996,148.2505,337.74199999999996,145.9387C337.74199999999996,145.8828,337.743,145.827,337.745,145.7712L337.73900000000003,145.7712C337.741,145.7155,337.74199999999996,145.6596,337.74199999999996,145.6038C337.74199999999996,143.292,335.86400000000003,141.4179,333.548,141.4179C331.23199999999997,141.4179,329.355,143.292,329.355,145.6038C329.355,145.6596,329.356,145.7155,329.358,145.7712L329.355,145.7712L329.355,201.35989999999998L329.351,201.35989999999998C329.35400000000004,201.41559999999998,329.355,201.4715,329.355,201.5273C329.355,203.8391,327.477,205.7132,325.161,205.7132C322.845,205.7132,320.96799999999996,203.8391,320.96799999999996,201.5273C320.96799999999996,201.4715,320.969,201.41559999999998,320.971,201.35989999999998L320.96799999999996,201.35989999999998L320.96799999999996,189.9742L320.964,189.9742C320.874,187.7294,319.025,185.9558,316.774,185.9558C314.523,185.9558,312.674,187.7294,312.584,189.9742L312.581,189.9742L312.581,201.025L312.58000000000004,201.025C312.488,207.8945,306.88300000000004,213.4152,300,213.4152C293.117,213.4152,287.512,207.8945,287.42,201.025L287.419,201.025L287.419,166.5333L287.416,166.5333C287.326,164.2884,285.477,162.5148,283.226,162.5148C280.975,162.5148,279.126,164.2884,279.036,166.5333L279.032,166.5333L279.032,190.9789L279.031,190.9789C278.93899999999996,197.8483,273.334,203.3691,266.4516,203.3691C259.5689,203.3691,253.9638,197.8483,253.8721,190.9789L253.87099999999998,190.9789L253.87099999999998,188.9696L253.86759999999998,188.9696C253.7776,186.72480000000002,251.9282,184.9512,249.6774,184.9512C247.4266,184.9512,245.57729999999998,186.72480000000002,245.4872,188.9696L245.4839,188.9696L245.4839,192.3183L245.4805,192.3183C245.3905,194.5632,243.5411,196.33679999999998,241.2903,196.33679999999998C239.0396,196.33679999999998,237.1902,194.5632,237.1001,192.3183L237.0968,192.3183L237.0968,155.8174L237.0934,155.8174C237.0957,155.7616,237.0968,155.7058,237.0968,155.6499C237.0968,153.3381,235.2193,151.4641,232.9032,151.4641C230.5872,151.4641,228.7097,153.3381,228.7097,155.6499C228.7097,155.7058,228.7108,155.7616,228.713,155.8174L228.7097,155.8174L228.7097,187.965L228.6794,187.965C228.4248,190.0672,226.6375,191.6486,224.5161,191.6486C222.3947,191.6486,220.60750000000002,190.0672,220.3529,187.965L220.3226,187.965L220.3226,160.50560000000002L220.3192,160.50560000000002C220.32150000000001,160.4498,220.3226,160.394,220.3226,160.3381C220.3226,158.0263,218.4451,156.1522,216.129,156.1522C213.813,156.1522,211.9355,158.0263,211.9355,160.3381C211.9355,160.394,211.9366,160.4498,211.93880000000001,160.50560000000002L211.9355,160.50560000000002L211.9355,182.6071L211.9321,182.6071C211.84210000000002,184.8519,209.9927,186.6255,207.7419,186.6255C205.4912,186.6255,203.6418,184.8519,203.55169999999998,182.6071L203.54840000000002,182.6071L203.54840000000002,175.5748L203.54500000000002,175.5748C203.45499999999998,173.3299,201.6056,171.5563,199.3548,171.5563C197.1041,171.5563,195.2547,173.3299,195.1646,175.5748L195.1613,175.5748L195.1613,177.2491L195.1579,177.2491C195.0679,179.494,193.2185,181.26760000000002,190.9677,181.26760000000002C188.71699999999998,181.26760000000002,186.8676,179.494,186.7775,177.2491L186.7742,177.2491L186.7742,159.501L186.7775,159.501C186.77530000000002,159.4452,186.7742,159.3894,186.7742,159.33350000000002C186.7742,157.0217,188.6517,155.1476,190.9677,155.1476C193.28379999999999,155.1476,195.1613,157.0217,195.1613,159.33350000000002C195.1613,159.3894,195.1602,159.4452,195.1579,159.501L195.1613,159.501L195.1613,162.1799L195.1646,162.1799C195.1624,162.2357,195.1613,162.29149999999998,195.1613,162.3474C195.1613,164.6592,197.0388,166.5333,199.3548,166.5333C201.6709,166.5333,203.54840000000002,164.6592,203.54840000000002,162.3474C203.54840000000002,162.29149999999998,203.5473,162.2357,203.54500000000002,162.1799L203.54840000000002,162.1799L203.54840000000002,160.50560000000002L203.5495,160.50560000000002C203.5487,160.4498,203.54840000000002,160.394,203.54840000000002,160.3381C203.54840000000002,153.4027,209.1809,147.7805,216.129,147.7805C218.2769,147.7805,220.299,148.3177,222.0679,149.2649C224.2578,145.5701,228.29070000000002,143.0923,232.9032,143.0923C239.85129999999998,143.0923,245.4839,148.7145,245.4839,155.6499C245.4839,155.7058,245.4835,155.7616,245.4828,155.8174L245.4839,155.8174L245.4839,175.5748L245.4872,175.5748C245.485,175.63060000000002,245.4839,175.6864,245.4839,175.7422C245.4839,178.054,247.3614,179.9281,249.6774,179.9281C251.99349999999998,179.9281,253.87099999999998,178.054,253.87099999999998,175.7422C253.87099999999998,175.6864,253.8699,175.63060000000002,253.86759999999998,175.5748L253.87099999999998,175.5748L253.87099999999998,145.7712L253.8721,145.7712C253.87130000000002,145.7154,253.87099999999998,145.6596,253.87099999999998,145.6038C253.87099999999998,138.6684,259.50350000000003,133.0461,266.4516,133.0461C273.4,133.0461,279.032,138.6684,279.032,145.6038C279.032,145.6596,279.032,145.7154,279.031,145.7712L279.032,145.7712L279.032,153.1384L279.036,153.1384C279.033,153.1942,279.032,153.25,279.032,153.3058C279.032,155.6176,280.90999999999997,157.4917,283.226,157.4917C285.54200000000003,157.4917,287.419,155.6176,287.419,153.3058C287.419,153.25,287.418,153.1942,287.416,153.1384L287.419,153.1384L287.419,135.7251L287.42,135.7251ZM295.806,153.1384L295.806,201.025L295.81,201.025C295.9,203.2699,297.749,205.04340000000002,300,205.04340000000002C302.251,205.04340000000002,304.1,203.2699,304.19,201.025L304.19399999999996,201.025L304.19399999999996,135.7251L304.19,135.7251C304.192,135.6693,304.19399999999996,135.6135,304.19399999999996,135.5577C304.19399999999996,133.2459,302.31600000000003,131.37178,300,131.37178C297.68399999999997,131.37178,295.806,133.2459,295.806,135.5577C295.806,135.6135,295.808,135.6693,295.81,135.7251L295.806,135.7251L295.806,153.1384ZM270.645,153.1384L270.645,145.7712L270.642,145.7712C270.644,145.7155,270.645,145.6596,270.645,145.6038C270.645,143.292,268.7676,141.4179,266.4516,141.4179C264.1356,141.4179,262.2581,143.292,262.2581,145.6038C262.2581,145.6596,262.2592,145.7155,262.2614,145.7712L262.2581,145.7712L262.2581,190.9789L262.2614,190.9789C262.3515,193.2237,264.2008,194.9973,266.4516,194.9973C268.7024,194.9973,270.552,193.2237,270.642,190.9789L270.645,190.9789L270.645,153.1384ZM354.51599999999996,155.6499C354.51599999999996,155.7058,354.51599999999996,155.7616,354.517,155.8174L354.51599999999996,155.8174L354.51599999999996,168.2076L354.51300000000003,168.2076C354.515,168.2634,354.51599999999996,168.3192,354.51599999999996,168.375C354.51599999999996,170.6869,352.639,172.5609,350.323,172.5609C348.007,172.5609,346.129,170.6869,346.129,168.375C346.129,168.3192,346.13,168.2634,346.132,168.2076L346.129,168.2076L346.129,167.8727L346.126,167.8727C346.128,167.817,346.129,167.7611,346.129,167.7053C346.129,165.39350000000002,344.252,163.5194,341.935,163.5194C339.619,163.5194,337.74199999999996,165.39350000000002,337.74199999999996,167.7053C337.74199999999996,167.7611,337.743,167.817,337.745,167.8727L337.74199999999996,167.8727L337.74199999999996,181.9373L337.745,181.9373C337.83500000000004,184.1822,339.685,185.9558,341.935,185.9558C344.18600000000004,185.9558,346.036,184.1822,346.126,181.9373L346.129,181.9373L346.129,181.6025L346.132,181.6025C346.222,179.3576,348.072,177.584,350.323,177.584C352.573,177.584,354.423,179.3576,354.51300000000003,181.6025L354.544,181.6025C354.977,188.1575,360.43899999999996,193.32299999999998,367.097,193.32299999999998C373.97900000000004,193.32299999999998,379.58500000000004,187.8022,379.676,180.9327L379.677,180.9327L379.677,176.5794L371.28999999999996,176.5794L371.28999999999996,180.9327L371.28700000000003,180.9327C371.197,183.17759999999998,369.348,184.9512,367.097,184.9512C364.846,184.9512,362.997,183.17759999999998,362.90700000000004,180.9327L362.903,180.9327L362.903,168.2076L375.652,168.2076L375.652,168.2043C377.834,168.11860000000001,379.58799999999997,166.3678,379.674,164.1892L379.677,164.1892L379.677,155.8174L379.676,155.8174C379.677,155.7616,379.677,155.7058,379.677,155.6499C379.677,148.7145,374.04499999999996,143.0923,367.097,143.0923C360.149,143.0923,354.51599999999996,148.7145,354.51599999999996,155.6499ZM396.452,154.3105C396.452,154.3663,396.451,154.4221,396.448,154.4779L396.452,154.4779L396.452,160.1707L396.45500000000004,160.1707C396.453,160.2265,396.452,160.2823,396.452,160.3381C396.452,162.6499,398.329,164.524,400.645,164.524C402.961,164.524,404.839,162.6499,404.839,160.3381C404.839,160.2823,404.83799999999997,160.2265,404.83500000000004,160.1707L404.839,160.1707L404.839,159.1661L404.842,159.1661C404.932,156.9212,406.781,155.1476,409.03200000000004,155.1476C411.283,155.1476,413.132,156.9212,413.222,159.1661L413.226,159.1661L413.226,177.2491L413.222,177.2491C413.132,179.494,411.283,181.26760000000002,409.03200000000004,181.26760000000002C406.781,181.26760000000002,404.932,179.494,404.842,177.2491L404.839,177.2491L404.839,173.56560000000002L404.83500000000004,173.56560000000002C404.745,171.3207,402.89599999999996,169.5471,400.645,169.5471C398.394,169.5471,396.54499999999996,171.3207,396.45500000000004,173.56560000000002L396.452,173.56560000000002L396.452,181.9373L396.448,181.9373C396.358,184.1822,394.509,185.9558,392.25800000000004,185.9558C390.007,185.9558,388.158,184.1822,388.068,181.9373L388.06399999999996,181.9373L388.06399999999996,154.4779L388.068,154.4779C388.06600000000003,154.4221,388.06399999999996,154.3663,388.06399999999996,154.3105C388.06399999999996,151.99869999999999,389.942,150.1246,392.25800000000004,150.1246C394.574,150.1246,396.452,151.99869999999999,396.452,154.3105ZM371.28999999999996,161.5102L371.28999999999996,155.8174L371.28700000000003,155.8174C371.289,155.7616,371.28999999999996,155.7058,371.28999999999996,155.6499C371.28999999999996,153.3381,369.413,151.4641,367.097,151.4641C364.781,151.4641,362.903,153.3381,362.903,155.6499C362.903,155.7058,362.904,155.7616,362.90700000000004,155.8174L362.903,155.8174L362.903,161.5102L371.28999999999996,161.5102ZM178.3871,164.0217C178.3871,164.0776,178.38598,164.1334,178.38374,164.1892L178.3871,164.1892L178.3871,172.5609L178.38374,172.5609C178.29371,174.8058,176.44432,176.5794,174.19355,176.5794C171.94277,176.5794,170.0933872,174.8058,170.00335618,172.5609L170,172.5609L170,164.1892L170.00335618,164.1892C170.00111895,164.1334,170,164.0776,170,164.0217C170,161.7099,171.87752,159.8358,174.19355,159.8358C176.50958,159.8358,178.3871,161.7099,178.3871,164.0217ZM430,164.0217C430,164.0776,429.999,164.1334,429.997,164.1892L430,164.1892L430,172.5609L429.997,172.5609C429.907,174.8058,428.057,176.5794,425.80600000000004,176.5794C423.55600000000004,176.5794,421.706,174.8058,421.616,172.5609L421.613,172.5609L421.613,164.1892L421.616,164.1892C421.61400000000003,164.1334,421.613,164.0776,421.613,164.0217C421.613,161.7099,423.49,159.8358,425.80600000000004,159.8358C428.122,159.8358,430,161.7099,430,164.0217Z" fill-rule="evenodd" fill="url(#master_svg2_57_590)" fill-opacity="1"/></g><g><path d="M300.620431640625,10.7755126953125C166.067431640625,10.7755126953125,56.992431640625,125.1655126953125,56.992431640625,266.2735126953125C56.992431640625,276.9955126953125,57.630786640625,287.5575126953125,58.853721640625,297.9295126953125L78.238531640625,297.9295126953125C76.911531640625,287.5735126953125,76.212431640625,277.0095126953125,76.212431640625,266.2735126953125C76.212431640625,136.2975126953125,176.683431640625,30.9305126953125,300.621431640625,30.9305126953125C424.561431640625,30.9305126953125,525.032431640625,136.2975126953125,525.032431640625,266.2735126953125C525.032431640625,277.0095126953125,524.3324316406249,287.5735126953125,523.006431640625,297.9295126953125L542.388431640625,297.9295126953125C543.611431640625,287.5575126953125,544.251431640625,276.9955126953125,544.251431640625,266.2735126953125C544.2494316406251,125.1645126953125,435.170431640625,10.7755126953125,300.620431640625,10.7755126953125Z" fill="#BFBFBF" fill-opacity="1"/></g><g><path d="M81.7963,254.503900859375Q60.8,243.702170859375,50,257.203020859375Q50,348.328080859375,77,376.004880859375Q94.2147,376.436880859375,96.57560000000001,367.232880859375L81.7963,265.976880859375L81.7963,254.503900859375Z" fill="#3E444E" fill-opacity="1"/></g><g><path d="M518.20531640625,254.50378328125L518.20531640625,265.97681328125L503.42431640625,367.23261328125Q505.78691640625,376.43661328125,523.00341640625,376.00461328125Q550.00161640625,348.32801328125,549.99991640625,257.20293328125Q539.20331640625,243.70380328125,518.20531640625,254.50378328125Z" fill="#3E444E" fill-opacity="1"/></g><g><path d="M64.35538884875,320.076892578125C63.91378321875,364.976392578125,97.62617421875001,402.255392578125,141.28627421875,407.225392578125L142.98147421875,234.452468569625C99.23467421875,238.565612578125,64.79557021875,275.174992578125,64.35538884875,320.076892578125ZM457.02007421875,234.452424475725L458.71507421875,407.225392578125C502.37307421875,402.253392578125,536.0880742187501,364.976392578125,535.64407421875,320.077092578125C535.20607421875,275.17489257812497,500.76807421875,238.565272578125,457.02007421875,234.452424475725Z" fill="#D0D1D1" fill-opacity="1"/></g><g><path d="M179.9562234375,234.97994609375C180.0420234375,226.35345609375,171.8322234375,219.27937309375,161.6218234375,219.17826705375C151.4114234375,219.07716109375,143.0663234375,225.99091609375,142.9825234375,234.61594609375L141.3122064225,404.67624609375C141.2266982375,413.30124609375,149.4365334375,420.37524609375,159.6452234375,420.47624609375C169.85562343750001,420.57724609375,178.20072343750002,413.66324609375,178.28622343749998,405.03824609375L179.9562234375,234.97994609375ZM438.3805234375,219.17843099375C428.1715234375,219.27924909375,419.9635234375,226.35302609375,420.0475234375,234.97984609375L421.7175234375,405.03824609375C421.8025234375,413.66324609375,430.1485234375,420.57624609375,440.3585234375,420.47524609375C450.5655234375,420.37524609375,458.7755234375,413.30124609375,458.6915234375,404.67624609375L457.0215234375,234.61584609375C456.9355234375,225.99105609375,448.5885234375,219.07761329375,438.3805234375,219.17843099375Z" fill="#3E444E" fill-opacity="1"/></g><g><path d="M300.460107421875,4C219.785107421875,4,147.869607421875,41.4496,101.110107421875,99.9006L132.504007421875,127.102C171.625707421875,77.4177,232.318107421875,45.5139,300.462107421875,45.5139C367.843107421875,45.5139,427.927107421875,76.7134,467.087107421875,125.445L498.215107421875,97.9127C451.423107421875,40.5996,380.220107421875,4,300.460107421875,4Z" fill="#4B5B6D" fill-opacity="1"/></g><g filter="url(#master_svg3_76_758)"><path d="M301.3807,374.5187L358,374.5187L358,389.9862L301.3807,389.9862L301.3807,374.5187ZM328.9453,386.2318L344.933,386.2318L344.933,455.196L328.9453,455.196L328.9453,386.2318ZM342.2812,334L354.86199999999997,346.5948Q346.996,349.6814,337.72180000000003,352.2956Q328.4493,354.9098,318.867,356.9438Q309.2846,358.9778,300.1416,360.4396Q299.7104,357.6523,298.194,353.845Q296.6796,350.0356,295.2806,347.4519Q303.7879,345.8598,312.4308,343.73824Q321.0758,341.61672,328.8198,339.12057Q336.56579999999997,336.62239,342.2812,334ZM295.2806,347.4519L311.4975,347.4519L311.4975,383.2206Q311.4975,391.214,310.86379999999997,400.8524Q310.2301,410.4889,308.3796,420.504Q306.5312,430.5171,303.1117,439.78499999999997Q299.6922,449.051,294.0193,456.43399999999997Q292.6487,454.925,290.1949,452.879Q287.7431,450.834,285.1375,448.955Q282.5339,447.076,280.7017,446.233Q285.73879999999997,439.51800000000003,288.6744,431.5799Q291.6101,423.6395,293.02729999999997,415.13509999999997Q294.4465,406.6286,294.8636,398.4357Q295.2806,390.2428,295.2806,383.0903L295.2806,347.4519ZM249.79448,344.6382L283.80129999999997,344.6382L283.80129999999997,422.9065L249.79448,422.9065L249.79448,407.7443L268.4935,407.7443L268.4935,359.6985L249.79448,359.6985L249.79448,344.6382ZM243,344.6382L257.9049,344.6382L257.9049,433.4205L243,433.4205L243,344.6382Z" fill="url(#master_svg4_57_590)" fill-opacity="1"/></g><g filter="url(#master_svg5_76_759)"><path d="M252.2391,297.9169Q244.777,297.9169,241.0054,294.2214Q237.23495,290.5248,237.23495,283.0871L237.23495,267.5834L230,267.5834L230,259.1838L237.23495,259.1838L237.23495,249.85041L248.60750000000002,247.07942L248.60750000000002,259.1838L258.3738,259.1838L258.3738,267.5834L248.60750000000002,267.5834L248.60750000000002,282.5348Q248.60750000000002,286.1237,250.102,287.4624Q251.5966,288.7999,253.9725,288.7999Q255.3564,288.7999,256.3261,288.5987Q257.2958,288.3974,258.322,288.023L258.322,296.8216Q256.8769,297.416,255.2847,297.6664Q253.6936,297.9169,252.2391,297.9169ZM264.1683,297.1211L264.1683,259.1838L275.5409,259.1838L275.5409,297.1211L264.1683,297.1211ZM257.6112,251.38686L257.6112,245L282.2133,245L282.2133,251.38686L257.6112,251.38686ZM284.8046,297.1211L284.8046,269.066Q284.8046,266.6262,284.654,264.1243Q284.5033,261.6225,284.2021,259.1838L295.1792,259.1838L295.9559,266.2271L295.0757,266.2271Q296.9303,262.4685,300.423,260.4289Q303.9158,258.3881,308.4429,258.3881Q315.1707,258.3881,318.5351,262.238Q321.9008,266.0879,321.9008,274.2136L321.9008,297.1211L310.5294,297.1211L310.5294,274.7109Q310.5294,270.6106,308.9948,268.8729Q307.4603,267.134,304.4877,267.134Q300.6855,267.134,298.4307,269.5142Q296.17719999999997,271.8931,296.17719999999997,275.8472L296.17719999999997,297.1211L284.8046,297.1211ZM349.139,313.8969Q343.655,313.8969,339.353,312.8203Q335.05,311.7437,331.665,309.5625L333.86400000000003,301.4859Q335.954,302.7918,338.336,303.6543Q340.718,304.5179,343.25,304.95550000000003Q345.783,305.3931,348.226,305.3931Q353.308,305.3931,355.777,302.9966Q358.246,300.6012,358.246,296.1604L358.246,288.271L358.976,288.271Q357.771,291.8846,354.177,294.0424Q350.58299999999997,296.199,346.05,296.199Q340.952,296.199,337.137,293.9031Q333.322,291.6072,331.201,287.3384Q329.0804,283.0696,329.0804,277.2795Q329.0804,271.4894,331.201,267.2346Q333.322,262.9799,337.137,260.684Q340.952,258.3881,346.05,258.3881Q350.682,258.3881,354.177,260.5201Q357.672,262.651,358.877,266.21659999999997L358.246,265.9088L359.023,259.1838L370,259.1838Q369.699,261.6225,369.548,264.1243Q369.397,266.6262,369.397,269.066L369.397,294.8486Q369.397,304.0896,364.221,308.9926Q359.044,313.8969,349.139,313.8969ZM349.413,287.6719Q353.413,287.6719,355.76800000000003,284.991Q358.124,282.3101,358.124,277.2795Q358.124,272.2255,355.76800000000003,269.5703Q353.413,266.914,349.413,266.914Q345.33799999999997,266.914,342.944,269.5703Q340.552,272.2255,340.552,277.2795Q340.552,282.3101,342.944,284.991Q345.33799999999997,287.6719,349.413,287.6719Z" fill="url(#master_svg6_57_590)" fill-opacity="1"/></g></g></svg>