<svg xmlns="http://www.w3.org/2000/svg" xmlns:xlink="http://www.w3.org/1999/xlink" fill="none" version="1.1" width="1033" height="721.5" viewBox="0 0 1033 721.5"><defs><filter id="master_svg0_33_7081" filterUnits="objectBoundingBox" color-interpolation-filters="sRGB" x="-6" y="0" width="787" height="283"><feFlood flood-opacity="0" result="BackgroundImageFix"/><feColorMatrix in="SourceAlpha" type="matrix" values="0 0 0 0 0 0 0 0 0 0 0 0 0 0 0 0 0 0 127 0"/><feOffset dy="7" dx="0"/><feGaussianBlur stdDeviation="1.5"/><feColorMatrix type="matrix" values="0 0 0 0 0 0 0 0 0 0 0 0 0 0 0 0 0 0 0.30000001192092896 0"/><feBlend mode="normal" in2="BackgroundImageFix" result="effect1_dropShadow"/><feBlend mode="normal" in="SourceGraphic" in2="effect1_dropShadow" result="shape"/><feColorMatrix in="SourceAlpha" type="matrix" result="hardAlpha" values="0 0 0 0 0 0 0 0 0 0 0 0 0 0 0 0 0 0 127 0"/><feOffset dy="-5" dx="0"/><feGaussianBlur stdDeviation="0"/><feComposite in2="hardAlpha" operator="arithmetic" k2="-1" k3="1"/><feColorMatrix type="matrix" values="0 0 0 0 0 0 0 0 0 0 0 0 0 0 0 0 0 0 0.30000001192092896 0"/><feBlend mode="normal" in2="shape" result="effect2_innerShadow"/></filter><linearGradient x1="0.5" y1="0.1032547578215599" x2="0.5" y2="0.9085297584533691" id="master_svg1_57_590"><stop offset="0%" stop-color="#EEEEEE" stop-opacity="1"/><stop offset="100%" stop-color="#888888" stop-opacity="1"/></linearGradient><filter id="master_svg2_33_00880" filterUnits="objectBoundingBox" color-interpolation-filters="sRGB" x="-6" y="0" width="1036" height="693"><feFlood flood-opacity="0" result="BackgroundImageFix"/><feColorMatrix in="SourceAlpha" type="matrix" values="0 0 0 0 0 0 0 0 0 0 0 0 0 0 0 0 0 0 127 0"/><feOffset dy="7" dx="0"/><feGaussianBlur stdDeviation="1.5"/><feColorMatrix type="matrix" values="0 0 0 0 0 0 0 0 0 0 0 0 0 0 0 0 0 0 0.30000001192092896 0"/><feBlend mode="normal" in2="BackgroundImageFix" result="effect1_dropShadow"/><feBlend mode="normal" in="SourceGraphic" in2="effect1_dropShadow" result="shape"/><feColorMatrix in="SourceAlpha" type="matrix" result="hardAlpha" values="0 0 0 0 0 0 0 0 0 0 0 0 0 0 0 0 0 0 127 0"/><feOffset dy="-5" dx="0"/><feGaussianBlur stdDeviation="0"/><feComposite in2="hardAlpha" operator="arithmetic" k2="-1" k3="1"/><feColorMatrix type="matrix" values="0 0 0 0 0 0 0 0 0 0 0 0 0 0 0 0 0 0 0.30000001192092896 0"/><feBlend mode="normal" in2="shape" result="effect2_innerShadow"/></filter><linearGradient x1="0.5" y1="0.1032547578215599" x2="0.5" y2="0.9085297584533691" id="master_svg3_57_590"><stop offset="0%" stop-color="#EEEEEE" stop-opacity="1"/><stop offset="100%" stop-color="#888888" stop-opacity="1"/></linearGradient></defs><g><g filter="url(#master_svg0_33_7081)"><path d="M479.503,478C479.501,477.8333,479.5,477.6667,479.5,477.5C479.5,456.7893,496.289,440,517,440C537.711,440,554.5,456.7893,554.5,477.5C554.5,477.6667,554.499,477.8333,554.4970000000001,478L554.5,478L554.5,600L554.51,600C554.5029999999999,600.167,554.5,600.333,554.5,600.5C554.5,607.404,560.096,613,567,613C573.904,613,579.5,607.404,579.5,600.5C579.5,600.333,579.4970000000001,600.167,579.49,600L579.5,600L579.5,508L579.5029999999999,508C579.501,507.8333,579.5,507.6667,579.5,507.5C579.5,486.7893,596.289,470,617,470C637.711,470,654.5,486.7893,654.5,507.5C654.5,507.6667,654.499,507.8333,654.497,508L654.49,508C654.497,508.1666,654.5,508.3333,654.5,508.5C654.5,515.4036,648.904,521,642,521C635.096,521,629.5,515.4036,629.5,508.5C629.5,508.3333,629.5029999999999,508.1666,629.51,508L629.49,508C629.4970000000001,507.8334,629.5,507.6667,629.5,507.5C629.5,500.5964,623.904,495,617,495C610.096,495,604.5,500.5964,604.5,507.5C604.5,507.6667,604.5029999999999,507.8334,604.51,508L604.5,508L604.5,674L604.49,674C604.4970000000001,674.167,604.5,674.333,604.5,674.5C604.5,681.404,598.904,687,592,687C585.096,687,579.5,681.404,579.5,674.5C579.5,674.333,579.5029999999999,674.167,579.51,674L579.5,674L579.5,640L579.49,640C579.222,633.296,573.7090000000001,628,567,628C560.2909999999999,628,554.778,633.296,554.51,640L554.5,640L554.5,673L554.4970000000001,673C554.223,693.514,537.5160000000001,710,517,710C496.484,710,479.777,693.514,479.503,673L479.5,673L479.5,570L479.49,570C479.222,563.296,473.709,558,467,558C460.291,558,454.778,563.296,454.51,570L454.5,570L454.5,643L454.497,643C454.223,663.514,437.516,680,417,680C396.484,680,379.777,663.514,379.503,643L379.5,643L379.5,637L379.49,637C379.222,630.296,373.709,625,367,625C360.291,625,354.778,630.296,354.51,637L354.5,637L354.5,647L354.49,647C354.222,653.704,348.709,659,342,659C335.291,659,329.778,653.704,329.51,647L329.5,647L329.5,538L329.49,538C329.497,537.8334,329.5,537.6667,329.5,537.5C329.5,530.5964,323.904,525,317,525C310.096,525,304.5,530.5964,304.5,537.5C304.5,537.6667,304.503,537.8334,304.51,538L304.5,538L304.5,634L304.40999999999997,634C303.651,640.278,298.323,645,292,645C285.677,645,280.349,640.278,279.59000000000003,634L279.5,634L279.5,552L279.49,552C279.497,551.833,279.5,551.667,279.5,551.5C279.5,544.596,273.904,539,267,539C260.096,539,254.5,544.596,254.5,551.5C254.5,551.667,254.503,551.833,254.51,552L254.5,552L254.5,618L254.49,618C254.22199999999998,624.704,248.709,630,242,630C235.291,630,229.77800000000002,624.704,229.51,618L229.5,618L229.5,597L229.49,597C229.2216,590.296,223.709,585,217,585C210.291,585,204.7784,590.296,204.51,597L204.5,597L204.5,602L204.49,602C204.2216,608.704,198.709,614,192,614C185.291,614,179.7784,608.704,179.51,602L179.5,602L179.5,549L179.51,549C179.5033,548.833,179.5,548.667,179.5,548.5C179.5,541.596,185.09640000000002,536,192,536C198.90359999999998,536,204.5,541.596,204.5,548.5C204.5,548.667,204.4967,548.833,204.49,549L204.5,549L204.5,557L204.51,557C204.5033,557.167,204.5,557.333,204.5,557.5C204.5,564.404,210.09640000000002,570,217,570C223.90359999999998,570,229.5,564.404,229.5,557.5C229.5,557.333,229.4967,557.167,229.49,557L229.5,557L229.5,552L229.503,552C229.501,551.833,229.5,551.667,229.5,551.5C229.5,530.7893,246.289,514,267,514C273.402,514,279.43,515.6043999999999,284.702,518.433C291.23,507.3993,303.251,500,317,500C337.711,500,354.5,516.7893,354.5,537.5C354.5,537.6667,354.499,537.8333,354.497,538L354.5,538L354.5,597L354.51,597C354.503,597.167,354.5,597.333,354.5,597.5C354.5,604.404,360.096,610,367,610C373.904,610,379.5,604.404,379.5,597.5C379.5,597.333,379.497,597.167,379.49,597L379.5,597L379.5,508L379.503,508C379.501,507.8333,379.5,507.6667,379.5,507.5C379.5,486.7893,396.289,470,417,470C437.711,470,454.5,486.7893,454.5,507.5C454.5,507.6667,454.499,507.8333,454.497,508L454.5,508L454.5,530L454.51,530C454.503,530.1666,454.5,530.3333,454.5,530.5C454.5,537.4036,460.096,543,467,543C473.904,543,479.5,537.4036,479.5,530.5C479.5,530.3333,479.497,530.1666,479.49,530L479.5,530L479.5,478L479.503,478ZM504.5,530L504.5,673L504.51,673C504.778,679.704,510.291,685,517,685C523.7090000000001,685,529.222,679.704,529.49,673L529.5,673L529.5,478L529.49,478C529.4970000000001,477.8334,529.5,477.6667,529.5,477.5C529.5,470.5964,523.904,465,517,465C510.096,465,504.5,470.5964,504.5,477.5C504.5,477.6667,504.503,477.8334,504.51,478L504.5,478L504.5,530ZM429.5,530L429.5,508L429.49,508C429.497,507.8334,429.5,507.6667,429.5,507.5C429.5,500.5964,423.904,495,417,495C410.096,495,404.5,500.5964,404.5,507.5C404.5,507.6667,404.503,507.8334,404.51,508L404.5,508L404.5,643L404.51,643C404.778,649.704,410.291,655,417,655C423.709,655,429.222,649.704,429.49,643L429.5,643L429.5,530ZM679.5,537.5C679.5,537.6667,679.501,537.8333,679.503,538L679.5,538L679.5,575L679.49,575C679.497,575.167,679.5,575.333,679.5,575.5C679.5,582.404,673.904,588,667,588C660.096,588,654.5,582.404,654.5,575.5C654.5,575.333,654.503,575.167,654.51,575L654.5,575L654.5,574L654.49,574C654.497,573.833,654.5,573.667,654.5,573.5C654.5,566.596,648.904,561,642,561C635.096,561,629.5,566.596,629.5,573.5C629.5,573.667,629.5029999999999,573.833,629.51,574L629.5,574L629.5,616L629.51,616C629.778,622.704,635.2909999999999,628,642,628C648.709,628,654.222,622.704,654.49,616L654.5,616L654.5,615L654.51,615C654.778,608.296,660.291,603,667,603C673.709,603,679.222,608.296,679.49,615L679.582,615C680.874,634.575,697.156,650,717,650C737.516,650,754.223,633.514,754.497,613L754.5,613L754.5,600L729.5,600L729.5,613L729.49,613C729.222,619.704,723.709,625,717,625C710.291,625,704.778,619.704,704.51,613L704.5,613L704.5,575L742.5,575L742.5,574.99C749.006,574.734,754.234,569.506,754.49,563L754.5,563L754.5,538L754.497,538C754.499,537.8333,754.5,537.6667,754.5,537.5C754.5,516.7893,737.711,500,717,500C696.289,500,679.5,516.7893,679.5,537.5ZM804.5,533.5C804.5,533.6667,804.497,533.8334,804.49,534L804.5,534L804.5,551L804.51,551C804.503,551.167,804.5,551.333,804.5,551.5C804.5,558.404,810.096,564,817,564C823.904,564,829.5,558.404,829.5,551.5C829.5,551.333,829.497,551.167,829.49,551L829.5,551L829.5,548L829.51,548C829.778,541.296,835.291,536,842,536C848.709,536,854.222,541.296,854.49,548L854.5,548L854.5,602L854.49,602C854.222,608.704,848.709,614,842,614C835.291,614,829.778,608.704,829.51,602L829.5,602L829.5,591L829.49,591C829.222,584.296,823.709,579,817,579C810.291,579,804.778,584.296,804.51,591L804.5,591L804.5,616L804.49,616C804.222,622.704,798.709,628,792,628C785.291,628,779.778,622.704,779.51,616L779.5,616L779.5,534L779.51,534C779.503,533.8334,779.5,533.6667,779.5,533.5C779.5,526.5964,785.096,521,792,521C798.904,521,804.5,526.5964,804.5,533.5ZM729.5,555L729.5,538L729.49,538C729.497,537.8334,729.5,537.6667,729.5,537.5C729.5,530.5964,723.904,525,717,525C710.096,525,704.5,530.5964,704.5,537.5C704.5,537.6667,704.503,537.8334,704.51,538L704.5,538L704.5,555L729.5,555ZM154.5,562.5C154.5,562.667,154.4967,562.833,154.49,563L154.5,563L154.5,588L154.49,588C154.2216,594.704,148.709,600,142,600C135.29096,600,129.778366,594.704,129.510004,588L129.5,588L129.5,563L129.510004,563C129.50333533,562.833,129.5,562.667,129.5,562.5C129.5,555.596,135.09644,550,142,550C148.9036,550,154.5,555.596,154.5,562.5ZM904.5,562.5C904.5,562.667,904.497,562.833,904.49,563L904.5,563L904.5,588L904.49,588C904.222,594.704,898.709,600,892,600C885.291,600,879.778,594.704,879.51,588L879.5,588L879.5,563L879.51,563C879.503,562.833,879.5,562.667,879.5,562.5C879.5,555.596,885.096,550,892,550C898.904,550,904.5,555.596,904.5,562.5Z" fill-rule="evenodd" fill="url(#master_svg1_57_590)" fill-opacity="1"/></g><g filter="url(#master_svg2_33_00880)"><path d="M517,0C270.023,0,68.716,195.715,59.8076,440.576C57.2674,440.197,54.6592,440,52,440C25.7665,440,4.5,459.188,4.5,482.857C4.5,483.048,4.5013599,483.238,4.5041748,483.429L4.5,483.429L4.5,637.714L4.5041748,637.714C4.850662,661.159,26.0135,680,52,680C77.9865,680,99.1493,661.159,99.4958,637.714L99.5,637.714L99.5,457C99.7761,226.616,286.616,40,517,40C747.384,40,934.224,226.617,934.5,457L934.5,482.857L934.5,483.429L934.5,557L934.5,637.714L934.504,637.714C934.847,661.159,955.787,680,981.5,680C1007.21,680,1028.15,661.159,1028.5,637.714L1028.5,637.714L1028.5,483.429L1028.5,483.429C1028.5,483.238,1028.5,483.048,1028.5,482.857C1028.5,459.188,1007.46,440,981.5,440C979.014,440,976.572,440.176,974.19,440.515C965.251,195.682,763.957,0,517,0Z" fill-rule="evenodd" fill="url(#master_svg3_57_590)" fill-opacity="1"/></g></g></svg>