<svg xmlns="http://www.w3.org/2000/svg" xmlns:xlink="http://www.w3.org/1999/xlink" fill="none" version="1.1" width="833" height="616.5" viewBox="0 0 833 616.5"><defs><filter id="master_svg0_51_257" filterUnits="objectBoundingBox" color-interpolation-filters="sRGB" x="-6" y="0" width="552" height="293"><feFlood flood-opacity="0" result="BackgroundImageFix"/><feColorMatrix in="SourceAlpha" type="matrix" values="0 0 0 0 0 0 0 0 0 0 0 0 0 0 0 0 0 0 127 0"/><feOffset dy="7" dx="0"/><feGaussianBlur stdDeviation="1.5"/><feColorMatrix type="matrix" values="0 0 0 0 0 0 0 0 0 0 0 0 0 0 0 0 0 0 0.30000001192092896 0"/><feBlend mode="normal" in2="BackgroundImageFix" result="effect1_dropShadow"/><feBlend mode="normal" in="SourceGraphic" in2="effect1_dropShadow" result="shape"/><feColorMatrix in="SourceAlpha" type="matrix" result="hardAlpha" values="0 0 0 0 0 0 0 0 0 0 0 0 0 0 0 0 0 0 127 0"/><feOffset dy="-5" dx="0"/><feGaussianBlur stdDeviation="0"/><feComposite in2="hardAlpha" operator="arithmetic" k2="-1" k3="1"/><feColorMatrix type="matrix" values="0 0 0 0 0 0 0 0 0 0 0 0 0 0 0 0 0 0 0.30000001192092896 0"/><feBlend mode="normal" in2="shape" result="effect2_innerShadow"/></filter><linearGradient x1="0.5" y1="0.1032547578215599" x2="0.5" y2="0.9085297584533691" id="master_svg1_57_590"><stop offset="0%" stop-color="#EEEEEE" stop-opacity="1"/><stop offset="100%" stop-color="#888888" stop-opacity="1"/></linearGradient><filter id="master_svg2_55_389" filterUnits="objectBoundingBox" color-interpolation-filters="sRGB" x="-6" y="0" width="836" height="573"><feFlood flood-opacity="0" result="BackgroundImageFix"/><feColorMatrix in="SourceAlpha" type="matrix" values="0 0 0 0 0 0 0 0 0 0 0 0 0 0 0 0 0 0 127 0"/><feOffset dy="7" dx="0"/><feGaussianBlur stdDeviation="1.5"/><feColorMatrix type="matrix" values="0 0 0 0 0 0 0 0 0 0 0 0 0 0 0 0 0 0 0.30000001192092896 0"/><feBlend mode="normal" in2="BackgroundImageFix" result="effect1_dropShadow"/><feBlend mode="normal" in="SourceGraphic" in2="effect1_dropShadow" result="shape"/><feColorMatrix in="SourceAlpha" type="matrix" result="hardAlpha" values="0 0 0 0 0 0 0 0 0 0 0 0 0 0 0 0 0 0 127 0"/><feOffset dy="-5" dx="0"/><feGaussianBlur stdDeviation="0"/><feComposite in2="hardAlpha" operator="arithmetic" k2="-1" k3="1"/><feColorMatrix type="matrix" values="0 0 0 0 0 0 0 0 0 0 0 0 0 0 0 0 0 0 0.30000001192092896 0"/><feBlend mode="normal" in2="shape" result="effect2_innerShadow"/></filter><linearGradient x1="0.5" y1="0.1032547578215599" x2="0.5" y2="0.9085297584533691" id="master_svg3_57_590"><stop offset="0%" stop-color="#EEEEEE" stop-opacity="1"/><stop offset="100%" stop-color="#888888" stop-opacity="1"/></linearGradient></defs><g><g filter="url(#master_svg0_51_257)"><path d="M153.02311,584.395Q150.18697,585.806,148.20168,585.806Q146.5,585.806,146.5,584.113Q146.5,581.855,149.33613,578.75Q166.9202,557.016,176.4212,531.048Q185.9223,505.081,189.8929,473.60900000000004Q193.8634,442.137,194.99790000000002,396.6936Q195.2815,394.15319999999997,195.2815,387.379Q195.2815,374.9597,193.2962,370.7258Q192.1618,367.3387,192.1618,366.7742Q192.1618,363.9516,196.1324,363.9516Q197.834,363.9516,198.9685,364.2339Q209.4622,365.3629,220.5231,369.879Q243.4958,368.4677,278.947,364.5161Q269.872,345.0403,256.258,330.64517Q255.691,330.64517,255.691,328.95161Q255.691,325,261.363,325Q269.872,325,280.224,327.25807Q290.576,329.51613,296.248,333.75001Q301.353,337.4194,303.905,341.9355Q306.45799999999997,346.4516,306.45799999999997,351.5323Q306.45799999999997,356.3307,303.905,361.129Q332.55,356.6129,346.447,353.5081Q350.985,352.379,351.836,352.379Q353.821,352.379,357.225,353.7903Q364.882,355.7661,371.68899999999996,370.7258Q372.53999999999996,372.7016,372.53999999999996,374.3952Q372.53999999999996,376.9355,371.122,378.4879Q369.704,380.0403,367.435,380.0403Q349.851,379.7581,325.744,381.4516Q335.66999999999996,382.8629,339.074,385.40319999999997Q341.342,386.5323,341.76800000000003,387.6613Q342.193,388.7903,341.626,391.0484Q340.49199999999996,395.2823,340.20799999999997,396.4113Q349.284,394.4355,353.821,393.0242Q356.09000000000003,392.4597,356.658,392.4597Q358.64300000000003,392.4597,360.06100000000004,393.5887Q364.03200000000004,395.84680000000003,366.159,399.7984Q368.286,403.75,368.56899999999996,404.3145Q369.41999999999996,406.0081,369.41999999999996,407.4194Q369.41999999999996,409.11289999999997,368.286,410.1008Q367.151,411.0887,365.733,411.0887Q353.821,410.8065,338.223,412.5L338.223,415.6048Q351.553,426.048,368.711,435.081Q385.87,444.113,399.483,448.629Q402.603,450.04,402.603,451.169Q402.603,452.298,399.767,454.274Q398.349,454.839,388.98900000000003,459.919Q377.078,466.129,375.092,466.69399999999996Q372.53999999999996,467.823,369.704,467.823Q367.435,467.823,365.308,466.83500000000004Q363.18100000000004,465.847,359.21000000000004,463.024Q350.702,457.097,339.924,443.548L339.924,445.806Q340.20799999999997,455.403,335.954,459.355Q340.20799999999997,462.46000000000004,343.044,466.552Q345.88,470.645,345.88,473.18600000000004Q345.88,479.677,336.23699999999997,481.089Q328.296,483.065,315.534,485.605L316.668,486.452Q318.653,488.71000000000004,319.221,490.121Q319.788,491.53200000000004,319.504,493.50800000000004Q321.49,493.226,329.147,491.53200000000004Q334.81899999999996,490.121,339.074,490.121Q342.193,490.121,344.179,491.53200000000004Q350.985,495.202,356.658,503.105Q357.50800000000004,504.23400000000004,357.50800000000004,505.645Q357.50800000000004,510.161,351.269,510.44399999999996Q336.23699999999997,511.00800000000004,320.355,513.266Q320.355,516.936,320.639,519.194Q348.433,514.96,360.628,511.855Q366.3,510.726,370.27099999999996,510.726Q373.674,510.726,375.801,511.714Q377.929,512.702,378.212,512.984Q384.168,516.653,392.676,529.637Q393.244,531.331,393.244,532.46Q393.244,535.565,390.549,537.117Q387.855,538.669,384.452,538.387Q364.599,537.823,321.49,541.774L321.49,550.524Q321.49,568.871,319.788,574.234Q316.668,586.371,309.578,593.427Q302.48699999999997,600.4839999999999,290.85900000000004,604.153Q288.023,605,285.471,605Q282.067,605,279.515,602.883Q276.962,600.7660000000001,273.275,595.685Q269.872,589.476,265.334,584.819Q260.796,580.1610000000001,254.84,574.798Q253.70600000000002,573.952,253.70600000000002,573.387Q253.70600000000002,572.258,256.54200000000003,572.258Q264.767,572.258,277.246,571.694Q282.918,571.129,284.336,566.895Q286.889,558.71,287.74,545.444Q266.468,547.984,249.31,550.524Q232.1513,553.065,229.88240000000002,553.629Q227.6134,554.194,225.9118,554.194Q221.6576,554.194,217.4034,552.5Q214,549.96,210.1712,545.302Q206.3424,540.645,204.6408,536.4110000000001Q187.624,568.306,153.02311,584.395ZM207.1933,531.048Q210.5966,530.484,214.5672,530.484Q220.23950000000002,530.484,241.6523,528.367Q263.065,526.25,287.74,523.427Q287.74,519.758,287.456,517.782Q269.58799999999997,520.887,259.66200000000003,523.145Q258.244,523.427,255.975,523.427Q249.735,523.427,244.2048,519.758Q238.6744,516.0889999999999,235.27100000000002,510.44399999999996Q233.8529,508.18600000000004,235.69639999999998,506.63300000000004Q237.5399,505.081,243.4958,505.081Q253.139,505.081,286.038,500Q285.754,498.024,285.471,495.76599999999996Q285.187,493.50800000000004,284.62,491.25Q258.244,495.202,240.9433,495.202Q239.52519999999998,495.202,238.81619999999998,494.073Q238.1071,492.94399999999996,238.1071,491.53200000000004Q238.1071,489.274,239.2416,488.99199999999996Q261.363,483.347,282.776,475.302Q304.18899999999996,467.25800000000004,316.384,459.919Q317.519,459.073,319.079,457.802Q320.639,456.53200000000004,321.773,455.96799999999996Q319.788,453.99199999999996,318.086,451.452Q316.668,449.194,316.668,446.089Q316.668,444.677,317.235,442.137Q317.803,439.597,317.803,438.468Q311.279,448.065,302.204,454.839Q293.128,461.613,284.336,464.153L283.202,464.43600000000004Q282.067,464.43600000000004,281.784,463.589Q281.5,462.74199999999996,282.067,462.177Q290.576,454.55600000000004,298.8,442.419Q307.025,430.282,311.563,417.5807L309.578,418.1452L307.592,418.42740000000003Q305.60699999999997,418.42740000000003,301.91999999999996,416.1694Q299.651,414.4758,297.666,411.51210000000003Q295.68100000000004,408.5484,294.546,405.4436Q293.97900000000004,403.75,293.97900000000004,403.4677Q293.97900000000004,401.7742,296.815,401.7742Q307.025,401.7742,318.37,400.0807L318.37,398.9516Q318.37,389.3548,315.817,384.2742Q315.25,382.5806,315.25,382.2984Q282.351,385.6855,269.58799999999997,387.6613L272.70799999999997,388.7903Q274.693,389.9194,274.977,390.9073Q275.26,391.8952,274.977,393.871Q274.126,396.4113,274.126,404.0323Q277.246,403.4677,282.351,402.0565Q285.187,401.4919,285.471,401.4919Q287.172,401.4919,289.158,403.4677Q292.277,407.4194,294.83000000000004,414.1936Q295.113,414.7581,295.113,415.88710000000003Q295.113,418.42740000000003,291.71000000000004,418.42740000000003Q279.798,418.42740000000003,273.842,418.9919L273.842,422.9436Q283.769,422.9436,288.023,424.9194Q291.426,426.331,293.27,429.012Q295.113,431.694,295.113,435.081Q295.113,439.315,291.71000000000004,443.266Q290.29200000000003,444.677,288.874,444.677Q287.456,444.677,286.038,443.266Q280.933,437.621,273.842,431.976Q273.842,438.185,274.40999999999997,448.347L274.693,461.331Q274.693,467.53999999999996,272.85,471.06899999999996Q271.006,474.597,267.887,474.597Q264.767,474.597,259.378,471.49199999999996Q253.99,468.387,252.571,465.565Q252.00400000000002,463.871,252.571,459.073Q252.288,461.048,253.99,448.629Q240.0924,462.74199999999996,222.22480000000002,471.21000000000004Q219.3887,490.96799999999996,216.2689,504.51599999999996Q213.1492,518.065,207.1933,531.048ZM223.0756,461.895Q237.2563,445.524,247.75,423.5081Q242.92860000000002,424.9194,241.51049999999998,425.484Q240.6597,425.766,238.958,425.766Q236.9727,425.766,236.1218,425.202Q232.7185,423.2258,227.3298,412.7823Q226.1954,429.435,223.6429,455.685L223.0756,461.895ZM227.6134,408.5484Q227.8971,408.5484,228.6061,408.4073Q229.3151,408.2661,229.88240000000002,408.5484Q231.3004,408.8306,234.98739999999998,408.8306Q242.3614,408.8306,253.70600000000002,407.4194Q252.85500000000002,396.4113,251.15300000000002,390.2016L244.3466,391.3307Q240.9433,392.17740000000003,237.8235,392.17740000000003Q234.1366,392.17740000000003,229.3151,390.4839Q229.0315,392.7419,228.1807,399.2339L227.6134,408.5484ZM489.389,397.2581Q486.836,398.1048,484.284,398.1048Q477.477,398.1048,471.379,392.7419Q465.282,387.379,458.475,378.629Q456.49,375.8064,456.49,373.2661Q456.49,368.75,463.296,368.1855Q484,367.3387,543.275,357.8831Q602.55,348.4274,621.836,344.1936Q624.956,343.34680000000003,627.7919999999999,343.34680000000003Q633.4639999999999,343.34680000000003,638.002,347.0161Q644.242,353.2258,650.765,367.621Q651.616,369.59680000000003,651.616,371.5726Q651.616,374.9597,649.063,376.7944Q646.511,378.629,642.54,378.9113Q631.479,378.629,601.7,380.6049Q606.8050000000001,382.8629,609.924,385.6855Q612.193,387.9436,613.1859999999999,389.9194Q614.179,391.8952,614.179,394.7178Q614.179,396.129,613.611,400.6452Q611.9100000000001,409.11289999999997,611.626,431.694L611.342,460.202L611.626,498.30600000000004L662.109,491.25Q665.796,490.68600000000004,668.774,491.673Q671.752,492.661,675.439,495.48400000000004Q677.424,497.177,680.828,503.669Q684.231,510.161,685.933,515.524Q686.5,518.347,686.5,519.194Q686.5,522.863,683.664,525.121Q680.828,527.379,675.156,527.379Q643.9580000000001,527.379,611.9100000000001,529.919L612.193,557.581Q612.477,563.79,612.477,574.234Q612.477,586.935,607.655,594.8389999999999Q602.8340000000001,602.742,596.027,602.742Q592.908,602.742,590.639,601.331Q582.981,597.379,577.7339999999999,588.206Q572.4870000000001,579.032,572.4870000000001,569.153L572.771,560.403Q573.0550000000001,557.863,573.0550000000001,553.9110000000001L573.905,533.306Q516.332,539.234,462.162,549.395Q456.49,550.242,449.116,544.315Q441.742,538.387,437.487,532.742Q434.651,527.6610000000001,434.651,525.403Q434.651,521.734,441.742,521.169L498.748,513.831L499.032,489.274Q499.032,425.484,496.195,395.2823Q496.763,395,489.389,397.2581ZM528.8109999999999,388.7903Q534.767,391.8952,534.483,395.84680000000003L533.6320000000001,412.7823Q558.023,408.5484,562.5609999999999,407.13710000000003L564.8299999999999,406.8549Q566.5319999999999,406.8549,567.808,407.5605Q569.0840000000001,408.2661,570.502,409.67740000000003Q572.771,411.0887,574.756,414.1936L574.756,411.9355Q574.473,401.2097,573.196,395.7056Q571.9200000000001,390.2016,569.3679999999999,383.7097Q546.962,385.9678,528.8109999999999,388.7903ZM532.781,459.073Q546.395,456.815,564.8299999999999,453.145Q565.681,452.863,567.0989999999999,452.863Q569.3679999999999,452.863,572.4870000000001,455.121L575.3240000000001,457.661Q575.3240000000001,440.726,575.04,432.54L574.473,432.54Q571.069,432.823,549.798,436.492L532.781,439.315L532.781,459.073ZM533.9159999999999,509.03200000000004L574.756,503.387L575.04,478.26599999999996Q570.502,478.548,560.008,480.524Q549.515,482.5,545.544,483.065L534.767,485.03999999999996L533.065,485.03999999999996L533.9159999999999,509.03200000000004Z" fill="url(#master_svg1_57_590)" fill-opacity="1"/></g><g filter="url(#master_svg2_55_389)"><path d="M734.5,518L734.5,347.5C734.5,172.15,592.35,30,417,30C241.65,30,99.5,172.15,99.5,347.5C99.5,347.667,99.5001,347.833,99.5004,348L99.5003,387.5L99.5,388L99.5,523L99.4958,523C99.1493,543.514,77.9865,560,52,560C26.0135,560,4.850662,543.514,4.5041748,523L4.5,523L4.5,388L4.5041748,388C4.5013599,387.833,4.5,387.667,4.5,387.5C4.5,366.789,25.7665,350,52,350C58.18,350,64.0844,350.932,69.5,352.627L69.5,347.5C69.5,155.581,225.081,0,417,0C608.919,0,764.5,155.581,764.5,347.5L764.5,352.528C769.772,350.896,775.505,350,781.5,350C807.457,350,828.5,366.789,828.5,387.5C828.5,387.667,828.499,387.833,828.496,388L828.5,388L828.5,523L828.496,523C828.153,543.514,807.213,560,781.5,560C755.787,560,734.847,543.514,734.504,523L734.5,523L734.5,518Z" fill-rule="evenodd" fill="url(#master_svg3_57_590)" fill-opacity="1"/></g></g></svg>