<svg xmlns="http://www.w3.org/2000/svg" xmlns:xlink="http://www.w3.org/1999/xlink" fill="none" version="1.1" width="599.9619140625" height="450" viewBox="0 0 599.9619140625 450"><defs><clipPath id="master_svg0_76_098"><rect x="0" y="0" width="599.9619140625" height="450" rx="0"/></clipPath><filter id="master_svg1_76_284" filterUnits="objectBoundingBox" color-interpolation-filters="sRGB" x="-6" y="0" width="127" height="135.9768829345703"><feFlood flood-opacity="0" result="BackgroundImageFix"/><feColorMatrix in="SourceAlpha" type="matrix" values="0 0 0 0 0 0 0 0 0 0 0 0 0 0 0 0 0 0 127 0"/><feOffset dy="7" dx="0"/><feGaussianBlur stdDeviation="1.5"/><feColorMatrix type="matrix" values="0 0 0 0 0 0 0 0 0 0 0 0 0 0 0 0 0 0 0.30000001192092896 0"/><feBlend mode="normal" in2="BackgroundImageFix" result="effect1_dropShadow"/><feBlend mode="normal" in="SourceGraphic" in2="effect1_dropShadow" result="shape"/><feColorMatrix in="SourceAlpha" type="matrix" result="hardAlpha" values="0 0 0 0 0 0 0 0 0 0 0 0 0 0 0 0 0 0 127 0"/><feOffset dy="-3" dx="0"/><feGaussianBlur stdDeviation="0"/><feComposite in2="hardAlpha" operator="arithmetic" k2="-1" k3="1"/><feColorMatrix type="matrix" values="0 0 0 0 0 0 0 0 0 0 0 0 0 0 0 0 0 0 0.30000001192092896 0"/><feBlend mode="normal" in2="shape" result="effect2_innerShadow"/></filter><linearGradient x1="0.5" y1="0.1032547578215599" x2="0.5" y2="0.9085297584533691" id="master_svg2_57_590"><stop offset="0%" stop-color="#EEEEEE" stop-opacity="1"/><stop offset="100%" stop-color="#888888" stop-opacity="1"/></linearGradient><filter id="master_svg3_76_285" filterUnits="objectBoundingBox" color-interpolation-filters="sRGB" x="-6" y="0" width="152" height="82.0047378540039"><feFlood flood-opacity="0" result="BackgroundImageFix"/><feColorMatrix in="SourceAlpha" type="matrix" values="0 0 0 0 0 0 0 0 0 0 0 0 0 0 0 0 0 0 127 0"/><feOffset dy="7" dx="0"/><feGaussianBlur stdDeviation="1.5"/><feColorMatrix type="matrix" values="0 0 0 0 0 0 0 0 0 0 0 0 0 0 0 0 0 0 0.30000001192092896 0"/><feBlend mode="normal" in2="BackgroundImageFix" result="effect1_dropShadow"/><feBlend mode="normal" in="SourceGraphic" in2="effect1_dropShadow" result="shape"/><feColorMatrix in="SourceAlpha" type="matrix" result="hardAlpha" values="0 0 0 0 0 0 0 0 0 0 0 0 0 0 0 0 0 0 127 0"/><feOffset dy="-3" dx="0"/><feGaussianBlur stdDeviation="0"/><feComposite in2="hardAlpha" operator="arithmetic" k2="-1" k3="1"/><feColorMatrix type="matrix" values="0 0 0 0 0 0 0 0 0 0 0 0 0 0 0 0 0 0 0.30000001192092896 0"/><feBlend mode="normal" in2="shape" result="effect2_innerShadow"/></filter><linearGradient x1="0.5" y1="0.1032547578215599" x2="0.5" y2="0.9085297584533691" id="master_svg4_57_590"><stop offset="0%" stop-color="#EEEEEE" stop-opacity="1"/><stop offset="100%" stop-color="#888888" stop-opacity="1"/></linearGradient><filter id="master_svg5_76_740" filterUnits="objectBoundingBox" color-interpolation-filters="sRGB" x="-6" y="0" width="272" height="103.1227035522461"><feFlood flood-opacity="0" result="BackgroundImageFix"/><feColorMatrix in="SourceAlpha" type="matrix" values="0 0 0 0 0 0 0 0 0 0 0 0 0 0 0 0 0 0 127 0"/><feOffset dy="7" dx="0"/><feGaussianBlur stdDeviation="1.5"/><feColorMatrix type="matrix" values="0 0 0 0 0 0 0 0 0 0 0 0 0 0 0 0 0 0 0.30000001192092896 0"/><feBlend mode="normal" in2="BackgroundImageFix" result="effect1_dropShadow"/><feBlend mode="normal" in="SourceGraphic" in2="effect1_dropShadow" result="shape"/><feColorMatrix in="SourceAlpha" type="matrix" result="hardAlpha" values="0 0 0 0 0 0 0 0 0 0 0 0 0 0 0 0 0 0 127 0"/><feOffset dy="-3" dx="0"/><feGaussianBlur stdDeviation="0"/><feComposite in2="hardAlpha" operator="arithmetic" k2="-1" k3="1"/><feColorMatrix type="matrix" values="0 0 0 0 0 0 0 0 0 0 0 0 0 0 0 0 0 0 0.30000001192092896 0"/><feBlend mode="normal" in2="shape" result="effect2_innerShadow"/></filter><linearGradient x1="0.5" y1="0.1032547578215599" x2="0.5" y2="0.9085297584533691" id="master_svg6_57_590"><stop offset="0%" stop-color="#EEEEEE" stop-opacity="1"/><stop offset="100%" stop-color="#888888" stop-opacity="1"/></linearGradient></defs><g clip-path="url(#master_svg0_76_098)"><g><g><g><path d="M466.0637288574219,168.027C470.73072885742187,170.896,475.8631288574219,172.932,481.23072885742187,174.044L523.9331288574219,182.81C534.7683288574219,185.045,540.0783288574219,197.345,534.2609288574218,206.733L437.39492885742186,362.9C431.7412988574219,371.834,434.4540100574219,383.652,443.44198885742185,389.242C452.16052885742187,394.631,463.6122288574219,391.878,468.9131288574219,383.12Q527.7899288574218,288.36,554.6843288574219,245.456C571.6533288574219,218.392,585.0983288574218,189.283,594.6943288574219,158.831C602.2143288574218,135.088,601.6723288574219,109.5351,593.1533288574219,86.13130000000001C585.4753288574219,63.6711,570.2863288574218,44.528400000000005,550.1343288574219,31.91554C532.9364288574219,21.315640000000002,510.8391288574219,23.03273,495.4940288574219,36.1614C487.5141288574219,42.9784,480.6624288574219,51.0085,475.1912288574219,59.9554L462.83922885742186,79.8819C455.8105288574219,91.6937,449.93052885742185,104.149,445.2793288574219,117.0775C440.3682888574219,136.762,448.7693288574219,157.355,466.0637288574219,168.027Z" fill="#E8F4FA" fill-opacity="1"/></g><g><path d="M575.3477673339844,194.711C582.8727673339844,170.942,582.3307673339843,145.35399999999998,573.8087673339844,121.9249C566.1207673339844,99.3394,550.8057673339844,80.1351,530.4935673339844,67.6113C513.3267673339844,56.9428,491.2166673339844,58.6647,475.9097673339844,71.8623C467.9329673339844,78.6824,461.0875673339844,86.72290000000001,455.6280773339844,95.6847L449.4927673339844,105.7492C453.31432733398435,96.8133,457.71746733398436,88.1374,462.67396733398436,79.7772L474.9967673339844,59.9972C480.46206733398435,51.0396,487.30686733398437,42.9999,495.27836733398436,36.1748C510.60746733398435,23.03038,532.6818673339844,21.31124,549.8617673339844,31.9238C570.1507673339844,44.5469,585.4487673339844,63.7961,593.1607673339844,86.4077C601.6707673339844,109.8396,602.2117673339844,135.423,594.6997673339844,159.194C585.4847673339843,188.229,572.7677673339844,216.036,556.8317673339843,242C564.1797673339844,226.723,570.3697673339843,210.916,575.3477673339844,194.711Z" fill="#FFFFFF" fill-opacity="1"/></g><g><path d="M528.548978515625,43.9461C519.682478515625,52.3778,511.883578515625,61.8612,505.326578515625,72.18469999999999L484.396478515625,106.0552C478.023378515625,116.3262,473.041978515625,127.395,469.582378515625,138.97199999999998C466.407878515625,149.043,466.197778515625,159.813,468.977278515625,170L465.878478515625,168.24C448.489258515625,157.564,440.050478515625,136.862,445.032588515625,117.1026C449.682158515625,104.1715,455.560178515625,91.7139,462.58637851562503,79.8997L475.019478515625,59.9775C480.488678515625,51.028800000000004,487.338078515625,42.9972,495.315278515625,36.1789C510.331978515625,23.31105,531.872278515625,21.36125,548.963478515625,31.32271C541.4195785156251,34.20296,534.491978515625,38.486599999999996,528.548978515625,43.9461Z" fill="#C0DCEB" fill-opacity="1"/></g><g><path d="M528.5489722167969,43.7855C522.9108722167969,49.0249,517.7443722167968,54.739999999999995,513.1080722167969,60.8661C499.85587221679685,58.9223,486.40587221679687,62.7931,476.27407221679687,71.4666C468.2918722167969,78.2221,461.4415722167969,86.1865,455.97830221679686,95.0635L449.4977722167969,105C453.3219322167969,96.1487,457.72821221679686,87.5549,462.6881722167969,79.2739L475.0194722167969,59.681C480.4886722167969,50.8082,487.3380722167969,42.8447,495.31527221679687,36.0841C510.3319722167969,23.32536,531.8722722167969,21.3921,548.9637722167969,31.26912C541.4195722167968,34.12495,534.4919722167969,38.372299999999996,528.5489722167969,43.7855Z" fill="#DAEDF7" fill-opacity="1"/></g><g><path d="M443.3976089355469,131.627Q442.82955893554686,124.068,444.6634089355469,116.6857C444.66670893554686,116.6723,444.6707089355469,116.659,444.67530893554687,116.6461Q451.6738089355469,97.1075,462.2504089355469,79.2543L474.5857089355469,59.2663Q482.8675089355469,45.6627,494.9462089355469,35.2983Q500.6761089355469,30.37417,507.6347089355469,27.51264Q514.4334089355468,24.716901,521.7737089355469,24.143969Q529.1140089355468,23.571031,536.2634089355469,25.27816Q543.5804089355469,27.02547,550.0044089355468,31.002580000000002Q565.1584089355468,40.5299,576.2624089355469,54.5856Q587.3654089355468,68.64099999999999,593.1364089355469,85.59960000000001Q599.5414089355469,103.2723,599.9374089355468,122.0698Q600.3344089355469,140.86700000000002,594.6814089355469,158.795Q580.2304089355468,204.854,554.6784089355468,245.79L469.01770893554686,383.889Q467.0244089355469,387.197,463.9223089355469,389.437Q460.9279089355469,391.599,457.32270893554687,392.47Q453.71810893554687,393.34,450.0688089355469,392.782Q446.2891089355469,392.204,443.0095489355469,390.168Q439.63235893554685,388.058,437.36584893554686,384.82Q435.1775789355469,381.694,434.3230589355469,377.955Q433.4686589355469,374.217,434.08117693554686,370.448Q434.7155759355469,366.545,436.83806893554686,363.176L533.5825089355469,206.511Q535.6514089355469,203.157,535.8834089355469,199.295Q536.1034089355469,195.618,534.6344089355468,192.199Q533.1650089355469,188.78,530.3476089355469,186.414Q527.3881089355468,183.929,523.5343089355468,183.131L480.8847089355469,174.336Q472.71110893554686,172.635,465.6041089355469,168.247Q459.1464089355469,164.244,454.2853089355469,158.436Q449.5355089355469,152.76,446.7440089355469,145.887Q443.9526089355469,139.014,443.3976089355469,131.627ZM445.4555089355469,116.9045Q452.4252089355469,97.4508,462.94910893554686,79.6871L475.28700893554685,59.6948Q483.5006089355469,46.2027,495.48100893554687,35.9229Q501.11040893554684,31.08522,507.94660893554686,28.27402Q514.6259089355469,25.52738,521.8375089355469,24.964495Q529.0492089355469,24.401604,536.0724089355468,26.07875Q543.2604089355468,27.7953,549.5674089355468,31.69971Q564.6024089355469,41.1519,575.6174089355469,55.0964Q586.6334089355469,69.0409,592.3644089355469,85.88040000000001Q598.7224089355468,103.4254,599.1164089355468,122.0872Q599.5104089355468,140.748,593.8984089355469,158.548Q579.4784089355469,204.508,553.9804089355468,245.356L468.31440893554685,383.464Q466.4080089355469,386.628,463.44210893554686,388.769Q460.57840893554686,390.837,457.13030893554685,391.67Q453.6825089355469,392.502,450.19280893554685,391.968Q446.57910893554686,391.416,443.44417893554686,389.47Q440.20885893554686,387.448,438.0383889355469,384.348Q435.94237893554686,381.354,435.12377893554685,377.772Q434.3052979355469,374.19,434.89196893554686,370.58Q435.4994189355469,366.843,437.5366789355469,363.609L534.2814089355469,206.943Q536.4594089355469,203.413,536.7034089355469,199.344Q536.9354089355469,195.472,535.3884089355469,191.874Q533.8424089355469,188.275,530.8752089355469,185.784Q527.7571089355469,183.165,523.6999089355469,182.325L481.05170893554686,173.531Q473.0194089355469,171.859,466.03630893554686,167.547Q459.69100893554685,163.614,454.9148089355469,157.907Q450.24780893554686,152.33,447.5049089355469,145.576Q444.76210893554685,138.82299999999998,444.21680893554685,131.566Q443.6592689355469,124.149,445.4555089355469,116.9045Z" fill-rule="evenodd" fill="#45413C" fill-opacity="1"/></g><g><path d="M437.2408406152344,362.819C431.5889306152344,371.7785,434.3008118152344,383.6284,443.2860706152344,389.2345C452.0020306152344,394.6379,463.4502306152344,391.87760000000003,468.74943061523436,383.095L504.9639306152344,324.6184L473.1333306152344,305L437.2408406152344,362.819Z" fill="#C0DCEB" fill-opacity="1"/></g><g><path d="M436.49215307617186,363.1781L436.49057307617187,363.1806Q434.37057507617186,366.551,433.7373050761719,370.452Q433.12564107617186,374.2198,433.9787900761719,377.9581Q434.83221307617185,381.6963,437.0171530761719,384.8218Q439.28024307617187,388.0586,442.6526230761719,390.1684Q445.9271030761719,392.2037,449.7015030761719,392.7819Q453.3451030761719,393.34000000000003,456.94480307617187,392.4698Q460.5444030761719,391.5996,463.5348030761719,389.4377Q466.6322030761719,387.1984,468.62260307617186,383.891L504.96380307617187,325.0543L472.5120030761719,305L436.49215307617186,363.1781ZM434.5468730761719,370.5843Q435.1538130761719,366.8471,437.1857630761719,363.6173L437.1873430761719,363.6148L472.7776030761719,306.1306L503.8333030761719,325.3222L467.92040307617185,383.46569999999997Q466.01660307617186,386.62919999999997,463.05530307617187,388.7702Q460.1958030761719,390.8375,456.7527030761719,391.6699Q453.30940307617186,392.5023,449.82530307617185,391.9685Q446.2165030761719,391.4157,443.0866130761719,389.4702Q439.8557730761719,387.4491,437.68872307617187,384.34929999999997Q435.5959730761719,381.3556,434.77838307617185,377.7745Q433.96090707617185,374.1931,434.5468730761719,370.5843Z" fill-rule="evenodd" fill="#45413C" fill-opacity="1"/></g><g><path d="M548.9079746093751,30.95062C548.860974609375,31.03143,548.786974609375,31.0937,548.699974609375,31.12713Q537.371074609375,35.464,528.446674609375,43.6844Q515.158374609375,56.3554,505.327374609375,71.875L484.431074609375,105.7823Q474.871974609375,121.2293,469.682874609375,138.64100000000002Q467.32137460937497,146.15300000000002,467.168374609375,154.021Q467.015374609375,161.888,469.081374609375,169.481C469.109974609375,169.586,469.095674609375,169.699,469.041674609375,169.793C468.987574609375,169.888,468.898174609375,169.957,468.793174609375,169.986C468.688474609375,170.014,468.576674609375,170,468.48237460937503,169.946L465.388074609375,168.184L465.376074609375,168.177Q458.885274609375,164.181,453.999774609375,158.364Q449.227024609375,152.681,446.426574609375,145.793Q443.625823609375,138.904,443.078643609375,131.501Q442.518524609375,123.9232,444.378054609375,116.5273C444.381314609375,116.5143,444.385224609375,116.5014,444.389774609375,116.4888Q451.382354609375,96.9883,461.950974609375,79.16980000000001L474.370174609375,59.2159Q482.645174609375,45.6398,494.717174609375,35.2935Q500.325174609375,30.47512,507.121874609375,27.62915Q513.767674609375,24.846346,520.954774609375,24.194022Q528.141874609375,23.5417,535.179674609375,25.08255Q542.376974609375,26.65835,548.759974609375,30.38876C548.853974609375,30.44369,548.922974609375,30.53376,548.949974609375,30.63913C548.977974609375,30.744500000000002,548.962974609375,30.85655,548.9079746093751,30.95062ZM547.603974609375,30.673189999999998Q536.613374609375,35.0453,527.8907746093751,43.079899999999995Q514.519074609375,55.8303,504.634074609375,71.4351L483.73237460937503,105.3511Q474.116474609375,120.8896,468.896174609375,138.406Q466.502874609375,146.019,466.347574609375,154.005Q466.201774609375,161.5,468.040074609375,168.749L465.800274609375,167.474Q459.426074609375,163.548,454.628174609375,157.836Q449.938694609375,152.252,447.187014609375,145.483Q444.435124609375,138.714,443.897369609375,131.44Q443.347625609375,124.005,445.169314609375,116.7473Q452.133944609375,97.3314,462.656874609375,79.5892L475.066974609375,59.6503Q483.278174609375,46.1792,495.251274609375,35.917500000000004Q500.761674609375,31.18288,507.43867460937497,28.38703Q513.967874609375,25.6531,521.028974609375,25.01221Q528.090074609375,24.371327,535.004174609375,25.88512Q541.657874609375,27.34188,547.603974609375,30.673189999999998Z" fill-rule="evenodd" fill="#45413C" fill-opacity="1"/></g></g><g transform="matrix(-1,0,0,1,332.96380615234375,0)"><g><path d="M199.06372885742186,168.027C203.73072885742187,170.896,208.86312885742188,172.932,214.23072885742187,174.044L256.9331288574219,182.81C267.76832885742186,185.045,273.07832885742187,197.345,267.26092885742185,206.733L170.3949288574219,362.9C164.74129885742187,371.834,167.45401005742187,383.652,176.44198885742188,389.242C185.16052885742187,394.631,196.61222885742188,391.878,201.91312885742187,383.12Q260.78992885742184,288.36,287.68432885742186,245.456C304.6533288574219,218.392,318.09832885742185,189.283,327.69432885742185,158.831C335.21432885742183,135.088,334.6723288574219,109.5351,326.1533288574219,86.13130000000001C318.4753288574219,63.6711,303.28632885742184,44.528400000000005,283.1343288574219,31.91554C265.9364288574219,21.315640000000002,243.83912885742188,23.03273,228.49402885742188,36.1614C220.51412885742187,42.9784,213.66242885742187,51.0085,208.1912288574219,59.9554L195.8392288574219,79.8819C188.81052885742187,91.6937,182.93052885742188,104.149,178.2793288574219,117.0775C173.36828885742187,136.762,181.76932885742187,157.355,199.06372885742186,168.027Z" fill="#E8F4FA" fill-opacity="1"/></g><g><path d="M308.3477673339844,194.711C315.87276733398437,170.942,315.33076733398434,145.35399999999998,306.8087673339844,121.9249C299.12076733398436,99.3394,283.80576733398436,80.1351,263.4935673339844,67.6113C246.32676733398438,56.9428,224.2166673339844,58.6647,208.90976733398438,71.8623C200.93296733398438,78.6824,194.08756733398437,86.72290000000001,188.62807733398438,95.6847L182.49276733398438,105.7492C186.31432733398438,96.8133,190.7174673339844,88.1374,195.67396733398436,79.7772L207.99676733398437,59.9972C213.46206733398438,51.0396,220.30686733398437,42.9999,228.27836733398436,36.1748C243.60746733398437,23.03038,265.68186733398437,21.31124,282.8617673339844,31.9238C303.1507673339844,44.5469,318.4487673339844,63.7961,326.1607673339844,86.4077C334.6707673339844,109.8396,335.21176733398437,135.423,327.69976733398437,159.194C318.48476733398434,188.229,305.76776733398435,216.036,289.8317673339844,242C297.1797673339844,226.723,303.3697673339844,210.916,308.3477673339844,194.711Z" fill="#FFFFFF" fill-opacity="1"/></g><g><path d="M261.548978515625,43.9461C252.682478515625,52.3778,244.883578515625,61.8612,238.326578515625,72.18469999999999L217.396478515625,106.0552C211.02337851562498,116.3262,206.041978515625,127.395,202.582378515625,138.97199999999998C199.407878515625,149.043,199.197778515625,159.813,201.977278515625,170L198.878478515625,168.24C181.489258515625,157.564,173.050478515625,136.862,178.032588515625,117.1026C182.682158515625,104.1715,188.560178515625,91.7139,195.586378515625,79.8997L208.019478515625,59.9775C213.488678515625,51.028800000000004,220.338078515625,42.9972,228.315278515625,36.1789C243.331978515625,23.31105,264.872278515625,21.36125,281.963478515625,31.32271C274.419578515625,34.20296,267.49197851562496,38.486599999999996,261.548978515625,43.9461Z" fill="#C0DCEB" fill-opacity="1"/></g><g><path d="M261.54897221679687,43.7855C255.91087221679686,49.0249,250.74437221679688,54.739999999999995,246.10807221679687,60.8661C232.85587221679688,58.9223,219.40587221679687,62.7931,209.27407221679687,71.4666C201.2918722167969,78.2221,194.44157221679689,86.1865,188.97830221679686,95.0635L182.49777221679688,105C186.32193221679688,96.1487,190.72821221679686,87.5549,195.6881722167969,79.2739L208.01947221679688,59.681C213.48867221679689,50.8082,220.3380722167969,42.8447,228.31527221679687,36.0841C243.33197221679688,23.32536,264.8722722167969,21.3921,281.9637722167969,31.26912C274.4195722167969,34.12495,267.49197221679685,38.372299999999996,261.54897221679687,43.7855Z" fill="#DAEDF7" fill-opacity="1"/></g><g><path d="M176.39760893554688,131.627Q175.82955893554688,124.068,177.66340893554687,116.6857C177.66670893554686,116.6723,177.67070893554688,116.659,177.67530893554687,116.6461Q184.67380893554687,97.1075,195.2504089355469,79.2543L207.58570893554688,59.2663Q215.86750893554688,45.6627,227.94620893554688,35.2983Q233.6761089355469,30.37417,240.63470893554688,27.51264Q247.43340893554688,24.716901,254.7737089355469,24.143969Q262.11400893554685,23.571031,269.26340893554686,25.27816Q276.58040893554687,27.02547,283.00440893554685,31.002580000000002Q298.15840893554684,40.5299,309.2624089355469,54.5856Q320.36540893554684,68.64099999999999,326.1364089355469,85.59960000000001Q332.5414089355469,103.2723,332.93740893554684,122.0698Q333.3344089355469,140.86700000000002,327.68140893554687,158.795Q313.23040893554685,204.854,287.6784089355469,245.79L202.01770893554686,383.889Q200.0244089355469,387.197,196.92230893554688,389.437Q193.92790893554687,391.599,190.32270893554687,392.47Q186.71810893554687,393.34,183.06880893554688,392.782Q179.28910893554686,392.204,176.0095489355469,390.168Q172.63235893554688,388.058,170.36584893554686,384.82Q168.17757893554688,381.694,167.32305893554687,377.955Q166.46865893554687,374.217,167.08117693554686,370.448Q167.71557593554687,366.545,169.8380689355469,363.176L266.58250893554685,206.511Q268.6514089355469,203.157,268.88340893554687,199.295Q269.1034089355469,195.618,267.63440893554684,192.199Q266.1650089355469,188.78,263.3476089355469,186.414Q260.3881089355469,183.929,256.53430893554685,183.131L213.88470893554688,174.336Q205.71110893554686,172.635,198.6041089355469,168.247Q192.14640893554687,164.244,187.28530893554688,158.436Q182.5355089355469,152.76,179.74400893554687,145.887Q176.95260893554686,139.014,176.39760893554688,131.627ZM178.45550893554687,116.9045Q185.42520893554686,97.4508,195.94910893554686,79.6871L208.28700893554688,59.6948Q216.50060893554686,46.2027,228.48100893554687,35.9229Q234.11040893554687,31.08522,240.94660893554686,28.27402Q247.62590893554687,25.52738,254.83750893554688,24.964495Q262.04920893554686,24.401604,269.0724089355469,26.07875Q276.2604089355469,27.7953,282.5674089355469,31.69971Q297.60240893554686,41.1519,308.6174089355469,55.0964Q319.63340893554687,69.0409,325.36440893554686,85.88040000000001Q331.72240893554687,103.4254,332.1164089355469,122.0872Q332.5104089355469,140.748,326.89840893554685,158.548Q312.4784089355469,204.508,286.98040893554685,245.356L201.31440893554688,383.464Q199.4080089355469,386.628,196.44210893554688,388.769Q193.57840893554686,390.837,190.13030893554688,391.67Q186.68250893554688,392.502,183.19280893554688,391.968Q179.57910893554688,391.416,176.4441789355469,389.47Q173.20885893554689,387.448,171.03838893554686,384.348Q168.94237893554688,381.354,168.12377893554688,377.772Q167.3052979355469,374.19,167.89196893554688,370.58Q168.49941893554688,366.843,170.5366789355469,363.609L267.2814089355469,206.943Q269.4594089355469,203.413,269.70340893554686,199.344Q269.9354089355469,195.472,268.38840893554686,191.874Q266.84240893554687,188.275,263.8752089355469,185.784Q260.75710893554685,183.165,256.6999089355469,182.325L214.05170893554688,173.531Q206.0194089355469,171.859,199.03630893554688,167.547Q192.69100893554688,163.614,187.9148089355469,157.907Q183.24780893554689,152.33,180.50490893554687,145.576Q177.76210893554688,138.82299999999998,177.21680893554688,131.566Q176.65926893554686,124.149,178.45550893554687,116.9045Z" fill-rule="evenodd" fill="#45413C" fill-opacity="1"/></g><g><path d="M170.24084061523436,362.819C164.58893061523437,371.7785,167.30081181523437,383.6284,176.28607061523437,389.2345C185.0020306152344,394.6379,196.45023061523437,391.87760000000003,201.74943061523436,383.095L237.96393061523437,324.6184L206.13333061523437,305L170.24084061523436,362.819Z" fill="#C0DCEB" fill-opacity="1"/></g><g><path d="M169.4921530761719,363.1781L169.49057307617187,363.1806Q167.3705750761719,366.551,166.73730507617188,370.452Q166.1256410761719,374.2198,166.97879007617186,377.9581Q167.83221307617188,381.6963,170.01715307617187,384.8218Q172.28024307617187,388.0586,175.65262307617186,390.1684Q178.92710307617187,392.2037,182.7015030761719,392.7819Q186.34510307617188,393.34000000000003,189.94480307617187,392.4698Q193.54440307617188,391.5996,196.53480307617187,389.4377Q199.6322030761719,387.1984,201.62260307617188,383.891L237.96380307617187,325.0543L205.51200307617188,305L169.4921530761719,363.1781ZM167.54687307617186,370.5843Q168.15381307617187,366.8471,170.18576307617187,363.6173L170.18734307617189,363.6148L205.77760307617189,306.1306L236.8333030761719,325.3222L200.92040307617188,383.46569999999997Q199.01660307617186,386.62919999999997,196.05530307617187,388.7702Q193.19580307617187,390.8375,189.75270307617188,391.6699Q186.30940307617186,392.5023,182.82530307617188,391.9685Q179.21650307617188,391.4157,176.0866130761719,389.4702Q172.8557730761719,387.4491,170.68872307617187,384.34929999999997Q168.59597307617187,381.3556,167.77838307617188,377.7745Q166.96090707617188,374.1931,167.54687307617186,370.5843Z" fill-rule="evenodd" fill="#45413C" fill-opacity="1"/></g><g><path d="M281.907974609375,30.95062C281.86097460937503,31.03143,281.78697460937497,31.0937,281.699974609375,31.12713Q270.371074609375,35.464,261.446674609375,43.6844Q248.15837460937502,56.3554,238.327374609375,71.875L217.431074609375,105.7823Q207.871974609375,121.2293,202.682874609375,138.64100000000002Q200.321374609375,146.15300000000002,200.168374609375,154.021Q200.015374609375,161.888,202.081374609375,169.481C202.109974609375,169.586,202.095674609375,169.699,202.041674609375,169.793C201.987574609375,169.888,201.898174609375,169.957,201.793174609375,169.986C201.688474609375,170.014,201.576674609375,170,201.482374609375,169.946L198.388074609375,168.184L198.376074609375,168.177Q191.885274609375,164.181,186.999774609375,158.364Q182.227024609375,152.681,179.426574609375,145.793Q176.625823609375,138.904,176.078643609375,131.501Q175.518524609375,123.9232,177.378054609375,116.5273C177.381314609375,116.5143,177.385224609375,116.5014,177.389774609375,116.4888Q184.382354609375,96.9883,194.950974609375,79.16980000000001L207.370174609375,59.2159Q215.645174609375,45.6398,227.717174609375,35.2935Q233.32517460937498,30.47512,240.121874609375,27.62915Q246.767674609375,24.846346,253.954774609375,24.194022Q261.141874609375,23.5417,268.179674609375,25.08255Q275.376974609375,26.65835,281.75997460937504,30.38876C281.853974609375,30.44369,281.922974609375,30.53376,281.949974609375,30.63913C281.977974609375,30.744500000000002,281.962974609375,30.85655,281.907974609375,30.95062ZM280.603974609375,30.673189999999998Q269.613374609375,35.0453,260.890774609375,43.079899999999995Q247.519074609375,55.8303,237.634074609375,71.4351L216.732374609375,105.3511Q207.116474609375,120.8896,201.896174609375,138.406Q199.502874609375,146.019,199.347574609375,154.005Q199.201774609375,161.5,201.040074609375,168.749L198.800274609375,167.474Q192.426074609375,163.548,187.628174609375,157.836Q182.938694609375,152.252,180.187014609375,145.483Q177.435124609375,138.714,176.897369609375,131.44Q176.347625609375,124.005,178.169314609375,116.7473Q185.133944609375,97.3314,195.656874609375,79.5892L208.066974609375,59.6503Q216.27817460937501,46.1792,228.251274609375,35.917500000000004Q233.761674609375,31.18288,240.438674609375,28.38703Q246.967874609375,25.6531,254.02897460937498,25.01221Q261.090074609375,24.371327,268.004174609375,25.88512Q274.65787460937497,27.34188,280.603974609375,30.673189999999998Z" fill-rule="evenodd" fill="#45413C" fill-opacity="1"/></g></g></g><g filter="url(#master_svg1_76_284)"><path d="M300.3807,357.6985L357,357.6985L357,373.2347L300.3807,373.2347L300.3807,357.6985ZM327.9453,369.4636L343.933,369.4636L343.933,438.734L327.9453,438.734L327.9453,369.4636ZM341.2812,317L353.86199999999997,329.65070000000003Q345.996,332.751,336.72180000000003,335.3768Q327.4493,338.00260000000003,317.867,340.0456Q308.2846,342.0886,299.1417,343.557Q298.7104,340.7573,297.194,336.9331Q295.6796,333.1068,294.2806,330.5116Q302.7879,328.9124,311.4308,326.78146Q320.0758,324.65053,327.8198,322.1433Q335.56579999999997,319.63402,341.2812,317ZM294.2806,330.5116L310.4975,330.5116L310.4975,366.439Q310.4975,374.4679,309.86379999999997,384.1491Q309.2301,393.8283,307.3797,403.8879Q305.5312,413.9455,302.1117,423.255Q298.6922,432.562,293.0193,439.977Q291.6487,438.462,289.1949,436.406Q286.7431,434.353,284.1375,432.46500000000003Q281.5339,430.578,279.7017,429.731Q284.73879999999997,422.98699999999997,287.6744,415.01300000000003Q290.6101,407.0373,292.02729999999997,398.4952Q293.4465,389.9509,293.8636,381.7217Q294.2806,373.4924,294.2806,366.3081L294.2806,330.5116ZM248.79448,327.6854L282.80129999999997,327.6854L282.80129999999997,406.3011L248.79448,406.3011L248.79448,391.0716L267.4935,391.0716L267.4935,342.8126L248.79448,342.8126L248.79448,327.6854ZM242,327.6854L256.9049,327.6854L256.9049,416.8617L242,416.8617L242,327.6854Z" fill="url(#master_svg2_57_590)" fill-opacity="1"/></g><g filter="url(#master_svg3_76_285)"><path d="M252.2391,286.9997Q244.777,286.9997,241.0054,283.2985Q237.23495,279.5961,237.23495,272.1468L237.23495,256.6187L230,256.6187L230,248.206L237.23495,248.206L237.23495,238.858L248.60750000000002,236.08267L248.60750000000002,248.206L258.3737,248.206L258.3737,256.6187L248.60750000000002,256.6187L248.60750000000002,271.5936Q248.60750000000002,275.1881,250.102,276.5289Q251.5966,277.8685,253.9725,277.8685Q255.3564,277.8685,256.3261,277.6669Q257.2958,277.4654,258.322,277.0903L258.322,285.9027Q256.8769,286.4981,255.2847,286.7489Q253.6936,286.9997,252.2391,286.9997ZM264.1683,286.2027L264.1683,248.206L275.5409,248.206L275.5409,286.2027L264.1683,286.2027ZM257.6112,240.39686L257.6112,234L282.2133,234L282.2133,240.39686L257.6112,240.39686ZM284.8046,286.2027L284.8046,258.1037Q284.8046,255.66,284.654,253.1542Q284.5033,250.6485,284.2021,248.206L295.1792,248.206L295.9559,255.2604L295.0757,255.2604Q296.9303,251.4958,300.4231,249.453Q303.9158,247.409,308.4429,247.409Q315.1707,247.409,318.5351,251.265Q321.9008,255.1209,321.9008,263.2594L321.9008,286.2027L310.5294,286.2027L310.5294,263.7575Q310.5294,259.65070000000003,308.9948,257.9103Q307.4603,256.1687,304.4877,256.1687Q300.6855,256.1687,298.4307,258.5525Q296.17719999999997,260.9353,296.17719999999997,264.89549999999997L296.17719999999997,286.2027L284.8046,286.2027ZM349.139,303.0047Q343.655,303.0047,339.353,301.92650000000003Q335.05,300.8482,331.665,298.6636L333.86400000000003,290.5743Q335.954,291.8823,338.336,292.7461Q340.718,293.611,343.25,294.0494Q345.783,294.4877,348.226,294.4877Q353.308,294.4877,355.777,292.0874Q358.246,289.6883,358.246,285.2405L358.246,277.3388L358.976,277.3388Q357.771,280.95799999999997,354.177,283.1192Q350.58299999999997,285.2792,346.05,285.2792Q340.952,285.2792,337.137,282.9797Q333.322,280.6802,331.201,276.4047Q329.0804,272.12919999999997,329.0804,266.33Q329.0804,260.5309,331.201,256.2695Q333.322,252.008,337.137,249.70850000000002Q340.952,247.409,346.05,247.409Q350.682,247.409,354.177,249.5444Q357.672,251.6787,358.877,255.2498L358.246,254.9416L359.023,248.206L370,248.206Q369.699,250.6485,369.548,253.1542Q369.397,255.66,369.397,258.1037L369.397,283.9267Q369.397,293.1821,364.221,298.0928Q359.044,303.0047,349.139,303.0047ZM349.413,276.7387Q353.413,276.7387,355.76800000000003,274.0536Q358.124,271.3685,358.124,266.33Q358.124,261.2681,355.76800000000003,258.6088Q353.413,255.9483,349.413,255.9483Q345.33799999999997,255.9483,342.944,258.6088Q340.552,261.2681,340.552,266.33Q340.552,271.3685,342.944,274.0536Q345.33799999999997,276.7387,349.413,276.7387Z" fill="url(#master_svg4_57_590)" fill-opacity="1"/></g><g filter="url(#master_svg5_76_740)"><path d="M287.42,12.6839C287.42,12.6283,287.419,12.5727,287.419,12.517C287.419,5.60407,293.052,0,300,0C306.948,0,312.581,5.60407,312.581,12.517C312.581,12.5727,312.58000000000004,12.6283,312.58000000000004,12.6839L312.581,12.6839L312.581,53.406L312.584,53.406C312.582,53.4616,312.581,53.5173,312.581,53.5729C312.581,55.8773,314.45799999999997,57.7453,316.774,57.7453C319.09000000000003,57.7453,320.96799999999996,55.8773,320.96799999999996,53.5729C320.96799999999996,53.5173,320.967,53.4616,320.964,53.406L320.96799999999996,53.406L320.96799999999996,22.6976L320.969,22.6976C320.96799999999996,22.6419,320.96799999999996,22.5863,320.96799999999996,22.5307C320.96799999999996,15.6177,326.6,10.0136,333.548,10.0136C340.496,10.0136,346.129,15.6177,346.129,22.5307C346.129,22.5863,346.129,22.6419,346.128,22.6976L346.126,22.6976C346.128,22.7532,346.129,22.8088,346.129,22.8645C346.129,25.1688,344.252,27.0368,341.93600000000004,27.0368C339.619,27.0368,337.74199999999996,25.1688,337.74199999999996,22.8645C337.74199999999996,22.8088,337.743,22.7532,337.745,22.6976L337.73900000000003,22.6976C337.741,22.642,337.74199999999996,22.5863,337.74199999999996,22.5307C337.74199999999996,20.2264,335.86400000000003,18.3583,333.548,18.3583C331.23199999999997,18.3583,329.355,20.2264,329.355,22.5307C329.355,22.5863,329.356,22.642,329.358,22.6976L329.355,22.6976L329.355,78.1063L329.351,78.1063C329.35400000000004,78.1619,329.355,78.2176,329.355,78.2732C329.355,80.5776,327.477,82.4456,325.161,82.4456C322.845,82.4456,320.96799999999996,80.5776,320.96799999999996,78.2732C320.96799999999996,78.2176,320.969,78.1619,320.971,78.1063L320.96799999999996,78.1063L320.96799999999996,66.7576L320.964,66.7576C320.874,64.52,319.025,62.7521,316.774,62.7521C314.523,62.7521,312.674,64.52,312.584,66.7576L312.581,66.7576L312.581,77.7726L312.58000000000004,77.7726C312.488,84.6198,306.88300000000004,90.1227,300,90.1227C293.117,90.1227,287.512,84.6198,287.42,77.7726L287.419,77.7726L287.419,43.3924L287.416,43.3924C287.326,41.1548,285.477,39.387,283.226,39.387C280.975,39.387,279.126,41.1548,279.036,43.3924L279.032,43.3924L279.032,67.7589L279.031,67.7589C278.93899999999996,74.6062,273.334,80.1091,266.4516,80.1091C259.5689,80.1091,253.9639,74.6062,253.8721,67.7589L253.87099999999998,67.7589L253.87099999999998,65.7562L253.86759999999998,65.7562C253.7776,63.5186,251.9282,61.7507,249.6774,61.7507C247.42669999999998,61.7507,245.57729999999998,63.5186,245.4872,65.7562L245.4839,65.7562L245.4839,69.0941L245.4805,69.0941C245.3905,71.3317,243.5411,73.0995,241.2903,73.0995C239.0396,73.0995,237.1902,71.3317,237.1001,69.0941L237.0968,69.0941L237.0968,32.7112L237.0934,32.7112C237.0957,32.6556,237.0968,32.6,237.0968,32.5443C237.0968,30.24,235.2193,28.372,232.9032,28.372C230.5872,28.372,228.7097,30.24,228.7097,32.5443C228.7097,32.6,228.7108,32.6556,228.713,32.7112L228.7097,32.7112L228.7097,64.7548L228.6794,64.7548C228.4248,66.8503,226.6375,68.4265,224.5161,68.4265C222.3947,68.4265,220.60750000000002,66.8503,220.3529,64.7548L220.3226,64.7548L220.3226,37.3842L220.3192,37.3842C220.32150000000001,37.3286,220.3226,37.273,220.3226,37.2173C220.3226,34.913,218.4451,33.045,216.129,33.045C213.813,33.045,211.9355,34.913,211.9355,37.2173C211.9355,37.273,211.9366,37.3286,211.93880000000001,37.3842L211.9355,37.3842L211.9355,59.4142L211.9321,59.4142C211.84210000000002,61.6518,209.9927,63.4197,207.7419,63.4197C205.4912,63.4197,203.6418,61.6518,203.55169999999998,59.4142L203.54840000000002,59.4142L203.54840000000002,52.4047L203.54500000000002,52.4047C203.45499999999998,50.1671,201.6056,48.3992,199.3548,48.3992C197.1041,48.3992,195.2547,50.1671,195.1646,52.4047L195.1613,52.4047L195.1613,54.0736L195.1579,54.0736C195.0679,56.3112,193.2185,58.0791,190.9677,58.0791C188.71699999999998,58.0791,186.8676,56.3112,186.7775,54.0736L186.7742,54.0736L186.7742,36.3829L186.7775,36.3829C186.77530000000002,36.3273,186.7742,36.2716,186.7742,36.216C186.7742,33.9116,188.6517,32.0436,190.9677,32.0436C193.28379999999999,32.0436,195.1613,33.9116,195.1613,36.216C195.1613,36.2716,195.1602,36.3273,195.1579,36.3829L195.1613,36.3829L195.1613,39.0532L195.1646,39.0532C195.1624,39.1088,195.1613,39.1644,195.1613,39.2201C195.1613,41.5244,197.0388,43.3924,199.3548,43.3924C201.6709,43.3924,203.54840000000002,41.5244,203.54840000000002,39.2201C203.54840000000002,39.1644,203.5473,39.1088,203.54500000000002,39.0532L203.54840000000002,39.0532L203.54840000000002,37.3842L203.5495,37.3842C203.5488,37.3286,203.54840000000002,37.273,203.54840000000002,37.2173C203.54840000000002,30.3044,209.1809,24.7003,216.129,24.7003C218.2769,24.7003,220.299,25.2358,222.0679,26.18C224.2578,22.4971,228.29070000000002,20.0273,232.9032,20.0273C239.85129999999998,20.0273,245.4839,25.6313,245.4839,32.5443C245.4839,32.5999,245.4835,32.6556,245.4828,32.7112L245.4839,32.7112L245.4839,52.4047L245.4872,52.4047C245.485,52.4603,245.4839,52.5159,245.4839,52.5716C245.4839,54.8759,247.3614,56.7439,249.6774,56.7439C251.99349999999998,56.7439,253.87099999999998,54.8759,253.87099999999998,52.5716C253.87099999999998,52.5159,253.8699,52.4603,253.86759999999998,52.4047L253.87099999999998,52.4047L253.87099999999998,22.6976L253.8721,22.6976C253.87130000000002,22.6419,253.87099999999998,22.5863,253.87099999999998,22.5307C253.87099999999998,15.6177,259.50350000000003,10.0136,266.4516,10.0136C273.4,10.0136,279.032,15.6177,279.032,22.5307C279.032,22.5863,279.032,22.6419,279.031,22.6976L279.032,22.6976L279.032,30.0409L279.036,30.0409C279.033,30.0965,279.032,30.1521,279.032,30.2078C279.032,32.5121,280.90999999999997,34.3801,283.226,34.3801C285.54200000000003,34.3801,287.419,32.5121,287.419,30.2078C287.419,30.1521,287.418,30.0965,287.416,30.0409L287.419,30.0409L287.419,12.6839L287.42,12.6839ZM295.806,30.0409L295.806,77.7726L295.81,77.7726C295.9,80.0102,297.749,81.778,300,81.778C302.251,81.778,304.1,80.0102,304.19,77.7726L304.19399999999996,77.7726L304.19399999999996,12.6839L304.19,12.6839C304.192,12.6283,304.19399999999996,12.5727,304.19399999999996,12.517C304.19399999999996,10.2127,302.31600000000003,8.34469,300,8.34469C297.68399999999997,8.34469,295.806,10.2127,295.806,12.517C295.806,12.5727,295.808,12.6283,295.81,12.6839L295.806,12.6839L295.806,30.0409ZM270.645,30.0409L270.645,22.6976L270.642,22.6976C270.644,22.642,270.645,22.5863,270.645,22.5307C270.645,20.2264,268.7677,18.3583,266.4516,18.3583C264.1356,18.3583,262.2581,20.2264,262.2581,22.5307C262.2581,22.5863,262.2592,22.642,262.2614,22.6976L262.2581,22.6976L262.2581,67.7589L262.2614,67.7589C262.3515,69.9965,264.2008,71.7644,266.4516,71.7644C268.7024,71.7644,270.552,69.9965,270.642,67.7589L270.645,67.7589L270.645,30.0409ZM354.51599999999996,32.5443C354.51599999999996,32.5999,354.51599999999996,32.6556,354.517,32.7112L354.51599999999996,32.7112L354.51599999999996,45.0614L354.51300000000003,45.0614C354.515,45.117,354.51599999999996,45.1726,354.51599999999996,45.2282C354.51599999999996,47.5326,352.639,49.4006,350.323,49.4006C348.007,49.4006,346.129,47.5326,346.129,45.2282C346.129,45.1726,346.13,45.117,346.132,45.0614L346.129,45.0614L346.129,44.7276L346.126,44.7276C346.128,44.672,346.129,44.6163,346.129,44.5607C346.129,42.2563,344.252,40.3883,341.93600000000004,40.3883C339.619,40.3883,337.74199999999996,42.2563,337.74199999999996,44.5607C337.74199999999996,44.6163,337.743,44.672,337.745,44.7276L337.74199999999996,44.7276L337.74199999999996,58.7467L337.745,58.7467C337.83500000000004,60.9843,339.685,62.7521,341.93600000000004,62.7521C344.18600000000004,62.7521,346.036,60.9843,346.126,58.7467L346.129,58.7467L346.129,58.4129L346.132,58.4129C346.222,56.1753,348.072,54.4074,350.323,54.4074C352.573,54.4074,354.423,56.1753,354.51300000000003,58.4129L354.544,58.4129C354.977,64.9467,360.43899999999996,70.0954,367.097,70.0954C373.97900000000004,70.0954,379.58500000000004,64.5926,379.676,57.7453L379.677,57.7453L379.677,53.406L371.28999999999996,53.406L371.28999999999996,57.7453L371.28700000000003,57.7453C371.197,59.9829,369.348,61.7507,367.097,61.7507C364.846,61.7507,362.997,59.9829,362.90700000000004,57.7453L362.903,57.7453L362.903,45.0614L375.652,45.0614L375.652,45.0581C377.834,44.9726,379.58799999999997,43.2275,379.674,41.0559L379.677,41.0559L379.677,32.7112L379.676,32.7112C379.677,32.6556,379.677,32.5999,379.677,32.5443C379.677,25.6313,374.04499999999996,20.0273,367.097,20.0273C360.149,20.0273,354.51599999999996,25.6313,354.51599999999996,32.5443ZM396.452,31.2092C396.452,31.2648,396.451,31.3204,396.448,31.3761L396.452,31.3761L396.452,37.0504L396.45500000000004,37.0504C396.453,37.106,396.452,37.1617,396.452,37.2173C396.452,39.5217,398.329,41.3897,400.645,41.3897C402.961,41.3897,404.839,39.5217,404.839,37.2173C404.839,37.1617,404.83799999999997,37.106,404.83500000000004,37.0504L404.839,37.0504L404.839,36.0491L404.842,36.0491C404.932,33.8115,406.78200000000004,32.0436,409.03200000000004,32.0436C411.283,32.0436,413.132,33.8115,413.222,36.0491L413.226,36.0491L413.226,54.0736L413.222,54.0736C413.132,56.3112,411.283,58.0791,409.03200000000004,58.0791C406.78200000000004,58.0791,404.932,56.3112,404.842,54.0736L404.839,54.0736L404.839,50.402L404.83500000000004,50.402C404.745,48.1644,402.89599999999996,46.3965,400.645,46.3965C398.394,46.3965,396.54499999999996,48.1644,396.45500000000004,50.402L396.452,50.402L396.452,58.7467L396.448,58.7467C396.358,60.9843,394.509,62.7521,392.25800000000004,62.7521C390.007,62.7521,388.158,60.9843,388.068,58.7467L388.065,58.7467L388.065,31.3761L388.068,31.3761C388.06600000000003,31.3204,388.065,31.2648,388.065,31.2092C388.065,28.9048,389.942,27.0368,392.25800000000004,27.0368C394.574,27.0368,396.452,28.9048,396.452,31.2092ZM371.28999999999996,38.3856L371.28999999999996,32.7112L371.28700000000003,32.7112C371.289,32.6556,371.28999999999996,32.6,371.28999999999996,32.5443C371.28999999999996,30.24,369.413,28.372,367.097,28.372C364.781,28.372,362.903,30.24,362.903,32.5443C362.903,32.6,362.904,32.6556,362.90700000000004,32.7112L362.903,32.7112L362.903,38.3856L371.28999999999996,38.3856ZM178.3871,40.889C178.3871,40.9446,178.38598,41.0003,178.38374,41.0559L178.3871,41.0559L178.3871,49.4006L178.38374,49.4006C178.29371,51.6382,176.44432,53.406,174.19355,53.406C171.94277,53.406,170.0933872,51.6382,170.00335618,49.4006L170,49.4006L170,41.0559L170.00335618,41.0559C170.00111895,41.0003,170,40.9446,170,40.889C170,38.5847,171.87752,36.7167,174.19355,36.7167C176.50958,36.7167,178.3871,38.5847,178.3871,40.889ZM430,40.889C430,40.9446,429.999,41.0003,429.997,41.0559L430,41.0559L430,49.4006L429.997,49.4006C429.907,51.6382,428.057,53.406,425.80600000000004,53.406C423.55600000000004,53.406,421.706,51.6382,421.616,49.4006L421.613,49.4006L421.613,41.0559L421.616,41.0559C421.61400000000003,41.0003,421.613,40.9446,421.613,40.889C421.613,38.5847,423.49,36.7167,425.80600000000004,36.7167C428.122,36.7167,430,38.5847,430,40.889Z" fill-rule="evenodd" fill="url(#master_svg6_57_590)" fill-opacity="1"/></g></g></svg>