<svg xmlns="http://www.w3.org/2000/svg" xmlns:xlink="http://www.w3.org/1999/xlink" fill="none" version="1.1" width="833" height="571.5" viewBox="0 0 833 571.5"><defs><filter id="master_svg0_55_370" filterUnits="objectBoundingBox" color-interpolation-filters="sRGB" x="-6" y="0" width="836" height="573"><feFlood flood-opacity="0" result="BackgroundImageFix"/><feColorMatrix in="SourceAlpha" type="matrix" values="0 0 0 0 0 0 0 0 0 0 0 0 0 0 0 0 0 0 127 0"/><feOffset dy="7" dx="0"/><feGaussianBlur stdDeviation="1.5"/><feColorMatrix type="matrix" values="0 0 0 0 0 0 0 0 0 0 0 0 0 0 0 0 0 0 0.30000001192092896 0"/><feBlend mode="normal" in2="BackgroundImageFix" result="effect1_dropShadow"/><feBlend mode="normal" in="SourceGraphic" in2="effect1_dropShadow" result="shape"/><feColorMatrix in="SourceAlpha" type="matrix" result="hardAlpha" values="0 0 0 0 0 0 0 0 0 0 0 0 0 0 0 0 0 0 127 0"/><feOffset dy="-5" dx="0"/><feGaussianBlur stdDeviation="0"/><feComposite in2="hardAlpha" operator="arithmetic" k2="-1" k3="1"/><feColorMatrix type="matrix" values="0 0 0 0 0 0 0 0 0 0 0 0 0 0 0 0 0 0 0.30000001192092896 0"/><feBlend mode="normal" in2="shape" result="effect2_innerShadow"/></filter><linearGradient x1="0.5" y1="0.1032547578215599" x2="0.5" y2="0.9085297584533691" id="master_svg1_57_590"><stop offset="0%" stop-color="#EEEEEE" stop-opacity="1"/><stop offset="100%" stop-color="#888888" stop-opacity="1"/></linearGradient><filter id="master_svg2_51_83" filterUnits="objectBoundingBox" color-interpolation-filters="sRGB" x="-6" y="0" width="602" height="163"><feFlood flood-opacity="0" result="BackgroundImageFix"/><feColorMatrix in="SourceAlpha" type="matrix" values="0 0 0 0 0 0 0 0 0 0 0 0 0 0 0 0 0 0 127 0"/><feOffset dy="7" dx="0"/><feGaussianBlur stdDeviation="1.5"/><feColorMatrix type="matrix" values="0 0 0 0 0 0 0 0 0 0 0 0 0 0 0 0 0 0 0.30000001192092896 0"/><feBlend mode="normal" in2="BackgroundImageFix" result="effect1_dropShadow"/><feBlend mode="normal" in="SourceGraphic" in2="effect1_dropShadow" result="shape"/><feColorMatrix in="SourceAlpha" type="matrix" result="hardAlpha" values="0 0 0 0 0 0 0 0 0 0 0 0 0 0 0 0 0 0 127 0"/><feOffset dy="-5" dx="0"/><feGaussianBlur stdDeviation="0"/><feComposite in2="hardAlpha" operator="arithmetic" k2="-1" k3="1"/><feColorMatrix type="matrix" values="0 0 0 0 0 0 0 0 0 0 0 0 0 0 0 0 0 0 0.30000001192092896 0"/><feBlend mode="normal" in2="shape" result="effect2_innerShadow"/></filter><linearGradient x1="0.5" y1="0.1032547578215599" x2="0.5" y2="0.9085297584533691" id="master_svg3_57_590"><stop offset="0%" stop-color="#EEEEEE" stop-opacity="1"/><stop offset="100%" stop-color="#888888" stop-opacity="1"/></linearGradient></defs><g><g filter="url(#master_svg0_55_370)"><path d="M734.5,518L734.5,347.5C734.5,172.15,592.35,30,417,30C241.65,30,99.5,172.15,99.5,347.5C99.5,347.667,99.5001,347.833,99.5004,348L99.5003,387.5L99.5,388L99.5,523L99.4958,523C99.1493,543.514,77.9865,560,52,560C26.0135,560,4.850662,543.514,4.5041748,523L4.5,523L4.5,388L4.5041748,388C4.5013599,387.833,4.5,387.667,4.5,387.5C4.5,366.789,25.7665,350,52,350C58.18,350,64.0844,350.932,69.5,352.627L69.5,347.5C69.5,155.581,225.081,0,417,0C608.919,0,764.5,155.581,764.5,347.5L764.5,352.528C769.772,350.896,775.505,350,781.5,350C807.457,350,828.5,366.789,828.5,387.5C828.5,387.667,828.499,387.833,828.496,388L828.5,388L828.5,523L828.496,523C828.153,543.514,807.213,560,781.5,560C755.787,560,734.847,543.514,734.504,523L734.5,523L734.5,518Z" fill-rule="evenodd" fill="url(#master_svg1_57_590)" fill-opacity="1"/></g><g filter="url(#master_svg2_51_83)"><path d="M171.5,440.5C171.5,440.6667,171.5011,440.8333,171.5033,441L171.5,441L171.5,540L171.51,540C171.5033,540.167,171.5,540.333,171.5,540.5C171.5,547.404,177.09640000000002,553,184,553C190.90359999999998,553,196.5,547.404,196.5,540.5C196.5,540.333,196.4967,540.167,196.49,540L196.5,540L196.5,441L196.51,441C196.5033,440.8334,196.5,440.6667,196.5,440.5C196.5,433.5964,202.09640000000002,428,209,428C215.90359999999998,428,221.5,433.5964,221.5,440.5C221.5,440.6667,221.4967,440.8334,221.49,441L221.5,441L221.5,542L221.59,542C222.349,548.278,227.67700000000002,553,234,553C240.32299999999998,553,245.651,548.278,246.41,542L246.5,542L246.5,441L246.51,441C246.503,440.8334,246.5,440.6667,246.5,440.5C246.5,433.5964,252.096,428,259,428C265.904,428,271.5,433.5964,271.5,440.5C271.5,440.6667,271.497,440.8334,271.49,441L271.5,441L271.5,541L271.51,541C271.778,547.704,277.291,553,284,553C290.709,553,296.222,547.704,296.49,541L296.5,541L296.5,441L296.497,441C296.499,440.8333,296.5,440.6667,296.5,440.5C296.5,419.7893,279.711,403,259,403C249.39600000000002,403,240.63400000000001,406.61067,234,412.54866C227.36599999999999,406.61067,218.6044,403,209,403C188.2893,403,171.5,419.7893,171.5,440.5ZM321.5,440.5C321.5,440.6667,321.501,440.8333,321.503,441L321.5,441L321.5,515.5L321.503,515.5C321.777,536.014,338.48400000000004,552.5,359,552.5C379.516,552.5,396.223,536.014,396.497,515.5L396.5,515.5L396.5,441L396.497,441C396.499,440.8333,396.5,440.6667,396.5,440.5C396.5,419.7893,379.711,403,359,403C338.289,403,321.5,419.7893,321.5,440.5ZM421.5,440.5C421.5,440.6667,421.501,440.8333,421.503,441L421.5,441L421.5,516L421.503,516C421.777,536.514,438.484,553,459,553C479.516,553,496.223,536.514,496.497,516L496.5,516L496.5,441L496.497,441C496.499,440.8333,496.5,440.6667,496.5,440.5C496.5,419.7893,479.711,403,459,403C438.289,403,421.5,419.7893,421.5,440.5ZM571.5,415.5C571.5,422.4036,565.904,428,559,428C558.8330000000001,428,558.6669999999999,427.9967,558.5,427.99L558.5,428.0098C551.828,428.2723,546.5,433.7639,546.5,440.5C546.5,440.6667,546.5029999999999,440.8334,546.51,441L546.5,441L546.5,539.5L546.49,539.5C546.4970000000001,539.667,546.5,539.833,546.5,540C546.5,546.904,540.904,552.5,534,552.5C527.096,552.5,521.5,546.904,521.5,540C521.5,539.833,521.5029999999999,539.667,521.51,539.5L521.5,539.5L521.5,441L521.5029999999999,441C521.501,440.8333,521.5,440.6667,521.5,440.5C521.5,419.9562,538.02,403.270891,558.5,403.00326517L558.5,403.010004C558.6669999999999,403.00333533,558.8330000000001,403,559,403C565.904,403,571.5,408.59644,571.5,415.5ZM586.5029999999999,441C586.501,440.8333,586.5,440.6667,586.5,440.5C586.5,419.7893,603.289,403,624,403C644.711,403,661.5,419.7893,661.5,440.5C661.5,440.6667,661.499,440.8333,661.497,441L661.5,441L661.5,466L661.49,466C661.234,472.5059,656.006,477.7343,649.5,477.9902L649.5,478L611.5,478L611.5,516L611.51,516C611.778,522.704,617.2909999999999,528,624,528C630.7090000000001,528,636.222,522.704,636.49,516L636.5,516L636.5,503L661.5,503L661.5,516L661.497,516C661.223,536.514,644.516,553,624,553C603.4839999999999,553,586.777,536.514,586.5029999999999,516L586.5,516L586.5,441L586.5029999999999,441ZM346.5,440.5C346.5,440.6667,346.503,440.8334,346.51,441L346.5,441L346.5,515.5L346.51,515.5C346.778,522.204,352.291,527.5,359,527.5C365.709,527.5,371.222,522.204,371.49,515.5L371.5,515.5L371.5,441L371.49,441C371.497,440.8334,371.5,440.6667,371.5,440.5C371.5,433.5964,365.904,428,359,428C352.096,428,346.5,433.5964,346.5,440.5ZM446.5,440.5C446.5,440.6667,446.503,440.8334,446.51,441L446.5,441L446.5,516L446.51,516C446.778,522.704,452.291,528,459,528C465.709,528,471.222,522.704,471.49,516L471.5,516L471.5,441L471.49,441C471.497,440.8334,471.5,440.6667,471.5,440.5C471.5,433.5964,465.904,428,459,428C452.096,428,446.5,433.5964,446.5,440.5ZM636.5,441L636.5,458L611.5,458L611.5,441L611.51,441C611.5029999999999,440.8334,611.5,440.6667,611.5,440.5C611.5,433.5964,617.096,428,624,428C630.904,428,636.5,433.5964,636.5,440.5C636.5,440.6667,636.497,440.8334,636.49,441L636.5,441ZM121.5100098,466C121.50335693,465.8334,121.5,465.6667,121.5,465.5C121.5,458.5964,127.09644,453,134,453C140.9036,453,146.5,458.5964,146.5,465.5C146.5,465.6667,146.4966,465.8334,146.49,466L146.5,466L146.5,491L146.49,491C146.2216,497.7037,140.709,503,134,503C127.29095,503,121.778381,497.7037,121.5100098,491L121.5,491L121.5,466L121.5100098,466ZM686.51,466C686.503,465.8334,686.5,465.6667,686.5,465.5C686.5,458.5964,692.096,453,699,453C705.904,453,711.5,458.5964,711.5,465.5C711.5,465.6667,711.497,465.8334,711.49,466L711.5,466L711.5,491L711.49,491C711.222,497.7037,705.709,503,699,503C692.291,503,686.778,497.7037,686.51,491L686.5,491L686.5,466L686.51,466Z" fill-rule="evenodd" fill="url(#master_svg3_57_590)" fill-opacity="1"/></g></g></svg>