<svg width="600" height="558" viewBox="0 0 600 558" fill="none" xmlns="http://www.w3.org/2000/svg">
<path d="M491.718 276.986C484.131 269.741 478.931 259.999 477.489 248.96C474.144 223.05 465.537 193.127 443.953 164.407C410.016 119.322 360.337 95.4632 300.223 95.4632C258.081 95.4632 198.858 107.415 156.002 164.407C134.151 193.483 125.633 224.031 122.377 250.342C121.007 261.327 115.846 271.067 108.251 278.161C107.189 319.724 109.571 364.455 113.886 409.187C120.555 416.584 125.75 426.993 128.088 439.044C133.177 465.278 122.798 489.358 104.906 492.829C87.0135 496.3 68.3837 477.847 63.2949 451.613C61.3187 441.425 61.6751 431.563 63.8984 423.106C59.084 375.908 56.1635 327.608 57.0353 281.982C52.354 277.003 49.6143 270.199 50.0441 262.784C52.1847 225.191 61.6389 158.432 99.3218 108.307C146.503 45.5167 217.856 11 300.223 11C382.278 11 453.452 45.5167 500.634 108.217C538.361 158.387 547.771 225.191 549.956 262.74C550.386 270.176 547.646 276.991 542.965 281.976C543.837 327.632 540.913 375.967 536.093 423.196C538.283 431.622 538.624 441.432 536.658 451.564C531.567 477.797 512.936 496.249 495.044 492.777C477.152 489.305 466.775 465.224 471.866 438.991C474.211 426.906 479.429 416.473 486.125 409.073C490.474 363.958 492.855 318.846 491.718 276.986Z" fill="#848383"/>
<path d="M187.308 542.976C143.961 548.996 94.2378 517.021 84.2039 443.038C74.2146 369.367 109.222 324.593 144.72 317.725L187.308 542.976Z" fill="#525256"/>
<path d="M189.805 302.474L152.078 308.94C144.619 310.378 137.756 313.997 132.357 319.34C126.958 324.684 123.268 331.51 121.753 338.953C117.561 359.511 114.885 392.378 123.537 437.196C132.233 481.969 146.994 511.447 158.633 528.973C167.196 541.905 182.715 548.416 197.966 545.428L235.694 538.962C253.933 535.439 258.437 479.606 245.728 414.319C233.063 349.031 208.045 298.951 189.805 302.474Z" fill="#B8B7B7"/>
<path opacity="0.5" d="M239.387 528.915C254.595 525.965 257.438 474.67 245.736 414.344C234.034 354.019 212.218 307.507 197.01 310.457C181.802 313.407 178.959 364.702 190.661 425.028C202.364 485.353 224.179 531.865 239.387 528.915Z" fill="#8C8B8B"/>
<path d="M236.898 416.058C244.836 456.907 246.575 490.933 240.822 492.048C235.069 493.163 223.921 460.965 216.027 420.116C208.089 379.267 206.35 345.241 212.103 344.126C217.856 343.011 228.96 375.209 236.898 416.058Z" fill="url(#paint0_linear_3_53)"/>
<path d="M412.692 542.976C456.039 548.996 505.762 517.021 515.796 443.038C525.785 369.367 490.778 324.593 455.28 317.725L412.692 542.976Z" fill="#525256"/>
<path d="M410.195 302.474L447.922 308.94C455.381 310.378 462.245 313.997 467.643 319.34C473.042 324.684 476.733 331.51 478.247 338.953C482.439 359.511 485.115 392.378 476.463 437.196C467.767 481.969 453.006 511.447 441.367 528.973C437.177 535.302 431.202 540.245 424.199 543.174C417.197 546.104 409.483 546.888 402.034 545.428L364.306 538.962C346.067 535.439 341.563 479.606 354.272 414.319C366.937 349.031 391.955 298.951 410.195 302.474Z" fill="#B8B7B7"/>
<path opacity="0.5" d="M409.318 424.997C421.024 364.672 418.185 313.377 402.977 310.426C387.769 307.475 365.951 353.985 354.244 414.31C342.538 474.634 345.377 525.929 360.585 528.881C375.793 531.832 397.612 485.321 409.318 424.997Z" fill="#8C8B8B"/>
<path d="M363.102 416.058C355.164 456.907 353.425 490.933 359.178 492.048C364.931 493.163 376.079 460.965 383.973 420.116C391.911 379.267 393.65 345.241 387.897 344.126C382.144 343.011 371.04 375.209 363.102 416.058Z" fill="url(#paint1_linear_3_53)"/>
<path d="M545.675 270.098C533.054 278.66 517.491 269.028 512.719 256.006C507.189 223.541 496.263 185.858 474.858 154.775C434.767 93.2781 367.383 62.4628 300 62.4182C232.617 62.4628 165.233 93.2781 125.142 154.775C103.737 185.858 92.8555 223.585 87.2811 256.006C82.5094 269.028 66.9457 278.66 54.3252 270.098C53.2996 269.384 51.7387 267.601 50.1333 266.619C51.382 280.221 63.2443 290.79 77.3364 290.166L81.2161 289.987C108.776 290.21 119.702 272.684 122.244 251.502C125.41 224.968 133.838 193.885 156.047 164.407C198.814 107.549 257.858 95.5078 300 95.4632C342.142 95.5078 401.186 107.549 443.953 164.407C465.805 193.483 474.322 224.031 477.578 250.342C480.343 272.417 491.046 290.21 521.147 290.121L522.619 290.21C536.711 290.879 548.573 280.266 549.822 266.664C548.261 267.601 546.7 269.384 545.675 270.098Z" fill="#606060"/>
<path d="M79.9229 178.722C75.7755 175.779 72.5201 172.524 78.4512 150.137C85.631 123.157 118.944 70.9359 186.059 36.3301C198.501 29.9083 228.737 20.3204 237.968 36.9544C246.709 52.7411 204.477 64.2466 189.582 72.2291C150.606 93.1889 122.467 122.755 107.349 146.123C102.533 153.571 89.823 185.679 79.9229 178.722Z" fill="#B8B7B7"/>
<g filter="url(#filter0_di_3_53)">
<path fill-rule="evenodd" clip-rule="evenodd" d="M287.42 199.684C287.42 199.628 287.419 199.573 287.419 199.517C287.419 192.604 293.052 187 300 187C306.948 187 312.581 192.604 312.581 199.517C312.581 199.573 312.58 199.628 312.58 199.684L312.581 240.406H312.584C312.582 240.462 312.581 240.517 312.581 240.573C312.581 242.877 314.458 244.745 316.774 244.745C319.09 244.745 320.968 242.877 320.968 240.573C320.968 240.517 320.967 240.462 320.964 240.406H320.968V209.698C320.967 209.642 320.968 209.586 320.968 209.531C320.968 202.618 326.6 197.014 333.548 197.014C340.496 197.014 346.129 202.618 346.129 209.531C346.129 209.586 346.129 209.642 346.128 209.698H346.126C346.128 209.753 346.129 209.809 346.129 209.865C346.129 212.169 344.252 214.037 341.936 214.037C339.619 214.037 337.742 212.169 337.742 209.865C337.742 209.809 337.743 209.753 337.745 209.698H337.739C337.741 209.642 337.742 209.586 337.742 209.531C337.742 207.226 335.864 205.358 333.548 205.358C331.232 205.358 329.355 207.226 329.355 209.531C329.355 209.586 329.356 209.642 329.358 209.698H329.355V265.106H329.351C329.354 265.162 329.355 265.218 329.355 265.273C329.355 267.578 327.477 269.446 325.161 269.446C322.845 269.446 320.968 267.578 320.968 265.273C320.968 265.218 320.969 265.162 320.971 265.106H320.968V253.758H320.964C320.874 251.52 319.025 249.752 316.774 249.752C314.523 249.752 312.674 251.52 312.584 253.758H312.581V264.773C312.489 271.62 306.883 277.123 300 277.123C293.117 277.123 287.512 271.62 287.42 264.773L287.419 230.392H287.416C287.326 228.155 285.477 226.387 283.226 226.387C280.975 226.387 279.126 228.155 279.036 230.392H279.032V254.759C278.94 261.606 273.334 267.109 266.452 267.109C259.569 267.109 253.964 261.606 253.872 254.759H253.871V252.756H253.868C253.778 250.519 251.928 248.751 249.677 248.751C247.427 248.751 245.577 250.519 245.487 252.756H245.484V256.094H245.48C245.39 258.332 243.541 260.1 241.29 260.1C239.04 260.1 237.19 258.332 237.1 256.094H237.097V219.711H237.093C237.096 219.656 237.097 219.6 237.097 219.544C237.097 217.24 235.219 215.372 232.903 215.372C230.587 215.372 228.71 217.24 228.71 219.544C228.71 219.6 228.711 219.656 228.713 219.711H228.71V251.755H228.679C228.425 253.85 226.638 255.426 224.516 255.426C222.395 255.426 220.608 253.85 220.353 251.755H220.323V224.384H220.319C220.321 224.329 220.323 224.273 220.323 224.217C220.323 221.913 218.445 220.045 216.129 220.045C213.813 220.045 211.936 221.913 211.936 224.217C211.936 224.273 211.937 224.329 211.939 224.384H211.936V246.414H211.932C211.842 248.652 209.993 250.42 207.742 250.42C205.491 250.42 203.642 248.652 203.552 246.414H203.548V239.405H203.545C203.455 237.167 201.606 235.399 199.355 235.399C197.104 235.399 195.255 237.167 195.165 239.405H195.161V241.074H195.158C195.068 243.311 193.218 245.079 190.968 245.079C188.717 245.079 186.868 243.311 186.778 241.074H186.774V223.383H186.778C186.775 223.327 186.774 223.272 186.774 223.216C186.774 220.912 188.652 219.044 190.968 219.044C193.284 219.044 195.161 220.912 195.161 223.216C195.161 223.272 195.16 223.327 195.158 223.383H195.161V226.053H195.165C195.162 226.109 195.161 226.164 195.161 226.22C195.161 228.524 197.039 230.392 199.355 230.392C201.671 230.392 203.548 228.524 203.548 226.22C203.548 226.164 203.547 226.109 203.545 226.053H203.548V224.384H203.549C203.549 224.329 203.548 224.273 203.548 224.217C203.548 217.304 209.181 211.7 216.129 211.7C218.277 211.7 220.299 212.236 222.068 213.18C224.258 209.497 228.291 207.027 232.903 207.027C239.851 207.027 245.484 212.631 245.484 219.544C245.484 219.6 245.484 219.656 245.483 219.711H245.484V239.405H245.487C245.485 239.46 245.484 239.516 245.484 239.572C245.484 241.876 247.361 243.744 249.677 243.744C251.993 243.744 253.871 241.876 253.871 239.572C253.871 239.516 253.87 239.46 253.868 239.405H253.871V209.698H253.872C253.871 209.642 253.871 209.586 253.871 209.531C253.871 202.618 259.503 197.014 266.452 197.014C273.4 197.014 279.032 202.618 279.032 209.531C279.032 209.586 279.032 209.642 279.031 209.698L279.032 217.041H279.036C279.033 217.096 279.032 217.152 279.032 217.208C279.032 219.512 280.91 221.38 283.226 221.38C285.542 221.38 287.419 219.512 287.419 217.208C287.419 217.152 287.418 217.096 287.416 217.041H287.419L287.42 199.684ZM295.806 217.041V264.773H295.81C295.9 267.01 297.749 268.778 300 268.778C302.251 268.778 304.1 267.01 304.19 264.773H304.194V199.684H304.19C304.192 199.628 304.194 199.573 304.194 199.517C304.194 197.213 302.316 195.345 300 195.345C297.684 195.345 295.806 197.213 295.806 199.517C295.806 199.573 295.808 199.628 295.81 199.684H295.806V217.041ZM270.645 217.041V209.698H270.642C270.644 209.642 270.645 209.586 270.645 209.531C270.645 207.226 268.768 205.358 266.452 205.358C264.136 205.358 262.258 207.226 262.258 209.531C262.258 209.586 262.259 209.642 262.261 209.698H262.258V254.759H262.261C262.351 256.997 264.201 258.764 266.452 258.764C268.702 258.764 270.552 256.997 270.642 254.759H270.645V217.041ZM354.516 219.544C354.516 219.6 354.516 219.656 354.517 219.711L354.516 232.061H354.513C354.515 232.117 354.516 232.173 354.516 232.228C354.516 234.533 352.639 236.401 350.323 236.401C348.007 236.401 346.129 234.533 346.129 232.228C346.129 232.173 346.13 232.117 346.132 232.061H346.129V231.728H346.126C346.128 231.672 346.129 231.616 346.129 231.561C346.129 229.256 344.252 227.388 341.936 227.388C339.619 227.388 337.742 229.256 337.742 231.561C337.742 231.616 337.743 231.672 337.745 231.728H337.742V245.747H337.745C337.835 247.984 339.685 249.752 341.936 249.752C344.186 249.752 346.036 247.984 346.126 245.747H346.129V245.413H346.132C346.222 243.175 348.072 241.407 350.323 241.407C352.573 241.407 354.423 243.175 354.513 245.413H354.544C354.977 251.947 360.439 257.095 367.097 257.095C373.979 257.095 379.585 251.593 379.676 244.745H379.677V240.406H371.29V244.745H371.287C371.197 246.983 369.348 248.751 367.097 248.751C364.846 248.751 362.997 246.983 362.907 244.745H362.903V232.061H375.652V232.058C377.834 231.973 379.588 230.228 379.674 228.056H379.677V219.711H379.676C379.677 219.656 379.677 219.6 379.677 219.544C379.677 212.631 374.045 207.027 367.097 207.027C360.149 207.027 354.516 212.631 354.516 219.544ZM396.452 218.209C396.452 218.265 396.451 218.32 396.448 218.376H396.452V224.05H396.455C396.453 224.106 396.452 224.162 396.452 224.217C396.452 226.522 398.329 228.39 400.645 228.39C402.961 228.39 404.839 226.522 404.839 224.217C404.839 224.162 404.838 224.106 404.835 224.05H404.839V223.049H404.842C404.932 220.811 406.782 219.044 409.032 219.044C411.283 219.044 413.132 220.811 413.222 223.049H413.226V241.074H413.222C413.132 243.311 411.283 245.079 409.032 245.079C406.782 245.079 404.932 243.311 404.842 241.074H404.839V237.402H404.835C404.745 235.164 402.896 233.396 400.645 233.396C398.394 233.396 396.545 235.164 396.455 237.402H396.452V245.747H396.448C396.358 247.984 394.509 249.752 392.258 249.752C390.007 249.752 388.158 247.984 388.068 245.747H388.065V218.376H388.068C388.066 218.32 388.065 218.265 388.065 218.209C388.065 215.905 389.942 214.037 392.258 214.037C394.574 214.037 396.452 215.905 396.452 218.209ZM371.29 225.386V219.711H371.287C371.289 219.656 371.29 219.6 371.29 219.544C371.29 217.24 369.413 215.372 367.097 215.372C364.781 215.372 362.903 217.24 362.903 219.544C362.903 219.6 362.904 219.656 362.907 219.711H362.903V225.386H371.29ZM178.387 227.889C178.387 227.945 178.386 228 178.384 228.056H178.387V236.401H178.384C178.294 238.638 176.444 240.406 174.194 240.406C171.943 240.406 170.093 238.638 170.003 236.401H170V228.056H170.003C170.001 228 170 227.945 170 227.889C170 225.585 171.878 223.717 174.194 223.717C176.51 223.717 178.387 225.585 178.387 227.889ZM430 227.889C430 227.945 429.999 228 429.997 228.056H430V236.401H429.997C429.907 238.638 428.057 240.406 425.806 240.406C423.556 240.406 421.706 238.638 421.616 236.401H421.613V228.056H421.616C421.614 228 421.613 227.945 421.613 227.889C421.613 225.585 423.49 223.717 425.806 223.717C428.122 223.717 430 225.585 430 227.889Z" fill="url(#paint2_linear_3_53)"/>
</g>
<defs>
<filter id="filter0_di_3_53" x="167" y="187" width="266" height="100.123" filterUnits="userSpaceOnUse" color-interpolation-filters="sRGB">
<feFlood flood-opacity="0" result="BackgroundImageFix"/>
<feColorMatrix in="SourceAlpha" type="matrix" values="0 0 0 0 0 0 0 0 0 0 0 0 0 0 0 0 0 0 127 0" result="hardAlpha"/>
<feOffset dy="7"/>
<feGaussianBlur stdDeviation="1.5"/>
<feColorMatrix type="matrix" values="0 0 0 0 0 0 0 0 0 0 0 0 0 0 0 0 0 0 0.3 0"/>
<feBlend mode="normal" in2="BackgroundImageFix" result="effect1_dropShadow_3_53"/>
<feBlend mode="normal" in="SourceGraphic" in2="effect1_dropShadow_3_53" result="shape"/>
<feColorMatrix in="SourceAlpha" type="matrix" values="0 0 0 0 0 0 0 0 0 0 0 0 0 0 0 0 0 0 127 0" result="hardAlpha"/>
<feOffset dy="-3"/>
<feComposite in2="hardAlpha" operator="arithmetic" k2="-1" k3="1"/>
<feColorMatrix type="matrix" values="0 0 0 0 0 0 0 0 0 0 0 0 0 0 0 0 0 0 0.3 0"/>
<feBlend mode="normal" in2="shape" result="effect2_innerShadow_3_53"/>
</filter>
<linearGradient id="paint0_linear_3_53" x1="217.364" y1="420.138" x2="230.192" y2="417.649" gradientUnits="userSpaceOnUse">
<stop offset="0.202" stop-color="#393838"/>
<stop offset="1" stop-color="#212121" stop-opacity="0"/>
</linearGradient>
<linearGradient id="paint1_linear_3_53" x1="382.783" y1="419.892" x2="369.956" y2="417.403" gradientUnits="userSpaceOnUse">
<stop offset="0.202" stop-color="#212121"/>
<stop offset="1" stop-color="#212121" stop-opacity="0"/>
</linearGradient>
<linearGradient id="paint2_linear_3_53" x1="300" y1="196.306" x2="300" y2="268.879" gradientUnits="userSpaceOnUse">
<stop stop-color="#EEEEEE"/>
<stop offset="1" stop-color="#888888"/>
</linearGradient>
</defs>
</svg>
