<svg xmlns="http://www.w3.org/2000/svg" xmlns:xlink="http://www.w3.org/1999/xlink" fill="none" version="1.1" width="809.39990234375" height="174.6699981689453" viewBox="0 0 809.39990234375 174.6699981689453"><defs><filter id="master_svg0_57_999" filterUnits="objectBoundingBox" color-interpolation-filters="sRGB" x="-6" y="0" width="812.3999633789062" height="176.1699981689453"><feFlood flood-opacity="0" result="BackgroundImageFix"/><feColorMatrix in="SourceAlpha" type="matrix" values="0 0 0 0 0 0 0 0 0 0 0 0 0 0 0 0 0 0 127 0"/><feOffset dy="7" dx="0"/><feGaussianBlur stdDeviation="1.5"/><feColorMatrix type="matrix" values="0 0 0 0 0 0 0 0 0 0 0 0 0 0 0 0 0 0 0.30000001192092896 0"/><feBlend mode="normal" in2="BackgroundImageFix" result="effect1_dropShadow"/><feBlend mode="normal" in="SourceGraphic" in2="effect1_dropShadow" result="shape"/><feColorMatrix in="SourceAlpha" type="matrix" result="hardAlpha" values="0 0 0 0 0 0 0 0 0 0 0 0 0 0 0 0 0 0 127 0"/><feOffset dy="-5" dx="0"/><feGaussianBlur stdDeviation="0"/><feComposite in2="hardAlpha" operator="arithmetic" k2="-1" k3="1"/><feColorMatrix type="matrix" values="0 0 0 0 0 0 0 0 0 0 0 0 0 0 0 0 0 0 0.30000001192092896 0"/><feBlend mode="normal" in2="shape" result="effect2_innerShadow"/></filter><linearGradient x1="0.5" y1="0.1032547578215599" x2="0.5" y2="0.9085297584533691" id="master_svg1_57_0692"><stop offset="0%" stop-color="#FFEEAA" stop-opacity="1"/><stop offset="100%" stop-color="#7A7458" stop-opacity="1"/></linearGradient></defs><g><g filter="url(#master_svg0_57_999)"><path d="M40.44,159.93Q20.1,156.18,12.3,143.265Q4.5,130.35,4.5,108.45Q4.5,103.2,4.8899989999999995,96.81Q5.28,90.42,5.91,83.55Q6.54,76.68,7.395,69.945Q8.25,63.21,9.195,57.3Q10.14,51.39,11.01,47.01Q14.94,28.38,23.22,17.865Q31.5,7.34999,45.15,7.34999Q54.51,7.34999,59.01,10.95Q63.51,14.55,64.905,20.97Q66.3,27.39,66.3,35.97Q66.3,39.18,66.225,42.855Q66.15,46.53,66.09,50.46Q66.03,54.39,65.985,58.47Q65.94,62.55,65.97,66.51Q66,70.47,66.10499999999999,74.28Q66.21000000000001,78.09,66.47999999999999,81.51Q66.93,87.63,68.03999999999999,92.04Q69.15,96.45,71.445,99.315Q73.74,102.18,77.595,103.62Q81.45,105.06,87.3,105.33Q97.35,106.23,106.17,107.355Q114.99,108.48,120.48,109.53Q124.98,109.77,129.18,110.73Q133.38,111.69,135.96,113.49Q138.48,115.38,139.74,118.35Q141,121.32,141,126.24Q141,134.64,136.65,140.535Q132.3,146.43,125.25,150.345Q118.2,154.26,109.92,156.72Q102.24,158.94,91.335,160.275Q80.43,161.61,69.48,161.61Q64.35,161.61,59.055,161.505Q53.76,161.4,48.975,160.995Q44.19,160.59,40.44,159.93ZM180.6,157.71Q170.28,157.71,164.61,154.065Q158.94,150.42,156.75,143.31Q154.56,136.2,154.56,125.94Q154.56,122.16,154.755,117.75Q154.95,113.34,155.265,108.705Q155.58,104.07,156.09,99.45Q156.6,94.83,157.23,90.525Q157.86,86.22,158.61,82.53Q159.36,78.84,160.26,76.17Q164.46,65.64,172.68,60.135Q180.9,54.63,193.8,54.63Q205.83,54.63,211.5,63.21Q217.17,71.79,217.17,86.58Q217.17,90.9,216.9,96.09Q216.63,101.28,216.09,106.74Q215.55,112.2,214.785,117.66Q214.02,123.12,212.925,128.025Q211.83,132.93,210.585,136.995Q209.34,141.06,207.75,143.73Q203.49,150.81,196.785,154.26Q190.08,157.71,180.6,157.71ZM190.86,42.18Q175.89,42.18,169.47,37.275Q163.05,32.37,163.05,25.98Q163.05,17.7,168.99,11.895Q174.93,6.09,183.84,3.045Q192.75,0,201.78,0Q208.44,0,214.08,2.08499Q219.72,4.17,223.17,8.61Q226.62,13.05,226.62,20.19Q226.62,28.26,221.67,33.075Q216.72,37.89,208.56,40.035Q200.4,42.18,190.86,42.18ZM300.33,157.89Q290.88,157.89,282.6,157.23Q274.32,156.57,267.48,155.25Q260.64,153.93,255.36,151.92Q248.55,149.34,244.155,145.755Q239.76,142.17,239.76,135.12Q239.76,127.35,244.17,122.79Q248.58,118.23,257.15999999999997,118.23Q261.99,118.23,267.315,119.43Q272.64,120.63,278.985,121.845Q285.33,123.06,292.98,123.06Q298.53,123.06,303.015,122.385Q307.5,121.71,310.155,119.91Q312.81,118.11,312.81,114.9Q312.81,111.75,310.86,109.845Q308.91,107.94,303.525,106.395Q298.14,104.85,287.82,103.05Q274.17,100.65,264.45,96.15Q254.73,91.65,249.54,84.555Q244.35,77.46,244.35,67.35Q244.35,58.14,249.675,51.645Q255,45.15,264.18,41.07Q273.36,36.99,284.88,35.055Q296.4,33.12,308.82,33.12Q317.1,33.12,325.68,34.11Q334.26,35.1,341.535,37.23Q348.81,39.36,353.25,42.78Q357.69,46.2,357.69,51.15Q357.69,57.45,354.75,61.26Q351.81,65.07,347.31,66.705Q342.81,68.34,338.01,68.34Q331.53,68.34,325.095,67.08Q318.66,65.82,313.68,65.82Q309.78,65.82,306.675,66.525Q303.57,67.23,301.83,68.73Q300.09,70.23,300.09,72.72Q300.09,76.47,305.475,78.555Q310.86,80.64,322.98,82.86Q334.74,84.9,343.725,89.175Q352.71,93.45,357.81,100.68Q362.91,107.91,362.91,118.89Q362.91,128.85,358.245,136.155Q353.58,143.46,345.18,148.29Q336.78,153.12,325.365,155.505Q313.95,157.89,300.33,157.89ZM448.29,156.12Q438.06,156.12,428.955,153.39Q419.85,150.66,414.075,144.33Q408.3,138,407.97,127.29Q407.82,124.44,407.76,121.155Q407.7,117.87,407.655,114.36Q407.61,110.85,407.595,107.295Q407.58,103.74,407.595,100.2Q407.61,96.66,407.58,93.39Q407.55,88.08,404.82,86.505Q402.09,84.93,397.62,84.51Q395.19,84.27,392.37,84.06Q389.55,83.85,386.595,83.55Q383.64,83.25,380.58,82.95Q374.34,82.17,370.68,77.67Q367.02,73.17,367.02,65.07Q367.02,59.4,369.165,56.385Q371.31,53.37,374.955,51.885Q378.6,50.4,382.86,49.5Q388.14,48.63,392.25,47.835Q396.36,47.04,399.66,46.38Q403.05,45.69,405.12,44.085Q407.19,42.48,407.7,38.52Q408.12,35.82,408.48,33.045Q408.84,30.27,409.305,27.645Q409.77,25.02,410.37,22.98Q412.71,15.99,416.79,13.005Q420.87,10.02,429.54,10.02Q436.38,10.02,440.415,11.625Q444.45,13.23,446.67,16.65Q448.89,20.07,450.24,25.71Q450.78,28.56,451.14,30.75Q451.5,32.94,451.77,34.875Q452.04,36.81,452.325,38.67Q452.61,40.53,452.91,42.72Q453.42,46.35,455.925,48.24Q458.43,50.13,462.06,50.73Q465.15,51.21,468.045,51.63Q470.94,52.05,473.73,52.365Q476.52,52.68,479.22,53.13Q485.31,53.97,490.32,57.345Q495.33,60.72,495.33,68.79Q495.33,75.81,491.235,80.19Q487.14,84.57,480.93,85.2Q475.53,85.56,470.475,85.815Q465.42,86.07,462.24,86.43Q459.69,86.7,457.515,88.17Q455.34,89.64,454.89,94.2Q454.8,96.75,454.71,99.39Q454.62,102.03,454.65,104.67Q454.68,107.31,454.695,109.86Q454.71,112.41,454.86,114.765Q455.01,117.12,455.19,119.25Q455.58,123.66,457.62,125.685Q459.66,127.71,464.82,127.71Q468.57,127.71,471.15,126.24Q473.73,124.77,476.04,123.345Q478.35,121.92,481.26,121.92Q486.09,121.92,488.145,124.47Q490.2,127.02,490.2,131.94Q490.2,137.61,486.375,142.065Q482.55,146.52,476.385,149.655Q470.22,152.79,462.855,154.455Q455.49,156.12,448.29,156.12ZM575.67,163.17Q554.76,163.17,538.95,156.72Q523.14,150.27,514.365,137.025Q505.59,123.78,505.59,103.53Q505.59,86.82,511.335,74.16Q517.08,61.5,527.205,52.905Q537.33,44.31,550.62,39.945Q563.91,35.58,578.97,35.58Q589.2,35.58,599.025,37.365Q608.85,39.15,616.815,43.2Q624.78,47.25,629.49,53.925Q634.2,60.6,634.2,70.29Q634.2,78.18,631.44,83.595Q628.68,89.01,623.835,92.55Q618.99,96.09,612.705,98.325Q606.42,100.56,599.37,102.18Q594.27,103.8,586.71,105.18Q579.15,106.56,571.635,107.385Q564.12,108.21,559.05,108.21Q555.39,108.21,553.92,109.065Q552.45,109.92,552.45,112.17Q552.45,114.06,553.44,116.265Q554.43,118.47,556.32,120.33Q559.41,123.66,563.715,124.785Q568.02,125.91,574.11,125.91Q581.64,125.91,589.53,123.6Q597.42,121.29,605.445,118.995Q613.47,116.7,621.57,116.7Q629.91,116.7,634.905,119.775Q639.9,122.85,639.9,131.91Q639.9,139.65,634.65,145.53Q629.4,151.41,620.385,155.325Q611.37,159.24,599.805,161.205Q588.24,163.17,575.67,163.17ZM568.92,88.17Q574.47,88.17,580.02,86.745Q585.57,85.32,589.305,82.185Q593.04,79.05,593.04,74.01Q593.04,67.8,588.375,65.37Q583.71,62.94,576.66,62.94Q572.28,62.94,568.035,64.44Q563.79,65.94,560.385,68.58Q556.98,71.22,554.94,74.625Q552.9,78.03,552.9,81.87Q552.9,84.66,554.655,86.01Q556.41,87.36,559.995,87.765Q563.58,88.17,568.92,88.17ZM675.87,155.79Q666.84,155.79,660.99,152.4Q655.14,149.01,652.26,141.27Q651.45,138.6,651,135.285Q650.55,131.97,650.385,127.935Q650.22,123.9,650.4,119.25Q650.97,94.53,660.705,77.115Q670.44,59.7,687.615,50.49Q704.79,41.28,727.35,41.28Q750.15,41.28,767.625,50.22Q785.1,59.16,795,76.5Q804.9,93.84,804.9,118.95Q804.9,123.03,804.54,126.645Q804.18,130.26,803.49,133.41Q802.8,136.56,801.75,139.32Q798.57,147.42,792.48,151.605Q786.39,155.79,777.9,155.79Q768,155.79,762.57,153.105Q757.14,150.42,754.755,145.32Q752.37,140.22,751.38,133.08Q750.75,126.33,750.15,120.945Q749.55,115.56,748.83,111.285Q748.11,107.01,747.36,103.485Q746.61,99.96,745.65,96.81Q743.4,89.28,739.485,85.755Q735.57,82.23,728.64,82.23Q722.31,82.23,718.095,85.95Q713.88,89.67,711.06,96.96Q709.77,100.29,708.72,104.25Q707.67,108.21,706.815,112.92Q705.96,117.63,705.255,123.135Q704.55,128.64,703.77,135.06Q702.75,143.28,698.73,147.78Q694.71,152.28,688.815,154.035Q682.92,155.79,675.87,155.79Z" fill="url(#master_svg1_57_0692)" fill-opacity="1"/></g></g></svg>