<svg xmlns="http://www.w3.org/2000/svg" xmlns:xlink="http://www.w3.org/1999/xlink" fill="none" version="1.1" width="600" height="500" viewBox="0 0 600 500"><defs><filter id="master_svg0_76_396" filterUnits="objectBoundingBox" color-interpolation-filters="sRGB" x="-6" y="0" width="127" height="135.43352508544922"><feFlood flood-opacity="0" result="BackgroundImageFix"/><feColorMatrix in="SourceAlpha" type="matrix" values="0 0 0 0 0 0 0 0 0 0 0 0 0 0 0 0 0 0 127 0"/><feOffset dy="7" dx="0"/><feGaussianBlur stdDeviation="1.5"/><feColorMatrix type="matrix" values="0 0 0 0 0 0 0 0 0 0 0 0 0 0 0 0 0 0 0.30000001192092896 0"/><feBlend mode="normal" in2="BackgroundImageFix" result="effect1_dropShadow"/><feBlend mode="normal" in="SourceGraphic" in2="effect1_dropShadow" result="shape"/><feColorMatrix in="SourceAlpha" type="matrix" result="hardAlpha" values="0 0 0 0 0 0 0 0 0 0 0 0 0 0 0 0 0 0 127 0"/><feOffset dy="-3" dx="0"/><feGaussianBlur stdDeviation="0"/><feComposite in2="hardAlpha" operator="arithmetic" k2="-1" k3="1"/><feColorMatrix type="matrix" values="0 0 0 0 0 0 0 0 0 0 0 0 0 0 0 0 0 0 0.30000001192092896 0"/><feBlend mode="normal" in2="shape" result="effect2_innerShadow"/></filter><linearGradient x1="0.5" y1="0.1032547578215599" x2="0.5" y2="0.9085297584533691" id="master_svg1_57_590"><stop offset="0%" stop-color="#EEEEEE" stop-opacity="1"/><stop offset="100%" stop-color="#888888" stop-opacity="1"/></linearGradient><filter id="master_svg2_76_395" filterUnits="objectBoundingBox" color-interpolation-filters="sRGB" x="-6" y="0" width="152" height="81.89686584472656"><feFlood flood-opacity="0" result="BackgroundImageFix"/><feColorMatrix in="SourceAlpha" type="matrix" values="0 0 0 0 0 0 0 0 0 0 0 0 0 0 0 0 0 0 127 0"/><feOffset dy="7" dx="0"/><feGaussianBlur stdDeviation="1.5"/><feColorMatrix type="matrix" values="0 0 0 0 0 0 0 0 0 0 0 0 0 0 0 0 0 0 0.30000001192092896 0"/><feBlend mode="normal" in2="BackgroundImageFix" result="effect1_dropShadow"/><feBlend mode="normal" in="SourceGraphic" in2="effect1_dropShadow" result="shape"/><feColorMatrix in="SourceAlpha" type="matrix" result="hardAlpha" values="0 0 0 0 0 0 0 0 0 0 0 0 0 0 0 0 0 0 127 0"/><feOffset dy="-3" dx="0"/><feGaussianBlur stdDeviation="0"/><feComposite in2="hardAlpha" operator="arithmetic" k2="-1" k3="1"/><feColorMatrix type="matrix" values="0 0 0 0 0 0 0 0 0 0 0 0 0 0 0 0 0 0 0.30000001192092896 0"/><feBlend mode="normal" in2="shape" result="effect2_innerShadow"/></filter><linearGradient x1="0.5" y1="0.1032547578215599" x2="0.5" y2="0.9085297584533691" id="master_svg3_57_590"><stop offset="0%" stop-color="#EEEEEE" stop-opacity="1"/><stop offset="100%" stop-color="#888888" stop-opacity="1"/></linearGradient><filter id="master_svg4_76_738" filterUnits="objectBoundingBox" color-interpolation-filters="sRGB" x="-6" y="0" width="272" height="103.13314819335938"><feFlood flood-opacity="0" result="BackgroundImageFix"/><feColorMatrix in="SourceAlpha" type="matrix" values="0 0 0 0 0 0 0 0 0 0 0 0 0 0 0 0 0 0 127 0"/><feOffset dy="7" dx="0"/><feGaussianBlur stdDeviation="1.5"/><feColorMatrix type="matrix" values="0 0 0 0 0 0 0 0 0 0 0 0 0 0 0 0 0 0 0.30000001192092896 0"/><feBlend mode="normal" in2="BackgroundImageFix" result="effect1_dropShadow"/><feBlend mode="normal" in="SourceGraphic" in2="effect1_dropShadow" result="shape"/><feColorMatrix in="SourceAlpha" type="matrix" result="hardAlpha" values="0 0 0 0 0 0 0 0 0 0 0 0 0 0 0 0 0 0 127 0"/><feOffset dy="-3" dx="0"/><feGaussianBlur stdDeviation="0"/><feComposite in2="hardAlpha" operator="arithmetic" k2="-1" k3="1"/><feColorMatrix type="matrix" values="0 0 0 0 0 0 0 0 0 0 0 0 0 0 0 0 0 0 0.30000001192092896 0"/><feBlend mode="normal" in2="shape" result="effect2_innerShadow"/></filter><linearGradient x1="0.5" y1="0.1032547578215599" x2="0.5" y2="0.9085297584533691" id="master_svg5_57_590"><stop offset="0%" stop-color="#EEEEEE" stop-opacity="1"/><stop offset="100%" stop-color="#888888" stop-opacity="1"/></linearGradient></defs><g><g><path d="M193.6007154296875,95.407381640625C186.7264154296875,95.407381640625,179.9977254296875,92.014881640625,176.0118854296875,85.79648164062499C169.7930154296875,76.093081640625,172.6185410296875,63.184781640625,182.3208654296875,56.965181640625C253.6367154296875,11.253881640625,348.5138154296875,11.298381640625,418.4128154296875,57.067581640625C428.05381542968746,63.380981640625,430.7528154296875,76.316481640625,424.43981542968754,85.959481640625C418.12581542968746,95.602481640625,405.19281542968747,98.299881640625,395.5518154296875,91.987681640625C339.17881542968746,55.073781640625,262.5380154296875,55.123181640625,204.8399154296875,92.106281640625C201.4880154296875,94.262581640625,197.5863154296875,95.408581640625,193.6007154296875,95.407381640625Z" fill="#176068" fill-opacity="1"/></g><g><path d="M512.3105830078125,264.8976083984375C499.1145830078125,264.8976083984375,488.4185830078125,254.1996083984375,488.4185830078125,241.0036083984375C488.4185830078125,136.9186083984375,403.7485830078125,52.2388083984375,299.6755830078125,52.2388083984375C195.6025830078125,52.2388083984375,110.9321830078125,136.9186083984375,110.9321830078125,241.0036083984375C110.9321830078125,254.2006083984375,100.2349830078125,264.8976083984375,87.0404830078125,264.8976083984375C73.8460830078125,264.8976083984375,63.1475830078125,254.1996083984375,63.1475830078125,241.0036083984375C63.1475830078125,110.5656083984375,169.2535830078125,4.4486083984375,299.6745830078125,4.4486083984375C430.0955830078125,4.4486083984375,536.2015830078125,110.5666083984375,536.2015830078125,241.0036083984375C536.2015830078125,254.1996083984375,525.5055830078124,264.8976083984375,512.3105830078125,264.8976083984375Z" fill="#B9C5C6" fill-opacity="1"/></g><g><path d="M87.408236875,398.8978017578125C82.884226875,398.8978017578125,79.216796875,395.22980175781254,79.216796875,390.7048017578125L79.216796875,241.2892117578125C79.216796875,236.7646617578125,82.884226875,233.0968017578125,87.408236875,233.0968017578125C91.932196875,233.0968017578125,95.599696875,236.7646617578125,95.599696875,241.2892117578125L95.599696875,390.7048017578125C95.601096875,395.22980175781254,91.933196875,398.8978017578125,87.408236875,398.8978017578125ZM520.8677968750001,390.7048017578125L520.8677968750001,241.2892117578125C520.8677968750001,236.7646617578125,517.2007968749999,233.0968017578125,512.676796875,233.0968017578125C508.152796875,233.0968017578125,504.484796875,236.7646817578125,504.484796875,241.2892117578125L504.484796875,390.7048017578125C504.484796875,395.22980175781254,508.152796875,398.8978017578125,512.676796875,398.8978017578125C517.2007968749999,398.8978017578125,520.8677968750001,395.22980175781254,520.8677968750001,390.7048017578125Z" fill="#96A9B2" fill-opacity="1"/></g><g><path d="M141.0144,278.388427734375C90.74860000000001,278.388427734375,50,319.141727734375,50,369.414527734375C50,419.686427734375,90.74860000000001,460.439427734375,141.0144,460.439427734375L168.03300000000002,460.439427734375L168.03300000000002,278.388427734375L141.0144,278.388427734375ZM458.986,278.388427734375L431.967,278.388427734375L431.967,460.439427734375L458.986,460.439427734375C509.251,460.439427734375,550,419.686427734375,550,369.414527734375C550,319.141727734375,509.251,278.388427734375,458.986,278.388427734375Z" fill="#B9C5C6" fill-opacity="1"/></g><g><path d="M184.29679687499998,277.9587017578125L184.29679687499998,461.0848017578125C184.29679687499998,465.53080175781247,180.693796875,469.13380175781253,176.24879687499998,469.13380175781253L162.535896875,469.13380175781253C158.090996875,469.13380175781253,154.48769687499998,465.53080175781247,154.48769687499998,461.0848017578125L154.48769687499998,277.95990175781253C154.48769687499998,273.5144017578125,158.090996875,269.9107017578125,162.535896875,269.9107017578125L176.24879687499998,269.9107017578125C180.692796875,269.9087017578125,184.29679687499998,273.5125017578125,184.29679687499998,277.9587017578125ZM440.181796875,269.9095017578125L426.468796875,269.9095017578125C422.023796875,269.9095017578125,418.420796875,273.5132017578125,418.420796875,277.9587017578125L418.420796875,461.0848017578125C418.420796875,465.53080175781247,422.023796875,469.13380175781253,426.468796875,469.13380175781253L440.181796875,469.13380175781253C444.626796875,469.13380175781253,448.229796875,465.53080175781247,448.229796875,461.0848017578125L448.229796875,277.95990175781253C448.230796875,273.5140017578125,444.627796875,269.9095017578125,440.181796875,269.9095017578125ZM512.534796875,233.0968017578125C508.089796875,233.0968205953125,504.486796875,236.7005517578125,504.486796875,241.1459917578125C504.486796875,245.5914017578125,508.089796875,249.1952017578125,512.534796875,249.1952017578125C516.9797968749999,249.1952017578125,520.582796875,245.5914017578125,520.582796875,241.1459917578125C520.582796875,236.7005517578125,516.9797968749999,233.0968205953125,512.534796875,233.0968017578125ZM87.265046875,233.0968017578125C82.820116875,233.0968205953125,79.216796875,236.7005517578125,79.216796875,241.1459917578125C79.216796875,245.5914017578125,82.820126875,249.1952017578125,87.265046875,249.1952017578125C91.709996875,249.1952017578125,95.31329687499999,245.5914017578125,95.31329687499999,241.1459917578125C95.31329687499999,236.7005517578125,91.709996875,233.0968205953125,87.265046875,233.0968017578125Z" fill="#176068" fill-opacity="1"/></g><g filter="url(#master_svg0_76_396)"><path d="M301.942467578125,403.645897265625L358.561767578125,403.645897265625L358.561767578125,419.113397265625L301.942467578125,419.113397265625L301.942467578125,403.645897265625ZM329.507067578125,415.358997265625L345.494767578125,415.358997265625L345.494767578125,484.323197265625L329.507067578125,484.323197265625L329.507067578125,415.358997265625ZM342.842967578125,363.127197265625L355.42376757812497,375.721997265625Q347.557767578125,378.808597265625,338.28356757812503,381.422797265625Q329.011067578125,384.036997265625,319.428767578125,386.070997265625Q309.846367578125,388.104997265625,300.703367578125,389.566797265625Q300.272167578125,386.779497265625,298.755767578125,382.972197265625Q297.241367578125,379.162797265625,295.842367578125,376.579097265625Q304.349667578125,374.986997265625,312.992567578125,372.865437265625Q321.637567578125,370.743917265625,329.381567578125,368.247767265625Q337.12756757812497,365.749587265625,342.842967578125,363.127197265625ZM295.842367578125,376.579097265625L312.059267578125,376.579097265625L312.059267578125,412.347797265625Q312.059267578125,420.341197265625,311.42556757812497,429.979597265625Q310.791867578125,439.616097265625,308.941367578125,449.631197265625Q307.092967578125,459.644297265625,303.673467578125,468.91219726562497Q300.253967578125,478.178197265625,294.581067578125,485.56119726562497Q293.210467578125,484.052197265625,290.756667578125,482.006197265625Q288.304867578125,479.961197265625,285.699267578125,478.082197265625Q283.095667578125,476.203197265625,281.263467578125,475.360197265625Q286.30056757812497,468.64519726562503,289.236167578125,460.707097265625Q292.171867578125,452.766697265625,293.58906757812497,444.26229726562497Q295.008267578125,435.755797265625,295.425367578125,427.562897265625Q295.842367578125,419.369997265625,295.842367578125,412.217497265625L295.842367578125,376.579097265625ZM250.356247578125,373.765397265625L284.36306757812497,373.765397265625L284.36306757812497,452.033697265625L250.356247578125,452.033697265625L250.356247578125,436.871497265625L269.055267578125,436.871497265625L269.055267578125,388.825697265625L250.356247578125,388.825697265625L250.356247578125,373.765397265625ZM243.561767578125,373.765397265625L258.466667578125,373.765397265625L258.466667578125,462.547697265625L243.561767578125,462.547697265625L243.561767578125,373.765397265625Z" fill="url(#master_svg1_57_590)" fill-opacity="1"/></g><g filter="url(#master_svg2_76_395)"><path d="M253.3835091796875,331.305327734375Q245.9214091796875,331.305327734375,242.1498091796875,327.609827734375Q238.3793591796875,323.913227734375,238.3793591796875,316.475527734375L238.3793591796875,300.971827734375L231.1444091796875,300.971827734375L231.1444091796875,292.572227734375L238.3793591796875,292.572227734375L238.3793591796875,283.238837734375L249.75190917968752,280.467847734375L249.75190917968752,292.572227734375L259.5182091796875,292.572227734375L259.5182091796875,300.971827734375L249.75190917968752,300.971827734375L249.75190917968752,315.923227734375Q249.75190917968752,319.512127734375,251.2464091796875,320.850827734375Q252.7410091796875,322.188327734375,255.1169091796875,322.188327734375Q256.5008091796875,322.188327734375,257.4705091796875,321.987127734375Q258.4402091796875,321.785827734375,259.4664091796875,321.411427734375L259.4664091796875,330.210027734375Q258.0213091796875,330.804427734375,256.4291091796875,331.054827734375Q254.8380091796875,331.305327734375,253.3835091796875,331.305327734375ZM265.3127091796875,330.509527734375L265.3127091796875,292.572227734375L276.6853091796875,292.572227734375L276.6853091796875,330.509527734375L265.3127091796875,330.509527734375ZM258.7556091796875,284.775287734375L258.7556091796875,278.388427734375L283.3577091796875,278.388427734375L283.3577091796875,284.775287734375L258.7556091796875,284.775287734375ZM285.9490091796875,330.509527734375L285.9490091796875,302.454427734375Q285.9490091796875,300.014627734375,285.7984091796875,297.512727734375Q285.6477091796875,295.010927734375,285.3465091796875,292.572227734375L296.3236091796875,292.572227734375L297.1003091796875,299.615527734375L296.2201091796875,299.615527734375Q298.0747091796875,295.856927734375,301.5674091796875,293.817327734375Q305.0602091796875,291.776527734375,309.5873091796875,291.776527734375Q316.3151091796875,291.776527734375,319.6795091796875,295.626427734375Q323.0452091796875,299.476327734375,323.0452091796875,307.602027734375L323.0452091796875,330.509527734375L311.6738091796875,330.509527734375L311.6738091796875,308.099327734375Q311.6738091796875,303.999027734375,310.1392091796875,302.261327734375Q308.6047091796875,300.522427734375,305.6321091796875,300.522427734375Q301.8299091796875,300.522427734375,299.5751091796875,302.902627734375Q297.32160917968747,305.281527734375,297.32160917968747,309.235627734375L297.32160917968747,330.509527734375L285.9490091796875,330.509527734375ZM350.2834091796875,347.285327734375Q344.7994091796875,347.285327734375,340.4974091796875,346.208727734375Q336.1944091796875,345.132127734375,332.8094091796875,342.950927734375L335.00840917968753,334.874327734375Q337.0984091796875,336.180227734375,339.4804091796875,337.042727734375Q341.8624091796875,337.906327734375,344.3944091796875,338.34392773437503Q346.9274091796875,338.781527734375,349.3704091796875,338.781527734375Q354.4524091796875,338.781527734375,356.9214091796875,336.385027734375Q359.3904091796875,333.989627734375,359.3904091796875,329.548827734375L359.3904091796875,321.659427734375L360.1204091796875,321.659427734375Q358.9154091796875,325.273027734375,355.3214091796875,327.430827734375Q351.72740917968747,329.587427734375,347.1944091796875,329.587427734375Q342.0964091796875,329.587427734375,338.2814091796875,327.291527734375Q334.4664091796875,324.995627734375,332.3454091796875,320.726827734375Q330.2248091796875,316.458027734375,330.2248091796875,310.667927734375Q330.2248091796875,304.877827734375,332.3454091796875,300.623027734375Q334.4664091796875,296.368327734375,338.2814091796875,294.072427734375Q342.0964091796875,291.776527734375,347.1944091796875,291.776527734375Q351.8264091796875,291.776527734375,355.3214091796875,293.908527734375Q358.8164091796875,296.039427734375,360.0214091796875,299.60502773437497L359.3904091796875,299.297227734375L360.1674091796875,292.572227734375L371.1444091796875,292.572227734375Q370.8434091796875,295.010927734375,370.6924091796875,297.512727734375Q370.5414091796875,300.014627734375,370.5414091796875,302.454427734375L370.5414091796875,328.237027734375Q370.5414091796875,337.478027734375,365.3654091796875,342.381027734375Q360.1884091796875,347.285327734375,350.2834091796875,347.285327734375ZM350.5574091796875,321.060327734375Q354.5574091796875,321.060327734375,356.91240917968753,318.379427734375Q359.2684091796875,315.698527734375,359.2684091796875,310.667927734375Q359.2684091796875,305.613927734375,356.91240917968753,302.958727734375Q354.5574091796875,300.302427734375,350.5574091796875,300.302427734375Q346.48240917968747,300.302427734375,344.0884091796875,302.958727734375Q341.6964091796875,305.613927734375,341.6964091796875,310.667927734375Q341.6964091796875,315.698527734375,344.0884091796875,318.379427734375Q346.48240917968747,321.060327734375,350.5574091796875,321.060327734375Z" fill="url(#master_svg3_57_590)" fill-opacity="1"/></g><g filter="url(#master_svg4_76_738)"><path d="M287.42,137.6854C287.42,137.6298,287.419,137.5741,287.419,137.5185C287.419,130.60472,293.052,125,300,125C306.948,125,312.581,130.60472,312.581,137.5185C312.581,137.5741,312.58000000000004,137.6298,312.58000000000004,137.6854L312.581,137.6854L312.581,178.41219999999998L312.584,178.41219999999998C312.582,178.4678,312.581,178.5235,312.581,178.57909999999998C312.581,180.8837,314.45799999999997,182.752,316.774,182.752C319.09000000000003,182.752,320.96799999999996,180.8837,320.96799999999996,178.57909999999998C320.96799999999996,178.5235,320.967,178.4678,320.964,178.41219999999998L320.96799999999996,178.41219999999998L320.96799999999996,147.7002L320.969,147.7002C320.96799999999996,147.6446,320.96799999999996,147.5889,320.96799999999996,147.5333C320.96799999999996,140.6195,326.6,135.0148,333.548,135.0148C340.496,135.0148,346.129,140.6195,346.129,147.5333C346.129,147.5889,346.129,147.6446,346.128,147.7002L346.126,147.7002C346.128,147.7558,346.129,147.8115,346.129,147.8671C346.129,150.1717,344.252,152.0399,341.93600000000004,152.0399C339.619,152.0399,337.74199999999996,150.1717,337.74199999999996,147.8671C337.74199999999996,147.8115,337.743,147.7558,337.745,147.7002L337.73900000000003,147.7002C337.741,147.6446,337.74199999999996,147.5889,337.74199999999996,147.5333C337.74199999999996,145.2287,335.86400000000003,143.3605,333.548,143.3605C331.23199999999997,143.3605,329.355,145.2287,329.355,147.5333C329.355,147.5889,329.356,147.6446,329.358,147.7002L329.355,147.7002L329.355,203.1154L329.351,203.1154C329.35400000000004,203.171,329.355,203.2267,329.355,203.28230000000002C329.355,205.5869,327.477,207.45510000000002,325.161,207.45510000000002C322.845,207.45510000000002,320.96799999999996,205.5869,320.96799999999996,203.28230000000002C320.96799999999996,203.2267,320.969,203.171,320.971,203.1154L320.96799999999996,203.1154L320.96799999999996,191.7653L320.964,191.7653C320.874,189.5274,319.025,187.7594,316.774,187.7594C314.523,187.7594,312.674,189.5274,312.584,191.7653L312.581,191.7653L312.581,202.7816L312.58000000000004,202.7816C312.488,209.62959999999998,306.88300000000004,215.1331,300,215.1331C293.117,215.1331,287.512,209.62959999999998,287.42,202.7816L287.419,202.7816L287.419,168.3974L287.416,168.3974C287.326,166.1596,285.477,164.3915,283.226,164.3915C280.975,164.3915,279.126,166.1596,279.036,168.3974L279.032,168.3974L279.032,192.7668L279.031,192.7668C278.93899999999996,199.6148,273.334,205.1183,266.4516,205.1183C259.5689,205.1183,253.9638,199.6148,253.8721,192.7668L253.87099999999998,192.7668L253.87099999999998,190.7638L253.86759999999998,190.7638C253.7776,188.5259,251.9282,186.7579,249.6774,186.7579C247.42669999999998,186.7579,245.57729999999998,188.5259,245.4872,190.7638L245.4839,190.7638L245.4839,194.1021L245.4805,194.1021C245.3905,196.3399,243.5411,198.108,241.2903,198.108C239.0396,198.108,237.1902,196.3399,237.1001,194.1021L237.0968,194.1021L237.0968,157.715L237.0934,157.715C237.0957,157.6594,237.0968,157.6037,237.0968,157.5481C237.0968,155.2435,235.2193,153.3753,232.9032,153.3753C230.5872,153.3753,228.7097,155.2435,228.7097,157.5481C228.7097,157.6037,228.7108,157.6594,228.713,157.715L228.7097,157.715L228.7097,189.76229999999998L228.6794,189.76229999999998C228.4248,191.858,226.6375,193.43439999999998,224.5161,193.43439999999998C222.3947,193.43439999999998,220.60750000000002,191.858,220.3529,189.76229999999998L220.3226,189.76229999999998L220.3226,162.3886L220.3192,162.3886C220.32150000000001,162.333,220.3226,162.2773,220.3226,162.2217C220.3226,159.9171,218.4451,158.0488,216.129,158.0488C213.813,158.0488,211.9355,159.9171,211.9355,162.2217C211.9355,162.2773,211.9366,162.333,211.93880000000001,162.3886L211.9355,162.3886L211.9355,184.4211L211.9321,184.4211C211.84210000000002,186.659,209.9927,188.427,207.7419,188.427C205.4912,188.427,203.6418,186.659,203.55169999999998,184.4211L203.54840000000002,184.4211L203.54840000000002,177.4108L203.54500000000002,177.4108C203.45499999999998,175.1729,201.6056,173.4048,199.3548,173.4048C197.1041,173.4048,195.2547,175.1729,195.1646,177.4108L195.1613,177.4108L195.1613,179.0799L195.1579,179.0799C195.0679,181.3178,193.2185,183.0858,190.9677,183.0858C188.71699999999998,183.0858,186.8676,181.3178,186.7776,179.0799L186.7742,179.0799L186.7742,161.3871L186.7776,161.3871C186.77530000000002,161.3315,186.7742,161.2758,186.7742,161.2202C186.7742,158.91559999999998,188.6517,157.0473,190.9677,157.0473C193.28379999999999,157.0473,195.1613,158.91559999999998,195.1613,161.2202C195.1613,161.2758,195.1602,161.3315,195.1579,161.3871L195.1613,161.3871L195.1613,164.0577L195.1646,164.0577C195.1624,164.1133,195.1613,164.16899999999998,195.1613,164.2246C195.1613,166.5292,197.0388,168.3974,199.3548,168.3974C201.6709,168.3974,203.54840000000002,166.5292,203.54840000000002,164.2246C203.54840000000002,164.16899999999998,203.5473,164.1133,203.54500000000002,164.0577L203.54840000000002,164.0577L203.54840000000002,162.3886L203.5495,162.3886C203.5488,162.3329,203.54840000000002,162.2773,203.54840000000002,162.2217C203.54840000000002,155.3079,209.1809,149.7032,216.129,149.7032C218.2769,149.7032,220.299,150.2387,222.0679,151.183C224.2578,147.4997,228.29070000000002,145.0296,232.9032,145.0296C239.85129999999998,145.0296,245.4839,150.6343,245.4839,157.5481C245.4839,157.6037,245.4835,157.6594,245.4828,157.715L245.4839,157.715L245.4839,177.4108L245.4872,177.4108C245.485,177.4664,245.4839,177.522,245.4839,177.5777C245.4839,179.8823,247.3614,181.7505,249.6774,181.7505C251.99349999999998,181.7505,253.87099999999998,179.8823,253.87099999999998,177.5777C253.87099999999998,177.522,253.8699,177.4664,253.86759999999998,177.4108L253.87099999999998,177.4108L253.87099999999998,147.7002L253.8721,147.7002C253.87130000000002,147.6446,253.87099999999998,147.5889,253.87099999999998,147.5333C253.87099999999998,140.6195,259.50350000000003,135.0148,266.4516,135.0148C273.4,135.0148,279.032,140.6195,279.032,147.5333C279.032,147.5889,279.032,147.6446,279.031,147.7002L279.032,147.7002L279.032,155.0444L279.036,155.0444C279.033,155.1,279.032,155.1556,279.032,155.2113C279.032,157.5159,280.90999999999997,159.3841,283.226,159.3841C285.54200000000003,159.3841,287.419,157.5159,287.419,155.2113C287.419,155.1556,287.418,155.1,287.416,155.0444L287.419,155.0444L287.419,137.6854L287.42,137.6854ZM295.806,155.0444L295.806,202.7816L295.81,202.7816C295.9,205.01940000000002,297.749,206.7875,300,206.7875C302.251,206.7875,304.1,205.01940000000002,304.19,202.7816L304.19399999999996,202.7816L304.19399999999996,137.6854L304.19,137.6854C304.192,137.6298,304.19399999999996,137.5741,304.19399999999996,137.5185C304.19399999999996,135.2139,302.31600000000003,133.34566,300,133.34566C297.68399999999997,133.34566,295.806,135.2139,295.806,137.5185C295.806,137.5741,295.808,137.6298,295.81,137.6854L295.806,137.6854L295.806,155.0444ZM270.645,155.0444L270.645,147.7002L270.642,147.7002C270.644,147.6446,270.645,147.5889,270.645,147.5333C270.645,145.2287,268.7677,143.3605,266.4516,143.3605C264.1356,143.3605,262.2581,145.2287,262.2581,147.5333C262.2581,147.5889,262.2592,147.6446,262.2614,147.7002L262.2581,147.7002L262.2581,192.7668L262.2614,192.7668C262.3515,195.00459999999998,264.2008,196.7727,266.4516,196.7727C268.7024,196.7727,270.552,195.00459999999998,270.642,192.7668L270.645,192.7668L270.645,155.0444ZM354.51599999999996,157.5481C354.51599999999996,157.6037,354.51599999999996,157.6594,354.517,157.715L354.51599999999996,157.715L354.51599999999996,170.0666L354.51300000000003,170.0666C354.515,170.1222,354.51599999999996,170.1778,354.51599999999996,170.2335C354.51599999999996,172.5381,352.639,174.4063,350.323,174.4063C348.007,174.4063,346.129,172.5381,346.129,170.2335C346.129,170.1778,346.13,170.1222,346.132,170.0666L346.129,170.0666L346.129,169.7327L346.126,169.7327C346.128,169.6771,346.129,169.6215,346.129,169.5658C346.129,167.2612,344.252,165.393,341.93600000000004,165.393C339.619,165.393,337.74199999999996,167.2612,337.74199999999996,169.5658C337.74199999999996,169.6215,337.743,169.6771,337.745,169.7327L337.74199999999996,169.7327L337.74199999999996,183.7535L337.745,183.7535C337.83500000000004,185.9913,339.685,187.7594,341.93600000000004,187.7594C344.18600000000004,187.7594,346.036,185.9913,346.126,183.7535L346.129,183.7535L346.129,183.4196L346.132,183.4196C346.222,181.1818,348.072,179.4137,350.323,179.4137C352.573,179.4137,354.423,181.1818,354.51300000000003,183.4196L354.544,183.4196C354.977,189.9543,360.43899999999996,195.1036,367.097,195.1036C373.97900000000004,195.1036,379.58500000000004,189.6001,379.676,182.752L379.677,182.752L379.677,178.41219999999998L371.28999999999996,178.41219999999998L371.28999999999996,182.752L371.28700000000003,182.752C371.197,184.9898,369.348,186.7579,367.097,186.7579C364.846,186.7579,362.997,184.9898,362.90700000000004,182.752L362.903,182.752L362.903,170.0666L375.652,170.0666L375.652,170.0633C377.834,169.9779,379.58799999999997,168.23250000000002,379.674,166.0607L379.677,166.0607L379.677,157.715L379.676,157.715C379.677,157.6594,379.677,157.6037,379.677,157.5481C379.677,150.6343,374.04499999999996,145.0296,367.097,145.0296C360.149,145.0296,354.51599999999996,150.6343,354.51599999999996,157.5481ZM396.452,156.21280000000002C396.452,156.26839999999999,396.451,156.3241,396.448,156.3797L396.452,156.3797L396.452,162.0547L396.45500000000004,162.0547C396.453,162.1103,396.452,162.166,396.452,162.2217C396.452,164.52620000000002,398.329,166.3945,400.645,166.3945C402.961,166.3945,404.839,164.52620000000002,404.839,162.2217C404.839,162.166,404.83799999999997,162.1103,404.83500000000004,162.0547L404.839,162.0547L404.839,161.0533L404.842,161.0533C404.932,158.8154,406.781,157.0473,409.03200000000004,157.0473C411.283,157.0473,413.132,158.8154,413.222,161.0533L413.226,161.0533L413.226,179.0799L413.222,179.0799C413.132,181.3178,411.283,183.0858,409.03200000000004,183.0858C406.781,183.0858,404.932,181.3178,404.842,179.0799L404.839,179.0799L404.839,175.4078L404.83500000000004,175.4078C404.745,173.16989999999998,402.89599999999996,171.4019,400.645,171.4019C398.394,171.4019,396.54499999999996,173.16989999999998,396.45500000000004,175.4078L396.452,175.4078L396.452,183.7535L396.448,183.7535C396.358,185.9913,394.509,187.7594,392.25800000000004,187.7594C390.007,187.7594,388.158,185.9913,388.068,183.7535L388.065,183.7535L388.065,156.3797L388.068,156.3797C388.06600000000003,156.3241,388.065,156.26839999999999,388.065,156.21280000000002C388.065,153.9082,389.942,152.0399,392.25800000000004,152.0399C394.574,152.0399,396.452,153.9082,396.452,156.21280000000002ZM371.28999999999996,163.39L371.28999999999996,157.715L371.28700000000003,157.715C371.289,157.6594,371.28999999999996,157.6037,371.28999999999996,157.5481C371.28999999999996,155.2435,369.413,153.3753,367.097,153.3753C364.781,153.3753,362.903,155.2435,362.903,157.5481C362.903,157.6037,362.904,157.6594,362.90700000000004,157.715L362.903,157.715L362.903,163.39L371.28999999999996,163.39ZM178.3871,165.8937C178.3871,165.9494,178.38598,166.005,178.38374,166.0607L178.3871,166.0607L178.3871,174.4063L178.38374,174.4063C178.29371,176.6442,176.44432,178.41219999999998,174.19355,178.41219999999998C171.94277,178.41219999999998,170.0933872,176.6442,170.00335618,174.4063L170,174.4063L170,166.0607L170.00335618,166.0607C170.00111895,166.005,170,165.9494,170,165.8937C170,163.5891,171.87752,161.7209,174.19355,161.7209C176.50958,161.7209,178.3871,163.5891,178.3871,165.8937ZM430,165.8937C430,165.9494,429.999,166.005,429.997,166.0607L430,166.0607L430,174.4063L429.997,174.4063C429.907,176.6442,428.057,178.41219999999998,425.80600000000004,178.41219999999998C423.55600000000004,178.41219999999998,421.706,176.6442,421.616,174.4063L421.613,174.4063L421.613,166.0607L421.616,166.0607C421.61400000000003,166.005,421.613,165.9494,421.613,165.8937C421.613,163.5891,423.49,161.7209,425.80600000000004,161.7209C428.122,161.7209,430,163.5891,430,165.8937Z" fill-rule="evenodd" fill="url(#master_svg5_57_590)" fill-opacity="1"/></g></g></svg>