<svg xmlns="http://www.w3.org/2000/svg" xmlns:xlink="http://www.w3.org/1999/xlink" fill="none" version="1.1" width="674" height="593" viewBox="0 0 674 593"><defs><filter id="master_svg0_55_8929" filterUnits="objectBoundingBox" color-interpolation-filters="sRGB" x="-16" y="-13" width="622" height="182"><feFlood flood-opacity="0" result="BackgroundImageFix"/><feColorMatrix in="SourceAlpha" type="matrix" values="0 0 0 0 0 0 0 0 0 0 0 0 0 0 0 0 0 0 127 0"/><feOffset dy="3" dx="0"/><feGaussianBlur stdDeviation="4"/><feColorMatrix type="matrix" values="0 0 0 0 0 0 0 0 0 0 0 0 0 0 0 0 0 0 0.4000000059604645 0"/><feBlend mode="normal" in2="BackgroundImageFix" result="effect1_dropShadow"/><feBlend mode="normal" in="SourceGraphic" in2="effect1_dropShadow" result="shape"/><feColorMatrix in="SourceAlpha" type="matrix" result="hardAlpha" values="0 0 0 0 0 0 0 0 0 0 0 0 0 0 0 0 0 0 127 0"/><feOffset dy="5" dx="0"/><feGaussianBlur stdDeviation="1"/><feComposite in2="hardAlpha" operator="arithmetic" k2="-1" k3="1"/><feColorMatrix type="matrix" values="0 0 0 0 1 0 0 0 0 1 0 0 0 0 1 0 0 0 0.4000000059604645 0"/><feBlend mode="normal" in2="shape" result="effect2_innerShadow"/><feColorMatrix in="SourceAlpha" type="matrix" result="hardAlpha" values="0 0 0 0 0 0 0 0 0 0 0 0 0 0 0 0 0 0 127 0"/><feOffset dy="-5" dx="0"/><feGaussianBlur stdDeviation="1"/><feComposite in2="hardAlpha" operator="arithmetic" k2="-1" k3="1"/><feColorMatrix type="matrix" values="0 0 0 0 0 0 0 0 0 0 0 0 0 0 0 0 0 0 0.4000000059604645 0"/><feBlend mode="normal" in2="effect2_innerShadow" result="effect3_innerShadow"/></filter><filter id="master_svg1_55_8930" filterUnits="objectBoundingBox" color-interpolation-filters="sRGB" x="-16" y="-11" width="682" height="423"><feFlood flood-opacity="0" result="BackgroundImageFix"/><feColorMatrix in="SourceAlpha" type="matrix" values="0 0 0 0 0 0 0 0 0 0 0 0 0 0 0 0 0 0 127 0"/><feOffset dy="5" dx="0"/><feGaussianBlur stdDeviation="4"/><feColorMatrix type="matrix" values="0 0 0 0 0 0 0 0 0 0 0 0 0 0 0 0 0 0 0.4000000059604645 0"/><feBlend mode="normal" in2="BackgroundImageFix" result="effect1_dropShadow"/><feBlend mode="normal" in="SourceGraphic" in2="effect1_dropShadow" result="shape"/><feColorMatrix in="SourceAlpha" type="matrix" result="hardAlpha" values="0 0 0 0 0 0 0 0 0 0 0 0 0 0 0 0 0 0 127 0"/><feOffset dy="10" dx="0"/><feGaussianBlur stdDeviation="1"/><feComposite in2="hardAlpha" operator="arithmetic" k2="-1" k3="1"/><feColorMatrix type="matrix" values="0 0 0 0 1 0 0 0 0 1 0 0 0 0 1 0 0 0 0.4000000059604645 0"/><feBlend mode="normal" in2="shape" result="effect2_innerShadow"/><feColorMatrix in="SourceAlpha" type="matrix" result="hardAlpha" values="0 0 0 0 0 0 0 0 0 0 0 0 0 0 0 0 0 0 127 0"/><feOffset dy="-10" dx="0"/><feGaussianBlur stdDeviation="1"/><feComposite in2="hardAlpha" operator="arithmetic" k2="-1" k3="1"/><feColorMatrix type="matrix" values="0 0 0 0 0 0 0 0 0 0 0 0 0 0 0 0 0 0 0.4000000059604645 0"/><feBlend mode="normal" in2="effect2_innerShadow" result="effect3_innerShadow"/></filter></defs><g style="opacity:0.4000000059604645;"><g filter="url(#master_svg0_55_8929)"><path d="M92,465.5C92,465.6667,92.00110000000001,465.8333,92.0033,466L92,466L92,565L92.00999999999999,565C92.0033,565.167,92,565.333,92,565.5C92,572.404,97.5964,578,104.5,578C111.4036,578,117,572.404,117,565.5C117,565.333,116.9967,565.167,116.99,565L117,565L117,466L117.01,466C117.0033,465.8334,117,465.6667,117,465.5C117,458.5964,122.5964,453,129.5,453C136.40359999999998,453,142,458.5964,142,465.5C142,465.6667,141.9967,465.8334,141.99,466L142,466L142,567L142.09,567C142.849,573.278,148.17700000000002,578,154.5,578C160.82299999999998,578,166.151,573.278,166.91,567L167,567L167,466L167.01,466C167.003,465.8334,167,465.6667,167,465.5C167,458.5964,172.596,453,179.5,453C186.404,453,192,458.5964,192,465.5C192,465.6667,191.997,465.8334,191.99,466L192,466L192,566L192.01,566C192.278,572.704,197.791,578,204.5,578C211.209,578,216.722,572.704,216.99,566L217,566L217,466L216.997,466C216.999,465.8333,217,465.6667,217,465.5C217,444.7893,200.211,428,179.5,428C169.89600000000002,428,161.13400000000001,431.61067,154.5,437.54866C147.86599999999999,431.61067,139.1044,428,129.5,428C108.7893,428,92,444.7893,92,465.5ZM242,465.5C242,465.6667,242.001,465.8333,242.003,466L242,466L242,540.5L242.003,540.5C242.277,561.014,258.98400000000004,577.5,279.5,577.5C300.016,577.5,316.723,561.014,316.997,540.5L317,540.5L317,466L316.997,466C316.999,465.8333,317,465.6667,317,465.5C317,444.7893,300.211,428,279.5,428C258.789,428,242,444.7893,242,465.5ZM342,465.5C342,465.6667,342.001,465.8333,342.003,466L342,466L342,541L342.003,541C342.277,561.514,358.984,578,379.5,578C400.016,578,416.723,561.514,416.997,541L417,541L417,466L416.997,466C416.999,465.8333,417,465.6667,417,465.5C417,444.7893,400.211,428,379.5,428C358.789,428,342,444.7893,342,465.5ZM492,440.5C492,447.4036,486.404,453,479.5,453C479.333,453,479.167,452.9967,479,452.99L479,453.0098C472.328,453.2723,467,458.7639,467,465.5C467,465.6667,467.003,465.8334,467.01,466L467,466L467,564.5L466.99,564.5C466.997,564.667,467,564.833,467,565C467,571.904,461.404,577.5,454.5,577.5C447.596,577.5,442,571.904,442,565C442,564.833,442.003,564.667,442.01,564.5L442,564.5L442,466L442.003,466C442.001,465.8333,442,465.6667,442,465.5C442,444.9562,458.52,428.270891,479,428.00326517L479,428.010004C479.167,428.00333533,479.333,428,479.5,428C486.404,428,492,433.59644,492,440.5ZM507.003,466C507.001,465.8333,507,465.6667,507,465.5C507,444.7893,523.789,428,544.5,428C565.211,428,582,444.7893,582,465.5C582,465.6667,581.999,465.8333,581.997,466L582,466L582,491L581.99,491C581.734,497.5059,576.506,502.7343,570,502.9902L570,503L532,503L532,541L532.01,541C532.278,547.704,537.7909999999999,553,544.5,553C551.2090000000001,553,556.722,547.704,556.99,541L557,541L557,528L582,528L582,541L581.997,541C581.723,561.514,565.016,578,544.5,578C523.9839999999999,578,507.277,561.514,507.003,541L507,541L507,466L507.003,466ZM267,465.5C267,465.6667,267.003,465.8334,267.01,466L267,466L267,540.5L267.01,540.5C267.278,547.204,272.791,552.5,279.5,552.5C286.209,552.5,291.722,547.204,291.99,540.5L292,540.5L292,466L291.99,466C291.997,465.8334,292,465.6667,292,465.5C292,458.5964,286.404,453,279.5,453C272.596,453,267,458.5964,267,465.5ZM367,465.5C367,465.6667,367.003,465.8334,367.01,466L367,466L367,541L367.01,541C367.278,547.704,372.791,553,379.5,553C386.209,553,391.722,547.704,391.99,541L392,541L392,466L391.99,466C391.997,465.8334,392,465.6667,392,465.5C392,458.5964,386.404,453,379.5,453C372.596,453,367,458.5964,367,465.5ZM557,466L557,483L532,483L532,466L532.01,466C532.0029999999999,465.8334,532,465.6667,532,465.5C532,458.5964,537.596,453,544.5,453C551.404,453,557,458.5964,557,465.5C557,465.6667,556.997,465.8334,556.99,466L557,466ZM42.0100098,516L42,516L42,491L42.0100098,491C42.00335693,490.8334,42,490.6667,42,490.5C42,483.5964,47.59644,478,54.5,478C61.4036,478,67,483.5964,67,490.5C67,490.6667,66.9966,490.8334,66.99,491L67,491L67,516L66.99,516C66.7216,522.7037,61.209,528,54.5,528C47.79095,528,42.278381,522.7037,42.0100098,516ZM607.01,516L607,516L607,491L607.01,491C607.003,490.8334,607,490.6667,607,490.5C607,483.5964,612.596,478,619.5,478C626.404,478,632,483.5964,632,490.5C632,490.6667,631.997,490.8334,631.99,491L632,491L632,516L631.99,516C631.722,522.7037,626.209,528,619.5,528C612.791,528,607.278,522.7037,607.01,516Z" fill-rule="evenodd" fill="#F6B253" fill-opacity="1"/></g><g filter="url(#master_svg1_55_8930)"><path d="M76.8587,397.738Q53.1452,397.738,38.9067,385.816Q24.668100000000003,373.893,18.33406,352.538Q12,331.183,12,302.883Q12,286.009,13.04695,266.697Q14.0939,247.386,16.52807,227.157Q18.962229999999998,206.928,22.731299999999997,186.778Q26.5003,166.628,31.9968,147.683Q37.493300000000005,128.739,44.6125,112.179Q69.63470000000001,59.7727,105.4143,33.3863Q141.194,7,190.558,7Q223.484,7,244.999,21.5688Q266.514,36.1376,280.255,59.2748Q293.996,82.412,302.634,108.143Q309.596,127.795,318.469,142.626Q327.342,157.457,339.225,157.457Q352.992,157.457,364.666,145.168Q376.339,132.87900000000002,389.321,109.453Q405.13,80.8922,423.347,58.7508Q441.564,36.609300000000005,466.325,23.9009Q491.085,11.19247,526.001,11.19247Q575.731,11.19247,605.517,37.002300000000005Q635.303,62.8122,648.651,107.645Q662,152.479,662,209.601Q662,227.838,661.084,246.468Q660.168,265.099,658.414,283.126Q656.661,301.154,653.729,317.714Q650.798,334.274,646.767,348.529Q638.025,373.788,622.87,385.894Q607.716,398,582.536,398Q559.399,398,544.558,387.021Q529.718,376.042,522.127,357.647Q520.557,350.258,519.6410000000001,341.087Q518.725,331.916,518.306,320.99Q517.887,310.063,517.5989999999999,297.643Q517.3109999999999,285.223,517.05,271.047Q516.788,256.871,516.264,241.149Q514.956,219.191,510.925,201.924Q506.894,184.656,499.801,174.725Q492.708,164.794,481.558,164.794Q469.989,164.794,459.546,176.14Q449.102,187.486,439.627,205.513Q430.153,223.541,420.835,243.717Q403.769,282.864,384.689,301.259Q365.608,319.653,332.42,319.653Q298.917,319.653,281.721,300.184Q264.525,280.716,255.992,250.006Q249.344,225.69,243.141,207.976Q236.938,190.263,229.19,180.568Q221.443,170.873,209.874,170.873Q199.247,170.873,189.563,180.752Q179.879,190.63,171.66,210.649Q163.86,231.611,158.652,253.858Q153.443,276.104,150.433,297.355Q147.423,318.605,145.853,337.104Q139.309,370.487,124.443,384.112Q109.5759,397.738,76.8587,397.738Z" fill="#F6B253" fill-opacity="1"/></g></g></svg>