<svg xmlns="http://www.w3.org/2000/svg" xmlns:xlink="http://www.w3.org/1999/xlink" fill="none" version="1.1" width="1304.81982421875" height="128" viewBox="0 0 1304.81982421875 128"><defs><filter id="master_svg0_63_688" filterUnits="objectBoundingBox" color-interpolation-filters="sRGB" x="-6" y="0" width="1307.81982421875" height="114.66399383544922"><feFlood flood-opacity="0" result="BackgroundImageFix"/><feColorMatrix in="SourceAlpha" type="matrix" values="0 0 0 0 0 0 0 0 0 0 0 0 0 0 0 0 0 0 127 0"/><feOffset dy="7" dx="0"/><feGaussianBlur stdDeviation="1.5"/><feColorMatrix type="matrix" values="0 0 0 0 0 0 0 0 0 0 0 0 0 0 0 0 0 0 0.30000001192092896 0"/><feBlend mode="normal" in2="BackgroundImageFix" result="effect1_dropShadow"/><feBlend mode="normal" in="SourceGraphic" in2="effect1_dropShadow" result="shape"/><feColorMatrix in="SourceAlpha" type="matrix" result="hardAlpha" values="0 0 0 0 0 0 0 0 0 0 0 0 0 0 0 0 0 0 127 0"/><feOffset dy="-5" dx="0"/><feGaussianBlur stdDeviation="0"/><feComposite in2="hardAlpha" operator="arithmetic" k2="-1" k3="1"/><feColorMatrix type="matrix" values="0 0 0 0 0 0 0 0 0 0 0 0 0 0 0 0 0 0 0.30000001192092896 0"/><feBlend mode="normal" in2="shape" result="effect2_innerShadow"/></filter><linearGradient x1="0.5" y1="0.1032547578215599" x2="0.5" y2="0.9085297584533691" id="master_svg1_57_590"><stop offset="0%" stop-color="#EEEEEE" stop-opacity="1"/><stop offset="100%" stop-color="#888888" stop-opacity="1"/></linearGradient></defs><g><g filter="url(#master_svg0_63_688)"><path d="M17.478,94.644Q12.672,94.644,9.828,92.259Q6.984,89.874,5.742,85.689Q4.5,81.504,4.5,76.104Q4.5,73.404,4.68,70.353Q4.86,67.302,5.283,64.134Q5.7059999999999995,60.966,6.354,57.807Q7.002,54.648,7.9559999999999995,51.651Q8.91,48.654,10.134,45.99Q14.85,36.558,21.483,31.941Q28.116,27.324,37.206,27.324Q43.092,27.324,46.926,29.664Q50.76,32.004,53.163,35.685Q55.566,39.366,56.988,43.416Q58.194,46.674,59.751,49.104Q61.308,51.534,63.486,51.534Q65.952,51.534,67.842,49.743Q69.732,47.952,71.892,44.046Q74.304,39.672,77.364,36.117Q80.424,32.562,84.834,30.447Q89.244,28.332,95.598,28.332Q104.85,28.332,110.376,32.859Q115.902,37.386,118.368,45.351Q120.834,53.316,120.834,63.648Q120.834,66.672,120.681,69.669Q120.528,72.666,120.231,75.51Q119.934,78.354,119.43,80.946Q118.926,83.538,118.224,85.77Q116.55,90.27,113.553,92.556Q110.556,94.842,105.534,94.842Q100.89,94.842,97.893,92.745Q94.896,90.648,93.33,87.174Q93.006,86.04,92.781,84.69Q92.556,83.34,92.412,81.765Q92.268,80.19,92.151,78.444Q92.034,76.698,91.944,74.727Q91.854,72.756,91.746,70.596Q91.476,67.05,90.81,64.449Q90.144,61.848,89.091,60.435Q88.038,59.022,86.472,59.022Q84.762,59.022,83.205,60.813Q81.648,62.604,80.262,65.412Q78.876,68.22,77.544,71.298Q74.844,77.868,71.541,80.802Q68.238,83.736,62.154,83.736Q55.962,83.736,52.839,80.415Q49.716,77.094,48.33,72.162Q47.232,68.202,46.269,65.466Q45.306,62.73,44.154,61.308Q43.002,59.886,41.292,59.886Q39.762,59.886,38.268,61.281Q36.774,62.676,35.495999999999995,65.52Q34.361999999999995,68.328,33.525,71.379Q32.688,74.43,32.138999999999996,77.427Q31.59,80.424,31.266,83.142Q29.916,89.532,26.964,92.088Q24.012,94.644,17.478,94.644ZM174.51,96.768Q165.528,96.768,157.185,94.833Q148.842,92.898,142.245,88.74Q135.648,84.582,131.796,77.922Q127.944,71.262,127.944,61.758Q127.944,51.318,131.625,43.308Q135.306,35.298,141.804,29.817Q148.302,24.336,156.888,21.546Q165.474,18.756,175.32,18.756Q184.788,18.756,193.167,21.096Q201.546,23.436,207.945,28.242Q214.344,33.048,217.962,40.401Q221.58,47.754,221.58,57.816Q221.58,65.88,217.899,72.936Q214.218,79.992,207.729,85.329Q201.24,90.666,192.735,93.717Q184.23,96.768,174.51,96.768ZM173.034,69.858Q177.516,69.858,180.711,68.499Q183.906,67.14,185.94,64.854Q187.974,62.568,188.955,59.814Q189.936,57.06,189.936,54.252Q189.936,50.67,188.487,48.123Q187.038,45.576,184.626,43.974Q182.214,42.372,179.253,41.616Q176.292,40.86,173.196,40.86Q169.002,40.86,165.402,42.57Q161.802,44.28,159.615,47.637Q157.428,50.994,157.428,55.962Q157.428,60.192,159.309,63.324Q161.19,66.456,164.7,68.157Q168.21,69.858,173.034,69.858ZM277.182,96.768Q268.2,96.768,259.85699999999997,94.833Q251.514,92.898,244.917,88.74Q238.32,84.582,234.468,77.922Q230.616,71.262,230.616,61.758Q230.616,51.318,234.297,43.308Q237.978,35.298,244.476,29.817Q250.974,24.336,259.56,21.546Q268.146,18.756,277.992,18.756Q287.46,18.756,295.839,21.096Q304.218,23.436,310.617,28.242Q317.016,33.048,320.634,40.401Q324.252,47.754,324.252,57.816Q324.252,65.88,320.571,72.936Q316.89,79.992,310.401,85.329Q303.912,90.666,295.407,93.717Q286.902,96.768,277.182,96.768ZM275.706,69.858Q280.188,69.858,283.383,68.499Q286.578,67.14,288.612,64.854Q290.646,62.568,291.627,59.814Q292.608,57.06,292.608,54.252Q292.608,50.67,291.159,48.123Q289.71,45.576,287.298,43.974Q284.886,42.372,281.925,41.616Q278.964,40.86,275.868,40.86Q271.674,40.86,268.074,42.57Q264.474,44.28,262.287,47.637Q260.1,50.994,260.1,55.962Q260.1,60.192,261.981,63.324Q263.862,66.456,267.372,68.157Q270.882,69.858,275.706,69.858ZM358.326,95.346Q354.816,95.346,352.098,94.419Q349.38,93.492,347.319,91.809Q345.258,90.126,343.62,87.84Q341.838,85.14,340.461,81.738Q339.084,78.336,338.157,74.538Q337.23,70.74,336.753,66.771Q336.276,62.802,336.276,59.022Q336.276,46.962,341.532,38.502Q346.788,30.042,356.211,25.56Q365.634,21.078,378.108,21.078Q384.084,21.078,389.79,22.059Q395.496,23.04,400.059,25.074Q404.622,27.108,407.349,30.231Q410.076,33.354,410.076,37.656Q410.076,41.742,408.429,44.046Q406.782,46.35,404.181,47.241Q401.58,48.132,398.772,48.132Q394.47,48.132,390.744,47.124Q387.018,46.116,382.014,46.116Q376.362,46.116,373.104,49.428Q369.846,52.74,369.846,59.364Q369.846,61.92,370.089,64.368Q370.332,66.816,370.71,69.093Q371.088,71.37,371.457,73.494Q371.826,75.618,372.069,77.463Q372.312,79.308,372.312,80.91Q372.312,88.182,368.955,91.764Q365.598,95.346,358.326,95.346ZM458.19,98.586Q445.644,98.586,436.158,94.716Q426.672,90.846,421.407,82.899Q416.142,74.952,416.142,62.802Q416.142,52.776,419.589,45.18Q423.036,37.584,429.111,32.427Q435.186,27.27,443.16,24.651Q451.134,22.032,460.17,22.032Q466.308,22.032,472.203,23.103Q478.098,24.174,482.877,26.604Q487.656,29.034,490.482,33.039Q493.308,37.044,493.308,42.858Q493.308,47.592,491.652,50.841Q489.996,54.09,487.089,56.214Q484.182,58.338,480.411,59.679Q476.64,61.02,472.41,61.992Q469.35,62.964,464.814,63.792Q460.278,64.62,455.769,65.115Q451.26,65.61,448.218,65.61Q446.022,65.61,445.14,66.123Q444.258,66.636,444.258,67.986Q444.258,69.12,444.852,70.443Q445.446,71.766,446.58,72.882Q448.434,74.88,451.017,75.555Q453.6,76.23,457.254,76.23Q461.772,76.23,466.506,74.844Q471.24,73.458,476.055,72.081Q480.87,70.704,485.73,70.704Q490.734,70.704,493.731,72.549Q496.728,74.394,496.728,79.83Q496.728,84.474,493.578,88.002Q490.428,91.53,485.019,93.879Q479.61,96.228,472.671,97.407Q465.732,98.586,458.19,98.586ZM454.14,53.586Q457.47,53.586,460.8,52.731Q464.13,51.876,466.371,49.995Q468.612,48.114,468.612,45.09Q468.612,41.364,465.813,39.906Q463.014,38.448,458.784,38.448Q456.156,38.448,453.609,39.348Q451.062,40.248,449.019,41.832Q446.976,43.416,445.752,45.459Q444.528,47.502,444.528,49.806Q444.528,51.48,445.581,52.29Q446.634,53.1,448.785,53.343Q450.936,53.586,454.14,53.586ZM573.678,96.03Q567.666,96.03,564.642,93.348Q561.618,90.666,559.296,85.14Q558.162,82.17,557.352,78.696Q556.542,75.222,556.038,71.388Q555.534,67.554,555.273,63.531Q555.012,59.508,555.03,55.404Q555.066,51.174,555.444,46.584Q555.822,41.994,556.569,37.512Q557.316,33.03,558.342,29.232Q559.368,25.434,560.682,22.806Q563.616,16.83,567.972,13.554Q572.328,10.278,577.476,8.982Q582.624,7.686,587.844,7.686Q592.902,7.686,597.096,9.117Q601.29,10.548,604.062,13.338Q605.556,14.85,606.942,17.055Q608.328,19.26,609.57,21.861Q610.812,24.462,611.838,27.351Q612.864,30.24,613.692,33.192Q614.484,36.198,615.546,38.502Q616.608,40.806,618.444,40.806Q620.604,40.806,621.756,38.511Q622.908,36.216,623.736,33.192Q624.456,30.384,625.311,27.639Q626.166,24.894,627.174,22.347Q628.182,19.8,629.343,17.595Q630.504,15.39,631.764,13.59Q634.5,10.476,638.316,8.928Q642.132,7.38,648.738,7.38Q654.264,7.38,658.719,9.027Q663.174,10.674,666.657,13.698Q670.14,16.722,672.66,20.952Q675.108,24.822,676.809,30.042Q678.51,35.262,679.392,41.256Q680.274,47.25,680.328,53.604Q680.346,57.402,680.256,61.218Q680.166,65.034,679.878,68.751Q679.59,72.468,679.023,75.996Q678.456,79.524,677.538,82.764Q675.54,88.506,671.634,91.08Q667.728,93.654,661.122,93.654Q657.072,93.654,654.786,92.034Q652.5,90.414,651.582,87.984Q651.312,86.598,651.015,84.879Q650.718,83.16,650.412,81.288Q650.106,79.416,649.827,77.517Q649.548,75.618,649.368,73.818Q649.116,70.686,648.693,67.527Q648.27,64.368,647.802,61.722Q647.334,59.076,646.884,57.546Q646.056,54.504,644.76,52.785Q643.464,51.066,641.142,51.066Q638.748,51.066,637.191,53.127Q635.634,55.188,634.734,58.662Q634.5,59.688,634.122,61.254Q633.744,62.82,633.339,64.683Q632.934,66.546,632.457,68.553Q631.98,70.56,631.494,72.513Q631.008,74.466,630.54,76.194Q629.028,80.64,626.139,83.016Q623.25,85.392,617.904,85.392Q612.018,85.392,609.291,82.71Q606.564,80.028,604.134,74.988Q603.684,73.764,603.126,71.865Q602.568,69.966,601.938,67.68Q601.308,65.394,600.651,63.009Q599.994,60.624,599.4,58.428Q598.806,56.232,598.266,54.504Q597.366,51.39,596.286,49.977Q595.206,48.564,593.37,48.564Q591.138,48.564,590.058,50.742Q588.978,52.92,588.348,57.168Q588.15,58.428,587.988,60.129Q587.826,61.83,587.745,63.909Q587.664,65.988,587.601,68.418Q587.538,70.848,587.538,73.602Q587.538,76.464,587.439,78.849Q587.34,81.234,587.097,83.268Q586.854,85.302,586.458,86.94Q586.062,88.578,585.414,89.946Q583.794,92.844,580.806,94.437Q577.818,96.03,573.678,96.03ZM723.834,101.664Q717.696,101.664,711.801,100.539Q705.906,99.414,701.181,96.786Q696.456,94.158,693.657,89.775Q690.858,85.392,690.858,78.93Q690.858,72.522,694.107,68.247Q697.356,63.972,702.909,61.479Q708.462,58.986,715.473,57.915Q722.484,56.844,730.008,56.844Q731.88,56.844,733.743,56.97Q735.606,57.096,737.199,57.213Q738.792,57.33,739.746,57.33Q741.348,57.33,741.96,56.763Q742.572,56.196,742.572,54.9Q742.572,53.532,742.23,52.47Q741.888,51.408,741.24,50.553Q740.592,49.698,739.656,49.104Q737.946,47.898,735.255,47.322Q732.564,46.746,729.396,46.746Q725.364,46.746,721.413,47.583Q717.462,48.42,713.61,49.293Q709.758,50.166,705.888,50.166Q699.282,50.166,695.601,47.988Q691.92,45.81,691.92,41.184Q691.92,36.828,694.881,33.579Q697.842,30.33,702.873,28.188Q707.904,26.046,714.204,25.002Q720.504,23.958,727.11,23.958Q740.844,23.958,750.303,26.856Q759.762,29.754,764.676,36.747Q769.59,43.74,769.59,56.124Q769.59,58.896,769.347,60.966Q769.104,63.036,768.771,64.602Q768.438,66.168,768.195,67.374Q767.952,68.58,767.952,69.696Q767.952,71.694,769.338,73.629Q770.724,75.564,772.569,77.661Q774.414,79.758,775.8,82.206Q777.186,84.654,777.186,87.732Q777.186,92.304,774.261,94.464Q771.336,96.624,767.484,96.624Q764.496,96.624,762.687,95.112Q760.878,93.6,759.573,92.097Q758.268,90.594,756.684,90.594Q755.586,90.594,754.182,91.314Q752.778,92.034,750.906,93.276Q748.638,94.806,745.083,96.786Q741.528,98.766,736.335,100.215Q731.142,101.664,723.834,101.664ZM726.246,83.952Q728.928,83.952,731.529,83.187Q734.13,82.422,736.281,81.018Q738.432,79.614,739.71,77.67Q740.988,75.726,740.988,73.386Q740.988,71.586,739.854,70.695Q738.72,69.804,736.524,69.471Q734.328,69.138,731.16,69.138Q727.578,69.138,724.239,69.894Q720.9,70.65,718.776,72.45Q716.652,74.25,716.652,77.418Q716.652,79.704,717.921,81.135Q719.19,82.566,721.35,83.259Q723.51,83.952,726.246,83.952ZM797.598,94.158Q792.18,94.158,788.67,92.124Q785.16,90.09,783.432,85.446Q782.946,83.844,782.676,81.855Q782.406,79.866,782.307,77.445Q782.208,75.024,782.316,72.234Q782.658,57.402,788.499,46.953Q794.34,36.504,804.645,30.978Q814.95,25.452,828.486,25.452Q842.166,25.452,852.651,30.816Q863.136,36.18,869.076,46.584Q875.016,56.988,875.016,72.054Q875.016,74.502,874.8,76.671Q874.584,78.84,874.17,80.73Q873.756,82.62,873.126,84.276Q871.218,89.136,867.564,91.647Q863.91,94.158,858.816,94.158Q852.876,94.158,849.618,92.547Q846.36,90.936,844.929,87.876Q843.498,84.816,842.904,80.532Q842.526,76.482,842.166,73.251Q841.806,70.02,841.374,67.455Q840.942,64.89,840.492,62.775Q840.042,60.66,839.466,58.77Q838.116,54.252,835.767,52.137Q833.418,50.022,829.26,50.022Q825.462,50.022,822.933,52.254Q820.404,54.486,818.712,58.86Q817.938,60.858,817.308,63.234Q816.678,65.61,816.165,68.436Q815.652,71.262,815.229,74.565Q814.806,77.868,814.338,81.72Q813.726,86.652,811.314,89.352Q808.902,92.052,805.365,93.105Q801.828,94.158,797.598,94.158ZM921.168,96.822Q910.242,96.822,902.007,93.609Q893.772,90.396,889.218,83.538Q884.664,76.68,884.664,65.826Q884.664,55.692,888.237,48.834Q891.81,41.976,898.794,38.52Q905.778,35.064,915.93,35.064Q920.718,35.064,923.868,36.126Q927.018,37.188,928.98,38.196Q930.114,38.79,931.014,39.222Q931.914,39.654,932.382,39.654Q933.516,39.654,933.516,37.944Q933.516,36.828,933.273,34.596Q933.03,32.364,932.661,29.556Q932.292,26.748,931.887,23.832Q931.482,20.916,931.239,18.333Q930.996,15.75,930.996,14.094Q930.996,0,945.63,0Q950.67,0,955.008,1.8Q959.346,3.6,962.118,7.506Q963.396,9.684,964.476,12.789Q965.556,15.894,966.384,19.539Q967.212,23.184,967.797,27.081Q968.382,30.978,968.661,34.776Q968.94,38.574,968.94,41.904Q968.94,60.786,964.422,72.954Q959.904,85.122,949.455,90.972Q939.006,96.822,921.168,96.822ZM922.122,79.254Q926.568,79.254,929.745,77.589Q932.922,75.924,934.614,72.918Q936.306,69.912,936.306,66.042Q936.306,62.172,934.893,59.535Q933.48,56.898,930.96,55.512Q928.44,54.126,924.966,54.126Q920.844,54.126,917.523,55.845Q914.202,57.564,912.24,60.669Q910.278,63.774,910.278,67.896Q910.278,71.406,911.763,73.953Q913.248,76.5,915.939,77.877Q918.63,79.254,922.122,79.254ZM1012.63,101.664Q1006.49,101.664,1000.593,100.539Q994.698,99.414,989.973,96.786Q985.248,94.158,982.449,89.775Q979.65,85.392,979.65,78.93Q979.65,72.522,982.899,68.247Q986.148,63.972,991.701,61.479Q997.254,58.986,1004.265,57.915Q1011.28,56.844,1018.8,56.844Q1020.67,56.844,1022.53,56.97Q1024.4,57.096,1025.99,57.213Q1027.58,57.33,1028.54,57.33Q1030.14,57.33,1030.75,56.763Q1031.36,56.196,1031.36,54.9Q1031.36,53.532,1031.02,52.47Q1030.68,51.408,1030.03,50.553Q1029.38,49.698,1028.45,49.104Q1026.74,47.898,1024.05,47.322Q1021.36,46.746,1018.19,46.746Q1014.16,46.746,1010.2,47.583Q1006.25,48.42,1002.402,49.293Q998.55,50.166,994.68,50.166Q988.074,50.166,984.393,47.988Q980.712,45.81,980.712,41.184Q980.712,36.828,983.673,33.579Q986.634,30.33,991.665,28.188Q996.696,26.046,1002.996,25.002Q1009.3,23.958,1015.9,23.958Q1029.64,23.958,1039.09,26.856Q1048.55,29.754,1053.47,36.747Q1058.38,43.74,1058.38,56.124Q1058.38,58.896,1058.14,60.966Q1057.9,63.036,1057.56,64.602Q1057.23,66.168,1056.99,67.374Q1056.74,68.58,1056.74,69.696Q1056.74,71.694,1058.13,73.629Q1059.52,75.564,1061.36,77.661Q1063.21,79.758,1064.59,82.206Q1065.98,84.654,1065.98,87.732Q1065.98,92.304,1063.05,94.464Q1060.13,96.624,1056.28,96.624Q1053.29,96.624,1051.48,95.112Q1049.67,93.6,1048.36,92.097Q1047.06,90.594,1045.48,90.594Q1044.38,90.594,1042.97,91.314Q1041.57,92.034,1039.7,93.276Q1037.43,94.806,1033.87,96.786Q1030.32,98.766,1025.13,100.215Q1019.93,101.664,1012.63,101.664ZM1015.04,83.952Q1017.72,83.952,1020.32,83.187Q1022.92,82.422,1025.0700000000002,81.018Q1027.22,79.614,1028.5,77.67Q1029.78,75.726,1029.78,73.386Q1029.78,71.586,1028.65,70.695Q1027.51,69.804,1025.3200000000002,69.471Q1023.12,69.138,1019.95,69.138Q1016.37,69.138,1013.03,69.894Q1009.69,70.65,1007.57,72.45Q1005.44,74.25,1005.44,77.418Q1005.44,79.704,1006.71,81.135Q1007.98,82.566,1010.14,83.259Q1012.3,83.952,1015.04,83.952ZM1096.47,95.346Q1092.96,95.346,1090.24,94.419Q1087.52,93.492,1085.46,91.809Q1083.4,90.126,1081.76,87.84Q1079.98,85.14,1078.6,81.738Q1077.23,78.336,1076.3,74.538Q1075.37,70.74,1074.9,66.771Q1074.42,62.802,1074.42,59.022Q1074.42,46.962,1079.68,38.502Q1084.93,30.042,1094.35,25.56Q1103.78,21.078,1116.25,21.078Q1122.23,21.078,1127.93,22.059Q1133.64,23.04,1138.2,25.074Q1142.77,27.108,1145.49,30.231Q1148.22,33.354,1148.22,37.656Q1148.22,41.742,1146.57,44.046Q1144.93,46.35,1142.32,47.241Q1139.72,48.132,1136.92,48.132Q1132.61,48.132,1128.89,47.124Q1125.16,46.116,1120.16,46.116Q1114.51,46.116,1111.25,49.428Q1107.99,52.74,1107.99,59.364Q1107.99,61.92,1108.23,64.368Q1108.48,66.816,1108.85,69.093Q1109.23,71.37,1109.6,73.494Q1109.97,75.618,1110.21,77.463Q1110.46,79.308,1110.46,80.91Q1110.46,88.182,1107.1,91.764Q1103.74,95.346,1096.47,95.346ZM1171.69,95.31Q1165.5,95.31,1162.1,93.123Q1158.7,90.936,1157.38,86.67Q1156.07,82.404,1156.07,76.248Q1156.07,73.98,1156.18,71.334Q1156.3,68.688,1156.49,65.907Q1156.68,63.126,1156.99,60.354Q1157.29,57.582,1157.67,54.999Q1158.05,52.416,1158.5,50.202Q1158.95,47.988,1159.49,46.386Q1162.01,40.068,1166.94,36.765Q1171.87,33.462,1179.61,33.462Q1186.83,33.462,1190.23,38.61Q1193.63,43.758,1193.63,52.632Q1193.63,55.224,1193.47,58.338Q1193.31,61.452,1192.99,64.728Q1192.66,68.004,1192.2,71.28Q1191.74,74.556,1191.09,77.499Q1190.43,80.442,1189.68,82.881Q1188.94,85.32,1187.98,86.922Q1185.43,91.17,1181.4,93.24Q1177.38,95.31,1171.69,95.31ZM1177.85,25.992Q1168.87,25.992,1165.01,23.049Q1161.16,20.106,1161.16,16.272Q1161.16,11.304,1164.73,7.821Q1168.29,4.33801,1173.64,2.511Q1178.98,0.683998,1184.4,0.683998Q1188.4,0.683998,1191.78,1.93501Q1195.16,3.186,1197.23,5.85Q1199.3,8.514,1199.3,12.798Q1199.3,17.64,1196.33,20.529Q1193.36,23.418,1188.47,24.705Q1183.57,25.992,1177.85,25.992ZM1222.9,94.158Q1217.48,94.158,1213.97,92.124Q1210.46,90.09,1208.74,85.446Q1208.25,83.844,1207.98,81.855Q1207.71,79.866,1207.61,77.445Q1207.51,75.024,1207.62,72.234Q1207.96,57.402,1213.8,46.953Q1219.64,36.504,1229.95,30.978Q1240.25,25.452,1253.79,25.452Q1267.47,25.452,1277.95,30.816Q1288.44,36.18,1294.38,46.584Q1300.32,56.988,1300.32,72.054Q1300.32,74.502,1300.1,76.671Q1299.89,78.84,1299.47,80.73Q1299.06,82.62,1298.43,84.276Q1296.52,89.136,1292.87,91.647Q1289.21,94.158,1284.12,94.158Q1278.18,94.158,1274.92,92.547Q1271.66,90.936,1270.23,87.876Q1268.8,84.816,1268.21,80.532Q1267.83,76.482,1267.47,73.251Q1267.11,70.02,1266.68,67.455Q1266.25,64.89,1265.8,62.775Q1265.35,60.66,1264.77,58.77Q1263.42,54.252,1261.07,52.137Q1258.72,50.022,1254.56,50.022Q1250.77,50.022,1248.24,52.254Q1245.71,54.486,1244.02,58.86Q1243.24,60.858,1242.61,63.234Q1241.98,65.61,1241.47,68.436Q1240.96,71.262,1240.53,74.565Q1240.11,77.868,1239.64,81.72Q1239.03,86.652,1236.62,89.352Q1234.21,92.052,1230.67,93.105Q1227.13,94.158,1222.9,94.158Z" fill="url(#master_svg1_57_590)" fill-opacity="1"/></g></g></svg>