<svg xmlns="http://www.w3.org/2000/svg" xmlns:xlink="http://www.w3.org/1999/xlink" fill="none" version="1.1" width="1130.075927734375" height="136.258056640625" viewBox="0 0 1130.075927734375 136.258056640625"><defs><filter id="master_svg0_63_689" filterUnits="objectBoundingBox" color-interpolation-filters="sRGB" x="-6" y="0" width="1133.075927734375" height="137.75799560546875"><feFlood flood-opacity="0" result="BackgroundImageFix"/><feColorMatrix in="SourceAlpha" type="matrix" values="0 0 0 0 0 0 0 0 0 0 0 0 0 0 0 0 0 0 127 0"/><feOffset dy="7" dx="0"/><feGaussianBlur stdDeviation="1.5"/><feColorMatrix type="matrix" values="0 0 0 0 0 0 0 0 0 0 0 0 0 0 0 0 0 0 0.30000001192092896 0"/><feBlend mode="normal" in2="BackgroundImageFix" result="effect1_dropShadow"/><feBlend mode="normal" in="SourceGraphic" in2="effect1_dropShadow" result="shape"/><feColorMatrix in="SourceAlpha" type="matrix" result="hardAlpha" values="0 0 0 0 0 0 0 0 0 0 0 0 0 0 0 0 0 0 127 0"/><feOffset dy="-5" dx="0"/><feGaussianBlur stdDeviation="0"/><feComposite in2="hardAlpha" operator="arithmetic" k2="-1" k3="1"/><feColorMatrix type="matrix" values="0 0 0 0 0 0 0 0 0 0 0 0 0 0 0 0 0 0 0.30000001192092896 0"/><feBlend mode="normal" in2="shape" result="effect2_innerShadow"/></filter><linearGradient x1="0.5" y1="0.1032547578215599" x2="0.5" y2="0.9085297584533691" id="master_svg1_57_590"><stop offset="0%" stop-color="#EEEEEE" stop-opacity="1"/><stop offset="100%" stop-color="#888888" stop-opacity="1"/></linearGradient></defs><g><g filter="url(#master_svg0_63_689)"><path d="M17.478,93.96Q12.672,93.96,9.828,91.575Q6.984,89.19,5.742,85.005Q4.5,80.82,4.5,75.42Q4.5,72.72,4.68,69.669Q4.86,66.618,5.283,63.45Q5.7059999999999995,60.282,6.354,57.123Q7.002,53.964,7.9559999999999995,50.967Q8.91,47.97,10.134,45.306Q14.85,35.874,21.483,31.257Q28.116,26.64,37.206,26.64Q43.092,26.64,46.926,28.98Q50.76,31.32,53.163,35.001Q55.566,38.682,56.988,42.732Q58.194,45.99,59.751,48.42Q61.308,50.85,63.486,50.85Q65.952,50.85,67.842,49.059Q69.732,47.268,71.892,43.362Q74.304,38.988,77.364,35.433Q80.424,31.878,84.834,29.763Q89.244,27.648,95.598,27.648Q104.85,27.648,110.376,32.175Q115.902,36.702,118.368,44.667Q120.834,52.632,120.834,62.964Q120.834,65.988,120.681,68.985Q120.528,71.982,120.231,74.826Q119.934,77.67,119.43,80.262Q118.926,82.854,118.224,85.086Q116.55,89.586,113.553,91.872Q110.556,94.158,105.534,94.158Q100.89,94.158,97.893,92.061Q94.896,89.964,93.33,86.49Q93.006,85.356,92.781,84.006Q92.556,82.656,92.412,81.081Q92.268,79.506,92.151,77.76Q92.034,76.014,91.944,74.043Q91.854,72.072,91.746,69.912Q91.476,66.366,90.81,63.765Q90.144,61.164,89.091,59.751Q88.038,58.338,86.472,58.338Q84.762,58.338,83.205,60.129Q81.648,61.92,80.262,64.728Q78.876,67.536,77.544,70.614Q74.844,77.184,71.541,80.118Q68.238,83.052,62.154,83.052Q55.962,83.052,52.839,79.731Q49.716,76.41,48.33,71.478Q47.232,67.518,46.269,64.782Q45.306,62.046,44.154,60.624Q43.002,59.202,41.292,59.202Q39.762,59.202,38.268,60.597Q36.774,61.992,35.495999999999995,64.836Q34.361999999999995,67.644,33.525,70.695Q32.688,73.746,32.138999999999996,76.743Q31.59,79.74,31.266,82.458Q29.916,88.848,26.964,91.404Q24.012,93.96,17.478,93.96ZM174.51,96.084Q165.528,96.084,157.185,94.149Q148.842,92.214,142.245,88.056Q135.648,83.898,131.796,77.238Q127.944,70.578,127.944,61.074Q127.944,50.634,131.625,42.624Q135.306,34.614,141.804,29.133Q148.302,23.652,156.888,20.862Q165.474,18.072,175.32,18.072Q184.788,18.072,193.167,20.412Q201.546,22.752,207.945,27.558Q214.344,32.364,217.962,39.717Q221.58,47.07,221.58,57.132Q221.58,65.196,217.899,72.252Q214.218,79.308,207.729,84.645Q201.24,89.982,192.735,93.033Q184.23,96.084,174.51,96.084ZM173.034,69.174Q177.516,69.174,180.711,67.815Q183.906,66.456,185.94,64.17Q187.974,61.884,188.955,59.13Q189.936,56.376,189.936,53.568Q189.936,49.986,188.487,47.439Q187.038,44.892,184.626,43.29Q182.214,41.688,179.253,40.932Q176.292,40.176,173.196,40.176Q169.002,40.176,165.402,41.886Q161.802,43.596,159.615,46.953Q157.428,50.31,157.428,55.278Q157.428,59.508,159.309,62.64Q161.19,65.772,164.7,67.473Q168.21,69.174,173.034,69.174ZM277.182,96.084Q268.2,96.084,259.85699999999997,94.149Q251.514,92.214,244.917,88.056Q238.32,83.898,234.468,77.238Q230.616,70.578,230.616,61.074Q230.616,50.634,234.297,42.624Q237.978,34.614,244.476,29.133Q250.974,23.652,259.56,20.862Q268.146,18.072,277.992,18.072Q287.46,18.072,295.839,20.412Q304.218,22.752,310.617,27.558Q317.016,32.364,320.634,39.717Q324.252,47.07,324.252,57.132Q324.252,65.196,320.571,72.252Q316.89,79.308,310.401,84.645Q303.912,89.982,295.407,93.033Q286.902,96.084,277.182,96.084ZM275.706,69.174Q280.188,69.174,283.383,67.815Q286.578,66.456,288.612,64.17Q290.646,61.884,291.627,59.13Q292.608,56.376,292.608,53.568Q292.608,49.986,291.159,47.439Q289.71,44.892,287.298,43.29Q284.886,41.688,281.925,40.932Q278.964,40.176,275.868,40.176Q271.674,40.176,268.074,41.886Q264.474,43.596,262.287,46.953Q260.1,50.31,260.1,55.278Q260.1,59.508,261.981,62.64Q263.862,65.772,267.372,67.473Q270.882,69.174,275.706,69.174ZM358.326,94.662Q354.816,94.662,352.098,93.735Q349.38,92.808,347.319,91.125Q345.258,89.442,343.62,87.156Q341.838,84.456,340.461,81.054Q339.084,77.652,338.157,73.854Q337.23,70.056,336.753,66.087Q336.276,62.118,336.276,58.338Q336.276,46.278,341.532,37.818Q346.788,29.358,356.211,24.876Q365.634,20.394,378.108,20.394Q384.084,20.394,389.79,21.375Q395.496,22.356,400.059,24.39Q404.622,26.424,407.349,29.547Q410.076,32.67,410.076,36.972Q410.076,41.058,408.429,43.362Q406.782,45.666,404.181,46.557Q401.58,47.448,398.772,47.448Q394.47,47.448,390.744,46.44Q387.018,45.432,382.014,45.432Q376.362,45.432,373.104,48.744Q369.846,52.056,369.846,58.68Q369.846,61.236,370.089,63.684Q370.332,66.132,370.71,68.409Q371.088,70.686,371.457,72.81Q371.826,74.934,372.069,76.779Q372.312,78.624,372.312,80.226Q372.312,87.498,368.955,91.08Q365.598,94.662,358.326,94.662ZM458.19,97.902Q445.644,97.902,436.158,94.032Q426.672,90.162,421.407,82.215Q416.142,74.268,416.142,62.118Q416.142,52.092,419.589,44.496Q423.036,36.9,429.111,31.743Q435.186,26.586,443.16,23.967Q451.134,21.348,460.17,21.348Q466.308,21.348,472.203,22.419Q478.098,23.49,482.877,25.92Q487.656,28.35,490.482,32.355Q493.308,36.36,493.308,42.174Q493.308,46.908,491.652,50.157Q489.996,53.406,487.089,55.53Q484.182,57.654,480.411,58.995Q476.64,60.336,472.41,61.308Q469.35,62.28,464.814,63.108Q460.278,63.936,455.769,64.431Q451.26,64.926,448.218,64.926Q446.022,64.926,445.14,65.439Q444.258,65.952,444.258,67.302Q444.258,68.436,444.852,69.759Q445.446,71.082,446.58,72.198Q448.434,74.196,451.017,74.871Q453.6,75.546,457.254,75.546Q461.772,75.546,466.506,74.16Q471.24,72.774,476.055,71.397Q480.87,70.02,485.73,70.02Q490.734,70.02,493.731,71.865Q496.728,73.71,496.728,79.146Q496.728,83.79,493.578,87.318Q490.428,90.846,485.019,93.195Q479.61,95.544,472.671,96.723Q465.732,97.902,458.19,97.902ZM454.14,52.902Q457.47,52.902,460.8,52.047Q464.13,51.192,466.371,49.311Q468.612,47.43,468.612,44.406Q468.612,40.68,465.813,39.222Q463.014,37.764,458.784,37.764Q456.156,37.764,453.609,38.664Q451.062,39.564,449.019,41.148Q446.976,42.732,445.752,44.775Q444.528,46.818,444.528,49.122Q444.528,50.796,445.581,51.606Q446.634,52.416,448.785,52.659Q450.936,52.902,454.14,52.902ZM588.366,95.526Q579.888,95.526,573.03,92.43Q566.172,89.334,561.771,82.809Q557.37,76.284,555.984,65.952Q555.714,63.756,555.525,61.407Q555.336,59.058,555.21,56.52Q555.084,53.982,555.03,51.327Q554.976,48.672,554.976,45.828Q554.976,32.742,557.883,24.138Q560.79,15.534,566.46,10.584Q572.13,5.634,580.473,3.57301Q588.816,1.512,599.616,1.512Q605.106,1.512,609.975,2.061Q614.844,2.61,618.552,3.825Q622.26,5.04,624.375,7.029Q626.49,9.01801,626.49,11.916Q626.49,15.282,624.609,17.343Q622.728,19.404,619.938,20.16Q617.616,20.7,614.106,20.961Q610.596,21.222,606.789,21.321Q602.982,21.42,599.652,21.474Q596.106,21.528,593.757,22.104Q591.408,22.68,590.049,23.895Q588.69,25.11,588.114,27.045Q587.538,28.98,587.538,31.626Q587.538,33.354,588.06,34.497Q588.582,35.64,590.229,36.171Q591.876,36.702,595.206,36.702Q596.844,36.702,598.599,36.648Q600.354,36.594,602.118,36.486Q603.882,36.378,605.574,36.324Q607.266,36.27,608.724,36.27Q614.034,36.27,616.536,38.592Q619.038,40.914,619.038,45.126Q619.038,51.462,615.681,53.883Q612.324,56.304,607.608,56.304Q605.826,56.304,604.026,56.304Q602.226,56.304,600.498,56.286Q598.77,56.268,597.186,56.268Q595.602,56.268,594.324,56.268Q590.67,56.268,588.726,56.709Q586.782,57.15,586.098,58.122Q585.414,59.094,585.414,60.804Q585.414,63.054,585.774,64.863Q586.134,66.672,586.998,67.995Q587.862,69.318,589.347,70.2Q590.832,71.082,593.037,71.523Q595.242,71.964,598.356,71.964Q601.704,71.964,605.142,71.847Q608.58,71.73,611.604,71.631Q614.628,71.532,616.572,71.532Q621.45,71.532,623.817,73.908Q626.184,76.284,626.184,80.64Q626.184,85.302,622.602,88.245Q619.02,91.188,613.296,92.772Q607.572,94.356,600.966,94.941Q594.36,95.526,588.366,95.526ZM650.358,93.474Q644.94,93.474,641.43,91.44Q637.92,89.406,636.192,84.762Q635.706,83.16,635.436,81.171Q635.166,79.182,635.067,76.761Q634.968,74.34,635.076,71.55Q635.418,56.718,641.259,46.269Q647.1,35.82,657.405,30.294Q667.71,24.768,681.246,24.768Q694.926,24.768,705.411,30.132Q715.896,35.496,721.836,45.9Q727.776,56.304,727.776,71.37Q727.776,73.818,727.56,75.987Q727.344,78.156,726.93,80.046Q726.516,81.936,725.886,83.592Q723.978,88.452,720.324,90.963Q716.67,93.474,711.576,93.474Q705.636,93.474,702.378,91.863Q699.12,90.252,697.689,87.192Q696.258,84.132,695.664,79.848Q695.286,75.798,694.926,72.567Q694.566,69.336,694.134,66.771Q693.702,64.206,693.252,62.091Q692.802,59.976,692.226,58.086Q690.876,53.568,688.527,51.453Q686.178,49.338,682.02,49.338Q678.222,49.338,675.693,51.57Q673.164,53.802,671.472,58.176Q670.698,60.174,670.068,62.55Q669.438,64.926,668.925,67.752Q668.412,70.578,667.989,73.881Q667.566,77.184,667.098,81.036Q666.486,85.968,664.074,88.668Q661.662,91.368,658.125,92.421Q654.588,93.474,650.358,93.474ZM774.09,124.758Q763.218,124.758,756.405,123.408Q749.592,122.058,745.893,119.853Q742.194,117.648,740.817,114.93Q739.44,112.212,739.44,109.53Q739.44,106.452,741.537,104.418Q743.634,102.384,747.18,101.34Q750.726,100.296,755.082,100.296Q757.836,100.296,761.085,100.584Q764.334,100.872,767.754,101.16Q771.174,101.448,774.603,101.547Q778.032,101.646,781.254,101.268Q784.008,101.106,785.925,100.071Q787.842,99.036,789.066,97.461Q790.29,95.886,790.857,94.041Q791.424,92.196,791.424,90.342Q791.424,89.838,791.289,89.415Q791.154,88.992,790.893,88.713Q790.632,88.434,790.164,88.434Q789.336,88.434,787.851,89.109Q786.366,89.784,784.152,90.621Q781.938,91.458,778.959,92.133Q775.98,92.808,772.218,92.808Q760.806,92.808,753.021,89.208Q745.236,85.608,741.249,78.426Q737.262,71.244,737.262,60.534Q737.262,51.498,741.15,44.784Q745.038,38.07,751.626,33.615Q758.214,29.16,766.44,26.964Q774.666,24.768,783.378,24.768Q792.846,24.768,800.748,27.585Q808.65,30.402,814.455,35.856Q820.26,41.31,823.428,49.293Q826.596,57.276,826.596,67.626Q826.596,81.414,823.32,92.079Q820.044,102.744,813.501,110.016Q806.958,117.288,797.094,121.023Q787.23,124.758,774.09,124.758ZM781.236,73.188Q784.728,73.188,787.581,72.225Q790.434,71.262,792.45,69.453Q794.466,67.644,795.573,65.133Q796.68,62.622,796.68,59.544Q796.68,55.602,795.069,52.704Q793.458,49.806,790.416,48.213Q787.374,46.62,782.982,46.62Q780.12,46.62,777.294,47.43Q774.468,48.24,772.128,49.932Q769.788,51.624,768.402,54.288Q767.016,56.952,767.016,60.66Q767.016,64.242,768.717,67.095Q770.418,69.948,773.604,71.568Q776.79,73.188,781.236,73.188ZM870.21,95.958Q861.642,95.958,856.017,93.168Q850.392,90.378,847.125,84.546Q843.858,78.714,842.292,69.606Q841.59,66.438,841.059,62.253Q840.528,58.068,840.195,53.415Q839.862,48.762,839.646,44.298Q839.43,39.834,839.367,36.126Q839.304,32.418,839.376,30.06Q839.484,20.88,840.717,14.409Q841.95,7.938,845.388,4.54501Q848.826,1.152,855.378,1.152Q863.37,1.152,866.385,5.688Q869.4,10.224,869.4,20.178Q869.4,21.906,869.301,24.678Q869.202,27.45,869.058,30.852Q868.914,34.254,868.752,37.944Q868.59,41.634,868.446,45.216Q868.302,48.798,868.203,51.948Q868.104,55.098,868.104,57.438Q868.104,62.586,868.581,66.186Q869.058,69.786,870.03,72.009Q871.002,74.232,872.424,75.258Q873.846,76.284,875.718,76.284Q878.058,76.284,880.137,75.33Q882.216,74.376,884.241,73.413Q886.266,72.45,888.39,72.45Q891.09,72.45,892.692,74.448Q894.294,76.446,894.294,79.794Q894.294,83.466,892.017,86.472Q889.74,89.478,886.086,91.575Q882.432,93.672,878.238,94.815Q874.044,95.958,870.21,95.958ZM920.412,94.626Q914.22,94.626,910.818,92.439Q907.416,90.252,906.102,85.986Q904.788,81.72,904.788,75.564Q904.788,73.296,904.905,70.65Q905.022,68.004,905.211,65.223Q905.4,62.442,905.706,59.67Q906.012,56.898,906.39,54.315Q906.768,51.732,907.218,49.518Q907.668,47.304,908.208,45.702Q910.728,39.384,915.66,36.081Q920.592,32.778,928.332,32.778Q935.55,32.778,938.952,37.926Q942.354,43.074,942.354,51.948Q942.354,54.54,942.192,57.654Q942.03,60.768,941.706,64.044Q941.382,67.32,940.923,70.596Q940.464,73.872,939.807,76.815Q939.15,79.758,938.403,82.197Q937.656,84.636,936.702,86.238Q934.146,90.486,930.123,92.556Q926.1,94.626,920.412,94.626ZM926.568,25.308Q917.586,25.308,913.734,22.365Q909.882,19.422,909.882,15.588Q909.882,10.62,913.446,7.137Q917.01,3.65401,922.356,1.827Q927.702,0,933.12,0Q937.116,0,940.5,1.25101Q943.884,2.50201,945.954,5.166Q948.024,7.83,948.024,12.114Q948.024,16.956,945.054,19.845Q942.084,22.734,937.188,24.021Q932.292,25.308,926.568,25.308ZM992.25,94.734Q986.58,94.734,981.612,94.338Q976.644,93.942,972.54,93.15Q968.436,92.358,965.268,91.152Q961.182,89.604,958.545,87.453Q955.908,85.302,955.908,81.072Q955.908,76.41,958.554,73.674Q961.2,70.938,966.348,70.938Q969.246,70.938,972.441,71.658Q975.636,72.378,979.443,73.107Q983.25,73.836,987.84,73.836Q991.17,73.836,993.861,73.431Q996.552,73.026,998.145,71.946Q999.738,70.866,999.738,68.94Q999.738,67.05,998.568,65.907Q997.398,64.764,994.167,63.837Q990.936,62.91,984.744,61.83Q976.554,60.39,970.722,57.69Q964.89,54.99,961.776,50.733Q958.662,46.476,958.662,40.41Q958.662,34.884,961.857,30.987Q965.052,27.09,970.56,24.642Q976.068,22.194,982.98,21.033Q989.892,19.872,997.344,19.872Q1002.312,19.872,1007.46,20.466Q1012.61,21.06,1016.97,22.338Q1021.34,23.616,1024,25.668Q1026.67,27.72,1026.67,30.69Q1026.67,34.47,1024.9,36.756Q1023.14,39.042,1020.44,40.023Q1017.74,41.004,1014.86,41.004Q1010.97,41.004,1007.11,40.248Q1003.248,39.492,1000.26,39.492Q997.92,39.492,996.057,39.915Q994.194,40.338,993.15,41.238Q992.106,42.138,992.106,43.632Q992.106,45.882,995.337,47.133Q998.568,48.384,1005.84,49.716Q1012.9,50.94,1018.29,53.505Q1023.68,56.07,1026.74,60.408Q1029.8,64.746,1029.8,71.334Q1029.8,77.31,1027,81.693Q1024.2,86.076,1019.16,88.974Q1014.12,91.872,1007.27,93.303Q1000.422,94.734,992.25,94.734ZM1050.23,95.49Q1045.6,95.49,1043.05,93.465Q1040.49,91.44,1039.05,87.714Q1038.49,86.13,1038.04,83.421Q1037.59,80.712,1037.22,77.121Q1036.85,73.53,1036.66,69.3Q1036.48,65.07,1036.48,60.444Q1036.48,55.332,1036.9,50.067Q1037.32,44.802,1038.2,39.672Q1039.09,34.542,1040.44,29.691Q1041.79,24.84,1043.63,20.484Q1045.48,16.128,1047.82,12.438Q1051.2,7.30801,1055.69,4.527Q1060.18,1.746,1065.87,1.746Q1071.74,1.746,1075.24,5.292Q1078.74,8.83801,1078.74,15.066Q1078.74,17.316,1078.39,19.809Q1078.04,22.302,1077.53,24.741Q1077.03,27.18,1076.54,29.43Q1076.06,31.68,1075.71,33.435Q1075.36,35.19,1075.36,36.198Q1075.36,37.71,1076.31,37.71Q1077.35,37.71,1078.82,36.621Q1080.29,35.532,1082.61,34.101Q1084.93,32.67,1088.54,31.581Q1092.15,30.492,1097.48,30.492Q1105.56,30.492,1110.97,33.255Q1116.38,36.018,1119.6,40.77Q1122.82,45.522,1124.2,51.507Q1125.58,57.492,1125.58,63.936Q1125.58,66.978,1125.28,70.146Q1124.98,73.314,1124.44,76.257Q1123.9,79.2,1123.15,81.72Q1122.41,84.24,1121.49,86.022Q1119.37,89.928,1115.62,91.917Q1111.88,93.906,1106.28,93.906Q1101.71,93.906,1099.19,92.214Q1096.67,90.522,1095.37,87.48Q1094.89,85.968,1094.64,83.835Q1094.4,81.702,1094.29,79.101Q1094.18,76.5,1094.08,73.656Q1093.97,70.812,1093.75,67.95Q1093.54,65.088,1093,62.604Q1092.47,60.12,1091.43,58.248Q1090.39,56.376,1088.58,55.296Q1086.77,54.216,1083.98,54.216Q1080.94,54.216,1078.6,55.197Q1076.27,56.178,1074.62,57.834Q1072.96,59.49,1071.89,61.533Q1070.82,63.576,1070.33,65.682Q1069.58,69.3,1068.94,72.216Q1068.3,75.132,1067.66,77.589Q1067.02,80.046,1066.27,82.296Q1065.51,84.546,1064.52,86.868Q1062.56,91.044,1058.98,93.267Q1055.39,95.49,1050.23,95.49Z" fill="url(#master_svg1_57_590)" fill-opacity="1"/></g></g></svg>